%TF.GenerationSoftware,KiCad,Pcbnew,(6.0.1)*%
%TF.CreationDate,2023-06-09T19:02:12+03:00*%
%TF.ProjectId,Radioless Allstar Node,52616469-6f6c-4657-9373-20416c6c7374,rev?*%
%TF.SameCoordinates,PX5f5e100PY5f5e100*%
%TF.FileFunction,Soldermask,Top*%
%TF.FilePolarity,Negative*%
%FSLAX46Y46*%
G04 Gerber Fmt 4.6, Leading zero omitted, Abs format (unit mm)*
G04 Created by KiCad (PCBNEW (6.0.1)) date 2023-06-09 19:02:12*
%MOMM*%
%LPD*%
G01*
G04 APERTURE LIST*
G04 Aperture macros list*
%AMRoundRect*
0 Rectangle with rounded corners*
0 $1 Rounding radius*
0 $2 $3 $4 $5 $6 $7 $8 $9 X,Y pos of 4 corners*
0 Add a 4 corners polygon primitive as box body*
4,1,4,$2,$3,$4,$5,$6,$7,$8,$9,$2,$3,0*
0 Add four circle primitives for the rounded corners*
1,1,$1+$1,$2,$3*
1,1,$1+$1,$4,$5*
1,1,$1+$1,$6,$7*
1,1,$1+$1,$8,$9*
0 Add four rect primitives between the rounded corners*
20,1,$1+$1,$2,$3,$4,$5,0*
20,1,$1+$1,$4,$5,$6,$7,0*
20,1,$1+$1,$6,$7,$8,$9,0*
20,1,$1+$1,$8,$9,$2,$3,0*%
G04 Aperture macros list end*
%ADD10R,1.700000X1.700000*%
%ADD11C,1.700000*%
%ADD12C,3.500000*%
%ADD13RoundRect,0.225000X0.250000X-0.225000X0.250000X0.225000X-0.250000X0.225000X-0.250000X-0.225000X0*%
%ADD14RoundRect,0.200000X0.275000X-0.200000X0.275000X0.200000X-0.275000X0.200000X-0.275000X-0.200000X0*%
%ADD15RoundRect,0.250000X0.650000X-0.325000X0.650000X0.325000X-0.650000X0.325000X-0.650000X-0.325000X0*%
%ADD16R,1.800000X1.800000*%
%ADD17C,1.800000*%
%ADD18C,3.200000*%
%ADD19R,1.200000X1.200000*%
%ADD20R,1.600000X1.500000*%
%ADD21RoundRect,0.200000X-0.275000X0.200000X-0.275000X-0.200000X0.275000X-0.200000X0.275000X0.200000X0*%
%ADD22R,0.250000X0.700000*%
%ADD23R,2.350000X1.780000*%
%ADD24RoundRect,0.225000X-0.250000X0.225000X-0.250000X-0.225000X0.250000X-0.225000X0.250000X0.225000X0*%
%ADD25R,0.280000X1.470000*%
%ADD26R,1.470000X0.280000*%
%ADD27C,1.600000*%
%ADD28O,1.700000X1.700000*%
%ADD29O,1.800000X2.500000*%
%ADD30RoundRect,0.218750X0.256250X-0.218750X0.256250X0.218750X-0.256250X0.218750X-0.256250X-0.218750X0*%
%ADD31O,2.500000X1.800000*%
%ADD32RoundRect,0.218750X-0.256250X0.218750X-0.256250X-0.218750X0.256250X-0.218750X0.256250X0.218750X0*%
%ADD33RoundRect,0.225000X0.225000X0.250000X-0.225000X0.250000X-0.225000X-0.250000X0.225000X-0.250000X0*%
%ADD34R,2.000000X4.500000*%
%ADD35RoundRect,0.200000X-0.200000X-0.275000X0.200000X-0.275000X0.200000X0.275000X-0.200000X0.275000X0*%
%ADD36RoundRect,0.225000X-0.225000X-0.250000X0.225000X-0.250000X0.225000X0.250000X-0.225000X0.250000X0*%
%ADD37RoundRect,0.100000X-0.100000X0.712500X-0.100000X-0.712500X0.100000X-0.712500X0.100000X0.712500X0*%
G04 APERTURE END LIST*
D10*
%TO.C,J3*%
X26950000Y15177500D03*
D11*
X24450000Y15177500D03*
X24450000Y13177500D03*
X26950000Y13177500D03*
D12*
X19680000Y10467500D03*
X31720000Y10467500D03*
%TD*%
D13*
%TO.C,C7*%
X6000000Y8725000D03*
X6000000Y10275000D03*
%TD*%
D14*
%TO.C,R9*%
X19200000Y36775000D03*
X19200000Y38425000D03*
%TD*%
D15*
%TO.C,C22*%
X16500000Y36925000D03*
X16500000Y39875000D03*
%TD*%
D16*
%TO.C,D1*%
X50400000Y37200000D03*
D17*
X50400000Y39740000D03*
%TD*%
D13*
%TO.C,C10*%
X42800000Y18725000D03*
X42800000Y20275000D03*
%TD*%
D18*
%TO.C,H2*%
X50000000Y47000000D03*
%TD*%
D13*
%TO.C,C14*%
X23800000Y36825000D03*
X23800000Y38375000D03*
%TD*%
D19*
%TO.C,RV1*%
X8600000Y31300000D03*
D20*
X7600000Y28050000D03*
D19*
X6600000Y31300000D03*
%TD*%
D21*
%TO.C,R7*%
X44400000Y15025000D03*
X44400000Y13375000D03*
%TD*%
D13*
%TO.C,C18*%
X18700000Y18825000D03*
X18700000Y20375000D03*
%TD*%
D22*
%TO.C,U2*%
X42300000Y16475000D03*
X41900000Y16475000D03*
X41500000Y16475000D03*
X41100000Y16475000D03*
X40700000Y16475000D03*
X40300000Y16475000D03*
X39900000Y16475000D03*
X39900000Y13525000D03*
X40300000Y13525000D03*
X40700000Y13525000D03*
X41100000Y13525000D03*
X41500000Y13525000D03*
X41900000Y13525000D03*
X42300000Y13525000D03*
D23*
X41100000Y15000000D03*
%TD*%
D13*
%TO.C,C25*%
X36900000Y21625000D03*
X36900000Y23175000D03*
%TD*%
%TO.C,C1*%
X6200000Y15225000D03*
X6200000Y16775000D03*
%TD*%
%TO.C,C8*%
X41000000Y9025000D03*
X41000000Y10575000D03*
%TD*%
D21*
%TO.C,R14*%
X48600000Y32825000D03*
X48600000Y31175000D03*
%TD*%
D24*
%TO.C,C4*%
X9000000Y25775000D03*
X9000000Y24225000D03*
%TD*%
D14*
%TO.C,R11*%
X20700000Y18775000D03*
X20700000Y20425000D03*
%TD*%
D21*
%TO.C,R4*%
X11500000Y22725000D03*
X11500000Y21075000D03*
%TD*%
%TO.C,R2*%
X6500000Y22725000D03*
X6500000Y21075000D03*
%TD*%
D25*
%TO.C,U3*%
X21750000Y25430000D03*
X22250000Y25430000D03*
X22750000Y25430000D03*
X23250000Y25430000D03*
X23750000Y25430000D03*
X24250000Y25430000D03*
X24750000Y25430000D03*
X25250000Y25430000D03*
X25750000Y25430000D03*
X26250000Y25430000D03*
X26750000Y25430000D03*
X27250000Y25430000D03*
D26*
X28670000Y26850000D03*
X28670000Y27350000D03*
X28670000Y27850000D03*
X28670000Y28350000D03*
X28670000Y28850000D03*
X28670000Y29350000D03*
X28670000Y29850000D03*
X28670000Y30350000D03*
X28670000Y30850000D03*
X28670000Y31350000D03*
X28670000Y31850000D03*
X28670000Y32350000D03*
D25*
X27250000Y33770000D03*
X26750000Y33770000D03*
X26250000Y33770000D03*
X25750000Y33770000D03*
X25250000Y33770000D03*
X24750000Y33770000D03*
X24250000Y33770000D03*
X23750000Y33770000D03*
X23250000Y33770000D03*
X22750000Y33770000D03*
X22250000Y33770000D03*
X21750000Y33770000D03*
D26*
X20330000Y32350000D03*
X20330000Y31850000D03*
X20330000Y31350000D03*
X20330000Y30850000D03*
X20330000Y30350000D03*
X20330000Y29850000D03*
X20330000Y29350000D03*
X20330000Y28850000D03*
X20330000Y28350000D03*
X20330000Y27850000D03*
X20330000Y27350000D03*
X20330000Y26850000D03*
%TD*%
D13*
%TO.C,C6*%
X12000000Y8725000D03*
X12000000Y10275000D03*
%TD*%
D27*
%TO.C,C24*%
X10500000Y39000000D03*
X5500000Y39000000D03*
%TD*%
D10*
%TO.C,J4*%
X14600000Y29925000D03*
D28*
X14600000Y27385000D03*
X14600000Y24845000D03*
%TD*%
D29*
%TO.C,J2*%
X32920000Y46000000D03*
X35460000Y46000000D03*
X38000000Y46000000D03*
X40540000Y46000000D03*
X43080000Y46000000D03*
%TD*%
D14*
%TO.C,R3*%
X46100000Y13375000D03*
X46100000Y15025000D03*
%TD*%
%TO.C,R6*%
X44600000Y8975000D03*
X44600000Y10625000D03*
%TD*%
D24*
%TO.C,C26*%
X36900000Y27175000D03*
X36900000Y25625000D03*
%TD*%
D13*
%TO.C,C15*%
X22200000Y36825000D03*
X22200000Y38375000D03*
%TD*%
D30*
%TO.C,FB3*%
X28700000Y18812500D03*
X28700000Y20387500D03*
%TD*%
D13*
%TO.C,C13*%
X25300000Y36825000D03*
X25300000Y38375000D03*
%TD*%
D31*
%TO.C,SW1*%
X49000000Y20560000D03*
X49000000Y23100000D03*
X49000000Y25640000D03*
%TD*%
D13*
%TO.C,C16*%
X20700000Y36825000D03*
X20700000Y38375000D03*
%TD*%
%TO.C,C9*%
X42800000Y9025000D03*
X42800000Y10575000D03*
%TD*%
D32*
%TO.C,FB1*%
X7800000Y10287500D03*
X7800000Y8712500D03*
%TD*%
D13*
%TO.C,C11*%
X47800000Y13425000D03*
X47800000Y14975000D03*
%TD*%
D14*
%TO.C,R12*%
X23700000Y18775000D03*
X23700000Y20425000D03*
%TD*%
D33*
%TO.C,C17*%
X17275000Y34600000D03*
X15725000Y34600000D03*
%TD*%
D13*
%TO.C,C2*%
X41100000Y18725000D03*
X41100000Y20275000D03*
%TD*%
D32*
%TO.C,FB2*%
X10200000Y10287500D03*
X10200000Y8712500D03*
%TD*%
D24*
%TO.C,C5*%
X6500000Y25775000D03*
X6500000Y24225000D03*
%TD*%
D13*
%TO.C,C12*%
X39400000Y18725000D03*
X39400000Y20275000D03*
%TD*%
D18*
%TO.C,H4*%
X3000000Y3000000D03*
%TD*%
D34*
%TO.C,Y1*%
X33100000Y20150000D03*
X33100000Y28650000D03*
%TD*%
D35*
%TO.C,R13*%
X49675000Y42000000D03*
X51325000Y42000000D03*
%TD*%
D36*
%TO.C,C21*%
X31725000Y33000000D03*
X33275000Y33000000D03*
%TD*%
D18*
%TO.C,H1*%
X3000000Y47000000D03*
%TD*%
D13*
%TO.C,C19*%
X25700000Y18825000D03*
X25700000Y20375000D03*
%TD*%
D21*
%TO.C,R1*%
X9000000Y22725000D03*
X9000000Y21075000D03*
%TD*%
D33*
%TO.C,C23*%
X33275000Y34600000D03*
X31725000Y34600000D03*
%TD*%
D14*
%TO.C,R10*%
X15700000Y18775000D03*
X15700000Y20425000D03*
%TD*%
D33*
%TO.C,C20*%
X17275000Y33000000D03*
X15725000Y33000000D03*
%TD*%
D32*
%TO.C,D2*%
X50300000Y32787500D03*
X50300000Y31212500D03*
%TD*%
D29*
%TO.C,J1*%
X9730000Y4000000D03*
X12270000Y4000000D03*
%TD*%
%TO.C,RV3*%
X17860000Y46000000D03*
X20400000Y46000000D03*
X22940000Y46000000D03*
%TD*%
D14*
%TO.C,R8*%
X26800000Y36775000D03*
X26800000Y38425000D03*
%TD*%
D18*
%TO.C,H3*%
X50000000Y3000000D03*
%TD*%
D24*
%TO.C,C3*%
X39200000Y10575000D03*
X39200000Y9025000D03*
%TD*%
D37*
%TO.C,U1*%
X9975000Y18112500D03*
X9325000Y18112500D03*
X8675000Y18112500D03*
X8025000Y18112500D03*
X8025000Y13887500D03*
X8675000Y13887500D03*
X9325000Y13887500D03*
X9975000Y13887500D03*
%TD*%
D29*
%TO.C,RV2*%
X38360000Y4000000D03*
X40900000Y4000000D03*
X43440000Y4000000D03*
%TD*%
M02*
