%FSLAX45Y45*%
G04 Gerber Fmt 4.5, Leading zero omitted, Abs format (unit mm)*
G04 Created by KiCad (PCBNEW (6.0.1)) date 2023-06-09 19:02:08*
%MOMM*%
%LPD*%
G01*
G04 APERTURE LIST*
%TA.AperFunction,Profile*%
%ADD10C,0.100000*%
%TD*%
%ADD11C,0.200000*%
%ADD12C,0.320000*%
G04 APERTURE END LIST*
D10*
X5000000Y-167D02*
G75*
G03*
X5300000Y290000I0J300167D01*
G01*
X5300000Y290000D02*
X5300167Y4700000D01*
X290000Y0D02*
X5000000Y-167D01*
X5300167Y4700000D02*
G75*
G03*
X5010000Y5000000I-300167J0D01*
G01*
X-167Y300000D02*
G75*
G03*
X290000Y0I300167J0D01*
G01*
X5010000Y5000000D02*
X300000Y5000167D01*
X0Y4710000D02*
X-167Y300000D01*
X300000Y5000167D02*
G75*
G03*
X0Y4710000I0J-300167D01*
G01*
D11*
D12*
X140000Y4860000D02*
X460000Y4540000D01*
X460000Y4860000D02*
X140000Y4540000D01*
X140000Y460000D02*
X460000Y140000D01*
X460000Y460000D02*
X140000Y140000D01*
X4840000Y4860000D02*
X5160000Y4540000D01*
X5160000Y4860000D02*
X4840000Y4540000D01*
X4840000Y460000D02*
X5160000Y140000D01*
X5160000Y460000D02*
X4840000Y140000D01*
D11*
X252452Y-315643D02*
X252452Y-115643D01*
X300071Y-115643D01*
X328643Y-125167D01*
X347691Y-144214D01*
X357214Y-163262D01*
X366738Y-201357D01*
X366738Y-229928D01*
X357214Y-268024D01*
X347691Y-287071D01*
X328643Y-306119D01*
X300071Y-315643D01*
X252452Y-315643D01*
X452452Y-315643D02*
X452452Y-182309D01*
X452452Y-220405D02*
X461976Y-201357D01*
X471500Y-191833D01*
X490548Y-182309D01*
X509595Y-182309D01*
X576262Y-315643D02*
X576262Y-182309D01*
X576262Y-115643D02*
X566738Y-125167D01*
X576262Y-134690D01*
X585786Y-125167D01*
X576262Y-115643D01*
X576262Y-134690D01*
X700071Y-315643D02*
X681024Y-306119D01*
X671500Y-287071D01*
X671500Y-115643D01*
X804833Y-315643D02*
X785786Y-306119D01*
X776262Y-287071D01*
X776262Y-115643D01*
X1033405Y-315643D02*
X1033405Y-115643D01*
X1100071Y-258500D01*
X1166738Y-115643D01*
X1166738Y-315643D01*
X1347691Y-315643D02*
X1347691Y-210881D01*
X1338167Y-191833D01*
X1319119Y-182309D01*
X1281024Y-182309D01*
X1261976Y-191833D01*
X1347691Y-306119D02*
X1328643Y-315643D01*
X1281024Y-315643D01*
X1261976Y-306119D01*
X1252452Y-287071D01*
X1252452Y-268024D01*
X1261976Y-248976D01*
X1281024Y-239452D01*
X1328643Y-239452D01*
X1347691Y-229928D01*
X1442929Y-182309D02*
X1442929Y-382309D01*
X1442929Y-191833D02*
X1461976Y-182309D01*
X1500071Y-182309D01*
X1519119Y-191833D01*
X1528643Y-201357D01*
X1538167Y-220405D01*
X1538167Y-277548D01*
X1528643Y-296595D01*
X1519119Y-306119D01*
X1500071Y-315643D01*
X1461976Y-315643D01*
X1442929Y-306119D01*
X1623881Y-296595D02*
X1633405Y-306119D01*
X1623881Y-315643D01*
X1614357Y-306119D01*
X1623881Y-296595D01*
X1623881Y-315643D01*
X1623881Y-191833D02*
X1633405Y-201357D01*
X1623881Y-210881D01*
X1614357Y-201357D01*
X1623881Y-191833D01*
X1623881Y-210881D01*
X-205167Y-545167D02*
X-5167Y-745167D01*
X-5167Y-545167D02*
X-205167Y-745167D01*
X233405Y-535643D02*
X357214Y-535643D01*
X290548Y-611833D01*
X319119Y-611833D01*
X338167Y-621357D01*
X347691Y-630881D01*
X357214Y-649929D01*
X357214Y-697548D01*
X347691Y-716595D01*
X338167Y-726119D01*
X319119Y-735643D01*
X261976Y-735643D01*
X242929Y-726119D01*
X233405Y-716595D01*
X442929Y-716595D02*
X452452Y-726119D01*
X442929Y-735643D01*
X433405Y-726119D01*
X442929Y-716595D01*
X442929Y-735643D01*
X528643Y-554690D02*
X538167Y-545167D01*
X557214Y-535643D01*
X604833Y-535643D01*
X623881Y-545167D01*
X633405Y-554690D01*
X642929Y-573738D01*
X642929Y-592786D01*
X633405Y-621357D01*
X519119Y-735643D01*
X642929Y-735643D01*
X766738Y-535643D02*
X785786Y-535643D01*
X804833Y-545167D01*
X814357Y-554690D01*
X823881Y-573738D01*
X833405Y-611833D01*
X833405Y-659452D01*
X823881Y-697548D01*
X814357Y-716595D01*
X804833Y-726119D01*
X785786Y-735643D01*
X766738Y-735643D01*
X747690Y-726119D01*
X738167Y-716595D01*
X728643Y-697548D01*
X719119Y-659452D01*
X719119Y-611833D01*
X728643Y-573738D01*
X738167Y-554690D01*
X747690Y-545167D01*
X766738Y-535643D01*
X957214Y-535643D02*
X976262Y-535643D01*
X995309Y-545167D01*
X1004833Y-554690D01*
X1014357Y-573738D01*
X1023881Y-611833D01*
X1023881Y-659452D01*
X1014357Y-697548D01*
X1004833Y-716595D01*
X995309Y-726119D01*
X976262Y-735643D01*
X957214Y-735643D01*
X938167Y-726119D01*
X928643Y-716595D01*
X919119Y-697548D01*
X909595Y-659452D01*
X909595Y-611833D01*
X919119Y-573738D01*
X928643Y-554690D01*
X938167Y-545167D01*
X957214Y-535643D01*
X1109595Y-735643D02*
X1109595Y-602309D01*
X1109595Y-621357D02*
X1119119Y-611833D01*
X1138167Y-602309D01*
X1166738Y-602309D01*
X1185786Y-611833D01*
X1195310Y-630881D01*
X1195310Y-735643D01*
X1195310Y-630881D02*
X1204833Y-611833D01*
X1223881Y-602309D01*
X1252452Y-602309D01*
X1271500Y-611833D01*
X1281024Y-630881D01*
X1281024Y-735643D01*
X1376262Y-735643D02*
X1376262Y-602309D01*
X1376262Y-621357D02*
X1385786Y-611833D01*
X1404833Y-602309D01*
X1433405Y-602309D01*
X1452452Y-611833D01*
X1461976Y-630881D01*
X1461976Y-735643D01*
X1461976Y-630881D02*
X1471500Y-611833D01*
X1490548Y-602309D01*
X1519119Y-602309D01*
X1538167Y-611833D01*
X1547690Y-630881D01*
X1547690Y-735643D01*
X1938167Y-526119D02*
X1766738Y-783262D01*
X2195310Y-535643D02*
X2214357Y-535643D01*
X2233405Y-545167D01*
X2242929Y-554690D01*
X2252452Y-573738D01*
X2261976Y-611833D01*
X2261976Y-659452D01*
X2252452Y-697548D01*
X2242929Y-716595D01*
X2233405Y-726119D01*
X2214357Y-735643D01*
X2195310Y-735643D01*
X2176262Y-726119D01*
X2166738Y-716595D01*
X2157214Y-697548D01*
X2147691Y-659452D01*
X2147691Y-611833D01*
X2157214Y-573738D01*
X2166738Y-554690D01*
X2176262Y-545167D01*
X2195310Y-535643D01*
X2347691Y-716595D02*
X2357214Y-726119D01*
X2347691Y-735643D01*
X2338167Y-726119D01*
X2347691Y-716595D01*
X2347691Y-735643D01*
X2547691Y-735643D02*
X2433405Y-735643D01*
X2490548Y-735643D02*
X2490548Y-535643D01*
X2471500Y-564214D01*
X2452452Y-583262D01*
X2433405Y-592786D01*
X2623881Y-554690D02*
X2633405Y-545167D01*
X2652452Y-535643D01*
X2700071Y-535643D01*
X2719119Y-545167D01*
X2728643Y-554690D01*
X2738167Y-573738D01*
X2738167Y-592786D01*
X2728643Y-621357D01*
X2614357Y-735643D01*
X2738167Y-735643D01*
X2909595Y-535643D02*
X2871500Y-535643D01*
X2852452Y-545167D01*
X2842929Y-554690D01*
X2823881Y-583262D01*
X2814357Y-621357D01*
X2814357Y-697548D01*
X2823881Y-716595D01*
X2833405Y-726119D01*
X2852452Y-735643D01*
X2890548Y-735643D01*
X2909595Y-726119D01*
X2919119Y-716595D01*
X2928643Y-697548D01*
X2928643Y-649929D01*
X2919119Y-630881D01*
X2909595Y-621357D01*
X2890548Y-611833D01*
X2852452Y-611833D01*
X2833405Y-621357D01*
X2823881Y-630881D01*
X2814357Y-649929D01*
X3052452Y-535643D02*
X3071500Y-535643D01*
X3090548Y-545167D01*
X3100071Y-554690D01*
X3109595Y-573738D01*
X3119119Y-611833D01*
X3119119Y-659452D01*
X3109595Y-697548D01*
X3100071Y-716595D01*
X3090548Y-726119D01*
X3071500Y-735643D01*
X3052452Y-735643D01*
X3033405Y-726119D01*
X3023881Y-716595D01*
X3014357Y-697548D01*
X3004833Y-659452D01*
X3004833Y-611833D01*
X3014357Y-573738D01*
X3023881Y-554690D01*
X3033405Y-545167D01*
X3052452Y-535643D01*
X3195309Y-535643D02*
X3195309Y-573738D01*
X3271500Y-535643D02*
X3271500Y-573738D01*
X3566738Y-811833D02*
X3557214Y-802309D01*
X3538167Y-773738D01*
X3528643Y-754690D01*
X3519119Y-726119D01*
X3509595Y-678500D01*
X3509595Y-640405D01*
X3519119Y-592786D01*
X3528643Y-564214D01*
X3538167Y-545167D01*
X3557214Y-516595D01*
X3566738Y-507071D01*
X3728643Y-602309D02*
X3728643Y-735643D01*
X3681024Y-526119D02*
X3633405Y-668976D01*
X3757214Y-668976D01*
X3985786Y-735643D02*
X3985786Y-535643D01*
X4071500Y-735643D02*
X4071500Y-630881D01*
X4061976Y-611833D01*
X4042929Y-602309D01*
X4014357Y-602309D01*
X3995309Y-611833D01*
X3985786Y-621357D01*
X4195310Y-735643D02*
X4176262Y-726119D01*
X4166738Y-716595D01*
X4157214Y-697548D01*
X4157214Y-640405D01*
X4166738Y-621357D01*
X4176262Y-611833D01*
X4195310Y-602309D01*
X4223881Y-602309D01*
X4242929Y-611833D01*
X4252452Y-621357D01*
X4261976Y-640405D01*
X4261976Y-697548D01*
X4252452Y-716595D01*
X4242929Y-726119D01*
X4223881Y-735643D01*
X4195310Y-735643D01*
X4376262Y-735643D02*
X4357214Y-726119D01*
X4347691Y-707071D01*
X4347691Y-535643D01*
X4528643Y-726119D02*
X4509595Y-735643D01*
X4471500Y-735643D01*
X4452452Y-726119D01*
X4442929Y-707071D01*
X4442929Y-630881D01*
X4452452Y-611833D01*
X4471500Y-602309D01*
X4509595Y-602309D01*
X4528643Y-611833D01*
X4538167Y-630881D01*
X4538167Y-649929D01*
X4442929Y-668976D01*
X4614357Y-726119D02*
X4633405Y-735643D01*
X4671500Y-735643D01*
X4690548Y-726119D01*
X4700071Y-707071D01*
X4700071Y-697548D01*
X4690548Y-678500D01*
X4671500Y-668976D01*
X4642929Y-668976D01*
X4623881Y-659452D01*
X4614357Y-640405D01*
X4614357Y-630881D01*
X4623881Y-611833D01*
X4642929Y-602309D01*
X4671500Y-602309D01*
X4690548Y-611833D01*
X4766738Y-811833D02*
X4776262Y-802309D01*
X4795310Y-773738D01*
X4804833Y-754690D01*
X4814357Y-726119D01*
X4823881Y-678500D01*
X4823881Y-640405D01*
X4814357Y-592786D01*
X4804833Y-564214D01*
X4795310Y-545167D01*
X4776262Y-516595D01*
X4766738Y-507071D01*
X5128643Y-811833D02*
X5119119Y-802309D01*
X5100071Y-773738D01*
X5090548Y-754690D01*
X5081024Y-726119D01*
X5071500Y-678500D01*
X5071500Y-640405D01*
X5081024Y-592786D01*
X5090548Y-564214D01*
X5100071Y-545167D01*
X5119119Y-516595D01*
X5128643Y-507071D01*
X5204833Y-602309D02*
X5204833Y-735643D01*
X5204833Y-621357D02*
X5214357Y-611833D01*
X5233405Y-602309D01*
X5261976Y-602309D01*
X5281024Y-611833D01*
X5290548Y-630881D01*
X5290548Y-735643D01*
X5414357Y-735643D02*
X5395310Y-726119D01*
X5385786Y-716595D01*
X5376262Y-697548D01*
X5376262Y-640405D01*
X5385786Y-621357D01*
X5395310Y-611833D01*
X5414357Y-602309D01*
X5442929Y-602309D01*
X5461976Y-611833D01*
X5471500Y-621357D01*
X5481024Y-640405D01*
X5481024Y-697548D01*
X5471500Y-716595D01*
X5461976Y-726119D01*
X5442929Y-735643D01*
X5414357Y-735643D01*
X5538167Y-602309D02*
X5614357Y-602309D01*
X5566738Y-535643D02*
X5566738Y-707071D01*
X5576262Y-726119D01*
X5595309Y-735643D01*
X5614357Y-735643D01*
X5833405Y-602309D02*
X5833405Y-802309D01*
X5833405Y-611833D02*
X5852452Y-602309D01*
X5890548Y-602309D01*
X5909595Y-611833D01*
X5919119Y-621357D01*
X5928643Y-640405D01*
X5928643Y-697548D01*
X5919119Y-716595D01*
X5909595Y-726119D01*
X5890548Y-735643D01*
X5852452Y-735643D01*
X5833405Y-726119D01*
X6042929Y-735643D02*
X6023881Y-726119D01*
X6014357Y-707071D01*
X6014357Y-535643D01*
X6204833Y-735643D02*
X6204833Y-630881D01*
X6195309Y-611833D01*
X6176262Y-602309D01*
X6138167Y-602309D01*
X6119119Y-611833D01*
X6204833Y-726119D02*
X6185786Y-735643D01*
X6138167Y-735643D01*
X6119119Y-726119D01*
X6109595Y-707071D01*
X6109595Y-688024D01*
X6119119Y-668976D01*
X6138167Y-659452D01*
X6185786Y-659452D01*
X6204833Y-649929D01*
X6271500Y-602309D02*
X6347690Y-602309D01*
X6300071Y-535643D02*
X6300071Y-707071D01*
X6309595Y-726119D01*
X6328643Y-735643D01*
X6347690Y-735643D01*
X6490548Y-726119D02*
X6471500Y-735643D01*
X6433405Y-735643D01*
X6414357Y-726119D01*
X6404833Y-707071D01*
X6404833Y-630881D01*
X6414357Y-611833D01*
X6433405Y-602309D01*
X6471500Y-602309D01*
X6490548Y-611833D01*
X6500071Y-630881D01*
X6500071Y-649929D01*
X6404833Y-668976D01*
X6671500Y-735643D02*
X6671500Y-535643D01*
X6671500Y-726119D02*
X6652452Y-735643D01*
X6614357Y-735643D01*
X6595309Y-726119D01*
X6585786Y-716595D01*
X6576262Y-697548D01*
X6576262Y-640405D01*
X6585786Y-621357D01*
X6595309Y-611833D01*
X6614357Y-602309D01*
X6652452Y-602309D01*
X6671500Y-611833D01*
X6747690Y-811833D02*
X6757214Y-802309D01*
X6776262Y-773738D01*
X6785786Y-754690D01*
X6795309Y-726119D01*
X6804833Y-678500D01*
X6804833Y-640405D01*
X6795309Y-592786D01*
X6785786Y-564214D01*
X6776262Y-545167D01*
X6757214Y-516595D01*
X6747690Y-507071D01*
M02*
