M48
; DRILL file {KiCad (6.0.1)} date Fri Jun  9 19:02:09 2023
; FORMAT={-:-/ absolute / metric / decimal}
; #@! TF.CreationDate,2023-06-09T19:02:09+03:00
; #@! TF.GenerationSoftware,Kicad,Pcbnew,(6.0.1)
; #@! TF.FileFunction,Plated,1,2,PTH
FMAT,2
METRIC
; #@! TA.AperFunction,Plated,PTH,ViaDrill
T1C0.250
; #@! TA.AperFunction,Plated,PTH,ComponentDrill
T2C0.800
; #@! TA.AperFunction,Plated,PTH,ComponentDrill
T3C0.900
; #@! TA.AperFunction,Plated,PTH,ComponentDrill
T4C0.920
; #@! TA.AperFunction,Plated,PTH,ComponentDrill
T5C1.000
; #@! TA.AperFunction,Plated,PTH,ComponentDrill
T6C1.200
; #@! TA.AperFunction,Plated,PTH,ComponentDrill
T7C2.330
%
G90
G05
T1
X6.0Y11.1
X6.2Y17.7
X6.5Y26.6
X8.6Y32.3
X9.32Y15.35
X12.0Y11.1
X14.9Y34.6
X14.9Y33.0
X18.0Y36.925
X18.7Y21.1
X20.7Y39.2
X21.75Y34.98
X22.2Y39.2
X23.25Y32.56
X23.75Y35.4
X23.8Y39.2
X23.9Y30.0
X25.3Y39.2
X25.7Y21.2
X26.25Y26.64
X27.46Y32.35
X27.46Y31.35
X27.46Y28.35
X27.46Y27.35
X29.88Y31.85
X29.975Y25.425
X30.1Y36.2
X30.975Y26.85
X32.9Y37.0
X34.1Y33.0
X36.0Y32.0
X36.0Y25.6
X36.0Y23.2
X39.4Y16.4
X39.5Y15.5
X39.5Y14.5
X39.525Y24.475
X39.55Y26.85
X40.225Y20.275
X40.4Y12.6
X40.7Y17.325
X41.012Y12.309
X41.7Y18.125
X41.975Y20.275
X42.7Y15.5
X42.7Y14.5
X43.7Y10.575
X44.4Y14.05
X45.4Y10.625
X48.6Y14.975
X48.925Y11.925
X50.3Y33.6
T2
X5.5Y39.0
X10.5Y39.0
T3
X50.4Y39.74
X50.4Y37.2
T4
X24.45Y15.177
X24.45Y13.178
X26.95Y15.177
X26.95Y13.178
T5
X14.6Y29.925
X14.6Y27.385
X14.6Y24.845
T6
X9.73Y4.0
X12.27Y4.0
X17.86Y46.0
X20.4Y46.0
X22.94Y46.0
X32.92Y46.0
X35.46Y46.0
X38.0Y46.0
X38.36Y4.0
X40.54Y46.0
X40.9Y4.0
X43.08Y46.0
X43.44Y4.0
X49.0Y25.64
X49.0Y23.1
X49.0Y20.56
T7
X19.68Y10.467
X31.72Y10.467
T0
M30
