%TF.GenerationSoftware,KiCad,Pcbnew,(6.0.1)*%
%TF.CreationDate,2023-06-09T19:02:11+03:00*%
%TF.ProjectId,Radioless Allstar Node,52616469-6f6c-4657-9373-20416c6c7374,rev?*%
%TF.SameCoordinates,PX5f5e100PY5f5e100*%
%TF.FileFunction,Copper,L2,Bot*%
%TF.FilePolarity,Positive*%
%FSLAX46Y46*%
G04 Gerber Fmt 4.6, Leading zero omitted, Abs format (unit mm)*
G04 Created by KiCad (PCBNEW (6.0.1)) date 2023-06-09 19:02:11*
%MOMM*%
%LPD*%
G01*
G04 APERTURE LIST*
%TA.AperFunction,ComponentPad*%
%ADD10R,1.700000X1.700000*%
%TD*%
%TA.AperFunction,ComponentPad*%
%ADD11C,1.700000*%
%TD*%
%TA.AperFunction,ComponentPad*%
%ADD12C,3.500000*%
%TD*%
%TA.AperFunction,ComponentPad*%
%ADD13R,1.800000X1.800000*%
%TD*%
%TA.AperFunction,ComponentPad*%
%ADD14C,1.800000*%
%TD*%
%TA.AperFunction,ComponentPad*%
%ADD15C,1.600000*%
%TD*%
%TA.AperFunction,ComponentPad*%
%ADD16O,1.700000X1.700000*%
%TD*%
%TA.AperFunction,ComponentPad*%
%ADD17O,1.800000X2.500000*%
%TD*%
%TA.AperFunction,ComponentPad*%
%ADD18O,2.500000X1.800000*%
%TD*%
%TA.AperFunction,ViaPad*%
%ADD19C,0.550000*%
%TD*%
%TA.AperFunction,Conductor*%
%ADD20C,0.200000*%
%TD*%
%TA.AperFunction,Conductor*%
%ADD21C,0.700000*%
%TD*%
%TA.AperFunction,Conductor*%
%ADD22C,0.800000*%
%TD*%
%TA.AperFunction,Conductor*%
%ADD23C,0.350000*%
%TD*%
G04 APERTURE END LIST*
D10*
%TO.P,J3,1,VBUS*%
%TO.N,Net-(FB3-Pad1)*%
X26950000Y15177500D03*
D11*
%TO.P,J3,2,D-*%
%TO.N,/D-*%
X24450000Y15177500D03*
%TO.P,J3,3,D+*%
%TO.N,/D+*%
X24450000Y13177500D03*
%TO.P,J3,4,GND*%
%TO.N,GND*%
X26950000Y13177500D03*
D12*
%TO.P,J3,5,Shield*%
X19680000Y10467500D03*
X31720000Y10467500D03*
%TD*%
D13*
%TO.P,D1,1,K*%
%TO.N,GND*%
X50400000Y37200000D03*
D14*
%TO.P,D1,2,A*%
%TO.N,Net-(D1-Pad2)*%
X50400000Y39740000D03*
%TD*%
D15*
%TO.P,C24,1*%
%TO.N,+5V*%
X10500000Y39000000D03*
%TO.P,C24,2*%
%TO.N,GND*%
X5500000Y39000000D03*
%TD*%
D10*
%TO.P,J4,1,Pin_1*%
%TO.N,REGV*%
X14600000Y29925000D03*
D16*
%TO.P,J4,2,Pin_2*%
%TO.N,MSEL*%
X14600000Y27385000D03*
%TO.P,J4,3,Pin_3*%
%TO.N,GND*%
X14600000Y24845000D03*
%TD*%
D17*
%TO.P,J2,1,Pin_1*%
%TO.N,Rx Audio*%
X32920000Y46000000D03*
%TO.P,J2,2,Pin_2*%
%TO.N,COS*%
X35460000Y46000000D03*
%TO.P,J2,3,Pin_3*%
%TO.N,+5V*%
X38000000Y46000000D03*
%TO.P,J2,4,Pin_4*%
%TO.N,GND1*%
X40540000Y46000000D03*
%TO.P,J2,5,Pin_5*%
%TO.N,GND*%
X43080000Y46000000D03*
%TD*%
D18*
%TO.P,SW1,1,A*%
%TO.N,+5V*%
X49000000Y20560000D03*
%TO.P,SW1,2,B*%
%TO.N,GAIN*%
X49000000Y23100000D03*
%TO.P,SW1,3,C*%
%TO.N,GND*%
X49000000Y25640000D03*
%TD*%
D17*
%TO.P,J1,1,Pin_1*%
%TO.N,/T*%
X9730000Y4000000D03*
%TO.P,J1,2,Pin_2*%
%TO.N,/S*%
X12270000Y4000000D03*
%TD*%
%TO.P,RV3,1,1*%
%TO.N,Tx Audio*%
X17860000Y46000000D03*
%TO.P,RV3,2,2*%
%TO.N,AIN+*%
X20400000Y46000000D03*
%TO.P,RV3,3,3*%
%TO.N,GND*%
X22940000Y46000000D03*
%TD*%
%TO.P,RV2,1,1*%
%TO.N,Net-(C3-Pad2)*%
X38360000Y4000000D03*
%TO.P,RV2,2,2*%
%TO.N,Net-(C8-Pad1)*%
X40900000Y4000000D03*
%TO.P,RV2,3,3*%
%TO.N,Net-(R6-Pad1)*%
X43440000Y4000000D03*
%TD*%
D19*
%TO.N,Net-(R14-Pad1)*%
X39525000Y24475000D03*
X29975000Y25425000D03*
%TO.N,Net-(R13-Pad1)*%
X39550000Y26850000D03*
X30975000Y26850000D03*
%TO.N,+5V*%
X40700000Y17325000D03*
X41700000Y18125000D03*
%TO.N,GND1*%
X41975000Y20275000D03*
X42700000Y15500000D03*
X39500000Y15500000D03*
X39500000Y14500000D03*
X40225000Y20275000D03*
X45400000Y10625000D03*
X48600000Y14975000D03*
X41012469Y12308967D03*
X43700000Y10575000D03*
X39400000Y16400000D03*
X42700000Y14500000D03*
X44400000Y14050000D03*
%TO.N,GND*%
X22200000Y39200000D03*
X14900000Y33000000D03*
X18700000Y21100000D03*
X6200000Y17700000D03*
X29880000Y31850000D03*
X8600000Y32300000D03*
X27460000Y32350000D03*
X36000000Y25600000D03*
X6500000Y26600000D03*
X23250000Y32560000D03*
X20700000Y39200000D03*
X12000000Y11100000D03*
X14900000Y34600000D03*
X25300000Y39200000D03*
X21750000Y34980000D03*
X6000000Y11100000D03*
X27460000Y28350000D03*
X50300000Y33600000D03*
X36000000Y23200000D03*
X9320000Y15350000D03*
X23800000Y39200000D03*
X26250000Y26640000D03*
X25700000Y21200000D03*
X27460000Y31350000D03*
X34100000Y33000000D03*
X27460000Y27350000D03*
%TO.N,GAIN*%
X40400000Y12600000D03*
X48925000Y11925000D03*
%TO.N,Rx Audio*%
X32900000Y37000000D03*
X36000000Y32000000D03*
%TO.N,COS*%
X30100000Y36200000D03*
X23900000Y30000000D03*
%TO.N,LOR*%
X23750000Y35400000D03*
X18000000Y36925000D03*
%TD*%
D20*
%TO.N,Net-(R14-Pad1)*%
X35100000Y24475000D02*
X39525000Y24475000D01*
X29975000Y25425000D02*
X34150000Y25425000D01*
X34700000Y24875000D02*
X35100000Y24475000D01*
X34150000Y25425000D02*
X34700000Y24875000D01*
%TO.N,Net-(R13-Pad1)*%
X30975000Y26850000D02*
X39550000Y26850000D01*
D21*
%TO.N,+5V*%
X40900000Y17325000D02*
X41700000Y18125000D01*
X40700000Y17325000D02*
X40900000Y17325000D01*
D22*
%TO.N,GND1*%
X40540000Y35560000D02*
X42900000Y33200000D01*
X42900000Y33200000D02*
X42900000Y21600000D01*
X40540000Y46000000D02*
X40540000Y35560000D01*
D20*
%TO.N,GAIN*%
X40400000Y12050000D02*
X41125000Y11325000D01*
X41125000Y11325000D02*
X48325000Y11325000D01*
X40400000Y12600000D02*
X40400000Y12050000D01*
X48325000Y11325000D02*
X48925000Y11925000D01*
%TO.N,Rx Audio*%
X32900000Y36200000D02*
X32900000Y37000000D01*
X36000000Y33100000D02*
X32900000Y36200000D01*
X36000000Y32000000D02*
X36000000Y33100000D01*
%TO.N,COS*%
X29400000Y35500000D02*
X23900000Y30000000D01*
X30100000Y36200000D02*
X29400000Y35500000D01*
D23*
%TO.N,LOR*%
X22225000Y36925000D02*
X18000000Y36925000D01*
X23750000Y35400000D02*
X22225000Y36925000D01*
%TD*%
%TA.AperFunction,Conductor*%
%TO.N,GND1*%
G36*
X45985648Y21985648D02*
G01*
X46000000Y21951000D01*
X46000000Y19000000D01*
X48000000Y17000000D01*
X50951000Y17000000D01*
X50985648Y16985648D01*
X51000000Y16951000D01*
X51000000Y12022453D01*
X50982994Y11985340D01*
X48113789Y9511887D01*
X48081795Y9500000D01*
X38349000Y9500000D01*
X38314352Y9514352D01*
X38300000Y9549000D01*
X38300000Y12600000D01*
X39999570Y12600000D01*
X40019168Y12476260D01*
X40076045Y12364633D01*
X40164633Y12276045D01*
X40171155Y12272722D01*
X40172746Y12271911D01*
X40197102Y12243393D01*
X40199500Y12228252D01*
X40199500Y12092552D01*
X40198039Y12083978D01*
X40198119Y12083969D01*
X40197494Y12078488D01*
X40195666Y12073281D01*
X40196276Y12067798D01*
X40196276Y12067796D01*
X40199199Y12041533D01*
X40199500Y12036114D01*
X40199500Y12027397D01*
X40200111Y12024720D01*
X40200111Y12024718D01*
X40201366Y12019217D01*
X40202290Y12013755D01*
X40205783Y11982367D01*
X40208711Y11977690D01*
X40210526Y11972478D01*
X40210510Y11972472D01*
X40211052Y11971160D01*
X40211067Y11971167D01*
X40213461Y11966192D01*
X40214688Y11960815D01*
X40234374Y11936111D01*
X40237567Y11931600D01*
X40242116Y11924334D01*
X40248247Y11918203D01*
X40251920Y11914092D01*
X40271695Y11889276D01*
X40276669Y11886877D01*
X40280977Y11883438D01*
X40280953Y11883409D01*
X40288155Y11878295D01*
X40953136Y11213314D01*
X40958166Y11206216D01*
X40958230Y11206267D01*
X40961663Y11201951D01*
X40964052Y11196976D01*
X40968361Y11193530D01*
X40989007Y11177019D01*
X40993051Y11173399D01*
X40999208Y11167242D01*
X41001535Y11165779D01*
X41001538Y11165777D01*
X41006311Y11162777D01*
X41010838Y11159560D01*
X41035492Y11139844D01*
X41040872Y11138607D01*
X41045836Y11136207D01*
X41045828Y11136191D01*
X41047142Y11135645D01*
X41047148Y11135661D01*
X41052356Y11133837D01*
X41057028Y11130901D01*
X41062512Y11130281D01*
X41088400Y11127354D01*
X41093872Y11126419D01*
X41094103Y11126366D01*
X41102219Y11124500D01*
X41110891Y11124500D01*
X41116396Y11124190D01*
X41147924Y11120626D01*
X41153133Y11122445D01*
X41158617Y11123060D01*
X41158621Y11123023D01*
X41167328Y11124500D01*
X48282448Y11124500D01*
X48291022Y11123039D01*
X48291031Y11123119D01*
X48296512Y11122494D01*
X48301719Y11120666D01*
X48307202Y11121276D01*
X48307204Y11121276D01*
X48333467Y11124199D01*
X48338886Y11124500D01*
X48347603Y11124500D01*
X48350280Y11125111D01*
X48350282Y11125111D01*
X48355783Y11126366D01*
X48361245Y11127290D01*
X48392633Y11130783D01*
X48397310Y11133711D01*
X48402522Y11135526D01*
X48402528Y11135510D01*
X48403840Y11136052D01*
X48403833Y11136067D01*
X48408808Y11138461D01*
X48414185Y11139688D01*
X48438889Y11159374D01*
X48443400Y11162567D01*
X48450666Y11167116D01*
X48456797Y11173247D01*
X48460908Y11176920D01*
X48481407Y11193255D01*
X48485724Y11196695D01*
X48488123Y11201669D01*
X48491562Y11205977D01*
X48491591Y11205953D01*
X48496705Y11213155D01*
X48806446Y11522896D01*
X48841094Y11537248D01*
X48848759Y11536645D01*
X48921193Y11525173D01*
X48925000Y11524570D01*
X48928807Y11525173D01*
X49044934Y11543565D01*
X49044935Y11543565D01*
X49048740Y11544168D01*
X49104553Y11572606D01*
X49156933Y11599295D01*
X49156934Y11599296D01*
X49160367Y11601045D01*
X49248955Y11689633D01*
X49305832Y11801260D01*
X49306654Y11806446D01*
X49324827Y11921193D01*
X49325430Y11925000D01*
X49310508Y12019217D01*
X49306435Y12044934D01*
X49306435Y12044935D01*
X49305832Y12048740D01*
X49277393Y12104554D01*
X49250705Y12156933D01*
X49250704Y12156934D01*
X49248955Y12160367D01*
X49160367Y12248955D01*
X49156934Y12250704D01*
X49156933Y12250705D01*
X49101850Y12278771D01*
X49048740Y12305832D01*
X49044935Y12306435D01*
X49044934Y12306435D01*
X48928807Y12324827D01*
X48925000Y12325430D01*
X48921193Y12324827D01*
X48805066Y12306435D01*
X48805065Y12306435D01*
X48801260Y12305832D01*
X48748150Y12278771D01*
X48693067Y12250705D01*
X48693066Y12250704D01*
X48689633Y12248955D01*
X48601045Y12160367D01*
X48599296Y12156934D01*
X48599295Y12156933D01*
X48572607Y12104554D01*
X48544168Y12048740D01*
X48543565Y12044935D01*
X48543565Y12044934D01*
X48539492Y12019217D01*
X48524570Y11925000D01*
X48525173Y11921193D01*
X48536645Y11848759D01*
X48527890Y11812292D01*
X48522896Y11806446D01*
X48256302Y11539852D01*
X48221654Y11525500D01*
X41228346Y11525500D01*
X41193698Y11539852D01*
X40614852Y12118698D01*
X40600500Y12153346D01*
X40600500Y12228252D01*
X40614852Y12262900D01*
X40627254Y12271911D01*
X40628845Y12272722D01*
X40635367Y12276045D01*
X40723955Y12364633D01*
X40780832Y12476260D01*
X40800430Y12600000D01*
X40780832Y12723740D01*
X40723955Y12835367D01*
X40635367Y12923955D01*
X40631934Y12925704D01*
X40631933Y12925705D01*
X40579554Y12952393D01*
X40523740Y12980832D01*
X40519935Y12981435D01*
X40519934Y12981435D01*
X40403807Y12999827D01*
X40400000Y13000430D01*
X40396193Y12999827D01*
X40280066Y12981435D01*
X40280065Y12981435D01*
X40276260Y12980832D01*
X40220446Y12952393D01*
X40168067Y12925705D01*
X40168066Y12925704D01*
X40164633Y12923955D01*
X40076045Y12835367D01*
X40019168Y12723740D01*
X39999570Y12600000D01*
X38300000Y12600000D01*
X38300000Y17360745D01*
X40245815Y17360745D01*
X40255383Y17225616D01*
X40304261Y17099274D01*
X40388128Y16992890D01*
X40391142Y16990807D01*
X40391143Y16990806D01*
X40490814Y16921920D01*
X40499569Y16915869D01*
X40503060Y16914765D01*
X40626070Y16875861D01*
X40626072Y16875861D01*
X40628730Y16875020D01*
X40631510Y16874801D01*
X40631511Y16874801D01*
X40632797Y16874700D01*
X40635337Y16874500D01*
X40870327Y16874500D01*
X40876085Y16874160D01*
X40914310Y16869636D01*
X40973253Y16880401D01*
X40974708Y16880642D01*
X41033962Y16889551D01*
X41037264Y16891137D01*
X41040574Y16892155D01*
X41043966Y16893316D01*
X41047573Y16893975D01*
X41100701Y16921573D01*
X41102051Y16922247D01*
X41122383Y16932010D01*
X41152777Y16946605D01*
X41152779Y16946606D01*
X41156079Y16948191D01*
X41158768Y16950677D01*
X41161798Y16952736D01*
X41161994Y16952447D01*
X41163187Y16953286D01*
X41162994Y16953573D01*
X41165312Y16955135D01*
X41167788Y16956421D01*
X41169910Y16958233D01*
X41172105Y16960107D01*
X41172113Y16960115D01*
X41172828Y16960725D01*
X41211136Y16999033D01*
X41212523Y17000367D01*
X41252865Y17037658D01*
X41252866Y17037660D01*
X41255556Y17040146D01*
X41257395Y17043313D01*
X41259687Y17046173D01*
X41259724Y17046143D01*
X41264657Y17052554D01*
X42042487Y17830384D01*
X42102634Y17911817D01*
X42147520Y18039631D01*
X42152838Y18174994D01*
X42118119Y18305937D01*
X42046433Y18420882D01*
X41944117Y18509667D01*
X41820217Y18564442D01*
X41816580Y18564872D01*
X41816578Y18564873D01*
X41752954Y18572403D01*
X41685690Y18580364D01*
X41552427Y18556026D01*
X41549176Y18554338D01*
X41549175Y18554337D01*
X41489947Y18523570D01*
X41432212Y18493580D01*
X41427172Y18489275D01*
X40727749Y17789852D01*
X40693101Y17775500D01*
X40666150Y17775500D01*
X40615506Y17767886D01*
X40569661Y17760994D01*
X40569659Y17760993D01*
X40566038Y17760449D01*
X40562735Y17758863D01*
X40447223Y17703395D01*
X40447221Y17703394D01*
X40443921Y17701809D01*
X40441233Y17699325D01*
X40441231Y17699323D01*
X40394182Y17655831D01*
X40344444Y17609854D01*
X40276404Y17492713D01*
X40245815Y17360745D01*
X38300000Y17360745D01*
X38300000Y21951000D01*
X38314352Y21985648D01*
X38349000Y22000000D01*
X45951000Y22000000D01*
X45985648Y21985648D01*
G37*
%TD.AperFunction*%
%TD*%
%TA.AperFunction,Conductor*%
%TO.N,GND*%
G36*
X25346731Y49900876D02*
G01*
X50073849Y49900000D01*
X50087448Y49897613D01*
X50089200Y49897555D01*
X50096497Y49894912D01*
X50103953Y49897063D01*
X50107735Y49896937D01*
X50119294Y49898054D01*
X50195429Y49891319D01*
X50411245Y49872227D01*
X50416568Y49871460D01*
X50531544Y49848387D01*
X50723567Y49809852D01*
X50728766Y49808508D01*
X51027162Y49713624D01*
X51032190Y49711716D01*
X51318389Y49584698D01*
X51323164Y49582257D01*
X51507088Y49475108D01*
X51593719Y49424639D01*
X51598211Y49421681D01*
X51849862Y49235358D01*
X51854000Y49231927D01*
X52083716Y49019145D01*
X52087445Y49015289D01*
X52208618Y48875400D01*
X52292455Y48778613D01*
X52295748Y48774360D01*
X52473577Y48516652D01*
X52476384Y48512064D01*
X52624898Y48236414D01*
X52627186Y48231547D01*
X52744597Y47941275D01*
X52746337Y47936186D01*
X52831227Y47634801D01*
X52832399Y47629551D01*
X52883745Y47320673D01*
X52884334Y47315327D01*
X52900419Y47022678D01*
X52898918Y47011163D01*
X52898918Y47007381D01*
X52896520Y47000000D01*
X52898918Y46992620D01*
X52899267Y46991546D01*
X52901666Y46976402D01*
X52900893Y26528771D01*
X52900000Y2926151D01*
X52897613Y2912552D01*
X52897555Y2910800D01*
X52894912Y2903503D01*
X52897063Y2896047D01*
X52896937Y2892265D01*
X52898054Y2880705D01*
X52872227Y2588755D01*
X52871460Y2583432D01*
X52809853Y2276437D01*
X52808508Y2271234D01*
X52713624Y1972838D01*
X52711716Y1967810D01*
X52610927Y1740709D01*
X52584702Y1681618D01*
X52582254Y1676829D01*
X52424639Y1406281D01*
X52421681Y1401789D01*
X52237958Y1153649D01*
X52235358Y1150138D01*
X52231927Y1146000D01*
X52019145Y916284D01*
X52015289Y912555D01*
X51848493Y768075D01*
X51778613Y707545D01*
X51774360Y704252D01*
X51516652Y526423D01*
X51512064Y523616D01*
X51236414Y375102D01*
X51231547Y372814D01*
X50941275Y255403D01*
X50936186Y253663D01*
X50785494Y211218D01*
X50634795Y168772D01*
X50629557Y167602D01*
X50320673Y116255D01*
X50315327Y115666D01*
X50022678Y99581D01*
X50011163Y101082D01*
X50007381Y101082D01*
X50000000Y103480D01*
X49992620Y101082D01*
X49991546Y100733D01*
X49976402Y98334D01*
X27653268Y99124D01*
X2926151Y100000D01*
X2912552Y102387D01*
X2910800Y102445D01*
X2903503Y105088D01*
X2896047Y102937D01*
X2892265Y103063D01*
X2880706Y101946D01*
X2804571Y108681D01*
X2588755Y127773D01*
X2583432Y128540D01*
X2379663Y169432D01*
X2276433Y190148D01*
X2271234Y191492D01*
X1972837Y286376D01*
X1967809Y288285D01*
X1777345Y372814D01*
X1681611Y415302D01*
X1676836Y417743D01*
X1406281Y575361D01*
X1401789Y578319D01*
X1150138Y764642D01*
X1145998Y768075D01*
X990025Y912550D01*
X916284Y980855D01*
X912555Y984711D01*
X707545Y1221387D01*
X704252Y1225640D01*
X526423Y1483348D01*
X523616Y1487936D01*
X375102Y1763586D01*
X372814Y1768453D01*
X255403Y2058725D01*
X253663Y2063814D01*
X168773Y2365199D01*
X167601Y2370449D01*
X116255Y2679327D01*
X115666Y2684673D01*
X100648Y2957905D01*
X1145028Y2957905D01*
X1170534Y2690569D01*
X1170955Y2688848D01*
X1170956Y2688843D01*
X1214195Y2512140D01*
X1234364Y2429715D01*
X1335182Y2180808D01*
X1336078Y2179278D01*
X1456954Y1972838D01*
X1470875Y1949062D01*
X1638601Y1739331D01*
X1834846Y1556009D01*
X1836293Y1555005D01*
X1836297Y1555002D01*
X1932972Y1487936D01*
X2055499Y1402936D01*
X2295938Y1283320D01*
X2297620Y1282768D01*
X2297624Y1282767D01*
X2549444Y1200216D01*
X2549449Y1200215D01*
X2551126Y1199665D01*
X2552864Y1199363D01*
X2552869Y1199362D01*
X2754420Y1164367D01*
X2815717Y1153724D01*
X2817212Y1153650D01*
X2817217Y1153649D01*
X2857852Y1151626D01*
X2900567Y1149500D01*
X3068223Y1149500D01*
X3069087Y1149563D01*
X3069096Y1149563D01*
X3266075Y1163855D01*
X3266082Y1163856D01*
X3267846Y1163984D01*
X3269581Y1164367D01*
X3528347Y1221497D01*
X3528352Y1221498D01*
X3530080Y1221880D01*
X3781211Y1317025D01*
X3908534Y1387747D01*
X4014421Y1446562D01*
X4014424Y1446564D01*
X4015976Y1447426D01*
X4229458Y1610350D01*
X4230697Y1611618D01*
X4230701Y1611621D01*
X4415942Y1801114D01*
X4415945Y1801117D01*
X4417185Y1802386D01*
X4575225Y2019509D01*
X4700265Y2257172D01*
X4705230Y2271230D01*
X4789097Y2508723D01*
X4789098Y2508725D01*
X4789688Y2510397D01*
X4790032Y2512140D01*
X4841277Y2772135D01*
X4841278Y2772142D01*
X4841620Y2773878D01*
X4852522Y2992881D01*
X4854884Y3040321D01*
X4854884Y3040325D01*
X4854972Y3042095D01*
X4829466Y3309431D01*
X4821096Y3343639D01*
X4772302Y3543044D01*
X4765636Y3570285D01*
X4753924Y3599200D01*
X8729500Y3599200D01*
X8744880Y3447784D01*
X8805662Y3253828D01*
X8904203Y3076056D01*
X9036477Y2921729D01*
X9038438Y2920208D01*
X9038440Y2920206D01*
X9074462Y2892265D01*
X9197081Y2797152D01*
X9379455Y2707413D01*
X9576148Y2656178D01*
X9578620Y2656048D01*
X9578623Y2656048D01*
X9669644Y2651278D01*
X9779126Y2645541D01*
X9980097Y2675935D01*
X9997177Y2682219D01*
X10068625Y2708507D01*
X10170852Y2746119D01*
X10172960Y2747426D01*
X10172964Y2747428D01*
X10341496Y2851922D01*
X10341497Y2851922D01*
X10343599Y2853226D01*
X10491280Y2992881D01*
X10526978Y3043863D01*
X10606438Y3157343D01*
X10606440Y3157347D01*
X10607863Y3159379D01*
X10688586Y3345919D01*
X10689092Y3348343D01*
X10689094Y3348348D01*
X10729767Y3543044D01*
X10730151Y3544880D01*
X10730500Y3551539D01*
X10730500Y3599200D01*
X11269500Y3599200D01*
X11284880Y3447784D01*
X11345662Y3253828D01*
X11444203Y3076056D01*
X11576477Y2921729D01*
X11578438Y2920208D01*
X11578440Y2920206D01*
X11614462Y2892265D01*
X11737081Y2797152D01*
X11919455Y2707413D01*
X12116148Y2656178D01*
X12118620Y2656048D01*
X12118623Y2656048D01*
X12209644Y2651278D01*
X12319126Y2645541D01*
X12520097Y2675935D01*
X12537177Y2682219D01*
X12608625Y2708507D01*
X12710852Y2746119D01*
X12712960Y2747426D01*
X12712964Y2747428D01*
X12881496Y2851922D01*
X12881497Y2851922D01*
X12883599Y2853226D01*
X13031280Y2992881D01*
X13066978Y3043863D01*
X13146438Y3157343D01*
X13146440Y3157347D01*
X13147863Y3159379D01*
X13228586Y3345919D01*
X13229092Y3348343D01*
X13229094Y3348348D01*
X13269767Y3543044D01*
X13270151Y3544880D01*
X13270500Y3551539D01*
X13270500Y3599200D01*
X37359500Y3599200D01*
X37374880Y3447784D01*
X37435662Y3253828D01*
X37534203Y3076056D01*
X37666477Y2921729D01*
X37668438Y2920208D01*
X37668440Y2920206D01*
X37704462Y2892265D01*
X37827081Y2797152D01*
X38009455Y2707413D01*
X38206148Y2656178D01*
X38208620Y2656048D01*
X38208623Y2656048D01*
X38299644Y2651278D01*
X38409126Y2645541D01*
X38610097Y2675935D01*
X38627177Y2682219D01*
X38698625Y2708507D01*
X38800852Y2746119D01*
X38802960Y2747426D01*
X38802964Y2747428D01*
X38971496Y2851922D01*
X38971497Y2851922D01*
X38973599Y2853226D01*
X39121280Y2992881D01*
X39156978Y3043863D01*
X39236438Y3157343D01*
X39236440Y3157347D01*
X39237863Y3159379D01*
X39318586Y3345919D01*
X39319092Y3348343D01*
X39319094Y3348348D01*
X39359767Y3543044D01*
X39360151Y3544880D01*
X39360500Y3551539D01*
X39360500Y3599200D01*
X39899500Y3599200D01*
X39914880Y3447784D01*
X39975662Y3253828D01*
X40074203Y3076056D01*
X40206477Y2921729D01*
X40208438Y2920208D01*
X40208440Y2920206D01*
X40244462Y2892265D01*
X40367081Y2797152D01*
X40549455Y2707413D01*
X40746148Y2656178D01*
X40748620Y2656048D01*
X40748623Y2656048D01*
X40839644Y2651278D01*
X40949126Y2645541D01*
X41150097Y2675935D01*
X41167177Y2682219D01*
X41238625Y2708507D01*
X41340852Y2746119D01*
X41342960Y2747426D01*
X41342964Y2747428D01*
X41511496Y2851922D01*
X41511497Y2851922D01*
X41513599Y2853226D01*
X41661280Y2992881D01*
X41696978Y3043863D01*
X41776438Y3157343D01*
X41776440Y3157347D01*
X41777863Y3159379D01*
X41858586Y3345919D01*
X41859092Y3348343D01*
X41859094Y3348348D01*
X41899767Y3543044D01*
X41900151Y3544880D01*
X41900500Y3551539D01*
X41900500Y3599200D01*
X42439500Y3599200D01*
X42454880Y3447784D01*
X42515662Y3253828D01*
X42614203Y3076056D01*
X42746477Y2921729D01*
X42748438Y2920208D01*
X42748440Y2920206D01*
X42784462Y2892265D01*
X42907081Y2797152D01*
X43089455Y2707413D01*
X43286148Y2656178D01*
X43288620Y2656048D01*
X43288623Y2656048D01*
X43379644Y2651278D01*
X43489126Y2645541D01*
X43690097Y2675935D01*
X43707177Y2682219D01*
X43778625Y2708507D01*
X43880852Y2746119D01*
X43882960Y2747426D01*
X43882964Y2747428D01*
X44051496Y2851922D01*
X44051497Y2851922D01*
X44053599Y2853226D01*
X44164294Y2957905D01*
X48145028Y2957905D01*
X48170534Y2690569D01*
X48170955Y2688848D01*
X48170956Y2688843D01*
X48214195Y2512140D01*
X48234364Y2429715D01*
X48335182Y2180808D01*
X48336078Y2179278D01*
X48456954Y1972838D01*
X48470875Y1949062D01*
X48638601Y1739331D01*
X48834846Y1556009D01*
X48836293Y1555005D01*
X48836297Y1555002D01*
X48932972Y1487936D01*
X49055499Y1402936D01*
X49295938Y1283320D01*
X49297620Y1282768D01*
X49297624Y1282767D01*
X49549444Y1200216D01*
X49549449Y1200215D01*
X49551126Y1199665D01*
X49552864Y1199363D01*
X49552869Y1199362D01*
X49754420Y1164367D01*
X49815717Y1153724D01*
X49817212Y1153650D01*
X49817217Y1153649D01*
X49857852Y1151626D01*
X49900567Y1149500D01*
X50068223Y1149500D01*
X50069087Y1149563D01*
X50069096Y1149563D01*
X50266075Y1163855D01*
X50266082Y1163856D01*
X50267846Y1163984D01*
X50269581Y1164367D01*
X50528347Y1221497D01*
X50528352Y1221498D01*
X50530080Y1221880D01*
X50781211Y1317025D01*
X50908534Y1387747D01*
X51014421Y1446562D01*
X51014424Y1446564D01*
X51015976Y1447426D01*
X51229458Y1610350D01*
X51230697Y1611618D01*
X51230701Y1611621D01*
X51415942Y1801114D01*
X51415945Y1801117D01*
X51417185Y1802386D01*
X51575225Y2019509D01*
X51700265Y2257172D01*
X51705230Y2271230D01*
X51789097Y2508723D01*
X51789098Y2508725D01*
X51789688Y2510397D01*
X51790032Y2512140D01*
X51841277Y2772135D01*
X51841278Y2772142D01*
X51841620Y2773878D01*
X51852522Y2992881D01*
X51854884Y3040321D01*
X51854884Y3040325D01*
X51854972Y3042095D01*
X51829466Y3309431D01*
X51821096Y3343639D01*
X51772302Y3543044D01*
X51765636Y3570285D01*
X51664818Y3819192D01*
X51571296Y3978915D01*
X51530021Y4049408D01*
X51530020Y4049409D01*
X51529125Y4050938D01*
X51361399Y4260669D01*
X51165154Y4443991D01*
X51163707Y4444995D01*
X51163703Y4444998D01*
X50945961Y4596051D01*
X50944501Y4597064D01*
X50704062Y4716680D01*
X50702380Y4717232D01*
X50702376Y4717233D01*
X50450556Y4799784D01*
X50450551Y4799785D01*
X50448874Y4800335D01*
X50447136Y4800637D01*
X50447131Y4800638D01*
X50185757Y4846020D01*
X50185758Y4846020D01*
X50184283Y4846276D01*
X50182788Y4846350D01*
X50182783Y4846351D01*
X50142148Y4848374D01*
X50099433Y4850500D01*
X49931777Y4850500D01*
X49930913Y4850437D01*
X49930904Y4850437D01*
X49733925Y4836145D01*
X49733918Y4836144D01*
X49732154Y4836016D01*
X49730420Y4835633D01*
X49730419Y4835633D01*
X49471653Y4778503D01*
X49471648Y4778502D01*
X49469920Y4778120D01*
X49218789Y4682975D01*
X49217247Y4682118D01*
X49217246Y4682118D01*
X49064121Y4597064D01*
X48984024Y4552574D01*
X48982608Y4551493D01*
X48982606Y4551492D01*
X48848421Y4449085D01*
X48770542Y4389650D01*
X48769303Y4388382D01*
X48769299Y4388379D01*
X48645636Y4261877D01*
X48582815Y4197614D01*
X48424775Y3980491D01*
X48299735Y3742828D01*
X48299145Y3741157D01*
X48299144Y3741155D01*
X48230494Y3546754D01*
X48210312Y3489603D01*
X48209970Y3487866D01*
X48209968Y3487860D01*
X48158723Y3227865D01*
X48158722Y3227858D01*
X48158380Y3226122D01*
X48154956Y3157343D01*
X48145995Y2977322D01*
X48145028Y2957905D01*
X44164294Y2957905D01*
X44201280Y2992881D01*
X44236978Y3043863D01*
X44316438Y3157343D01*
X44316440Y3157347D01*
X44317863Y3159379D01*
X44398586Y3345919D01*
X44399092Y3348343D01*
X44399094Y3348348D01*
X44439767Y3543044D01*
X44440151Y3544880D01*
X44440500Y3551539D01*
X44440500Y4400800D01*
X44425120Y4552216D01*
X44364338Y4746172D01*
X44265797Y4923944D01*
X44133523Y5078271D01*
X43972919Y5202848D01*
X43790545Y5292587D01*
X43593852Y5343822D01*
X43591380Y5343952D01*
X43591377Y5343952D01*
X43500356Y5348722D01*
X43390874Y5354459D01*
X43189903Y5324065D01*
X42999148Y5253881D01*
X42997040Y5252574D01*
X42997036Y5252572D01*
X42828504Y5148078D01*
X42826401Y5146774D01*
X42678720Y5007119D01*
X42677295Y5005084D01*
X42563562Y4842657D01*
X42563560Y4842653D01*
X42562137Y4840621D01*
X42481414Y4654081D01*
X42480908Y4651657D01*
X42480906Y4651652D01*
X42458201Y4542965D01*
X42439849Y4455120D01*
X42439500Y4448461D01*
X42439500Y3599200D01*
X41900500Y3599200D01*
X41900500Y4400800D01*
X41885120Y4552216D01*
X41824338Y4746172D01*
X41725797Y4923944D01*
X41593523Y5078271D01*
X41432919Y5202848D01*
X41250545Y5292587D01*
X41053852Y5343822D01*
X41051380Y5343952D01*
X41051377Y5343952D01*
X40960356Y5348722D01*
X40850874Y5354459D01*
X40649903Y5324065D01*
X40459148Y5253881D01*
X40457040Y5252574D01*
X40457036Y5252572D01*
X40288504Y5148078D01*
X40286401Y5146774D01*
X40138720Y5007119D01*
X40137295Y5005084D01*
X40023562Y4842657D01*
X40023560Y4842653D01*
X40022137Y4840621D01*
X39941414Y4654081D01*
X39940908Y4651657D01*
X39940906Y4651652D01*
X39918201Y4542965D01*
X39899849Y4455120D01*
X39899500Y4448461D01*
X39899500Y3599200D01*
X39360500Y3599200D01*
X39360500Y4400800D01*
X39345120Y4552216D01*
X39284338Y4746172D01*
X39185797Y4923944D01*
X39053523Y5078271D01*
X38892919Y5202848D01*
X38710545Y5292587D01*
X38513852Y5343822D01*
X38511380Y5343952D01*
X38511377Y5343952D01*
X38420356Y5348722D01*
X38310874Y5354459D01*
X38109903Y5324065D01*
X37919148Y5253881D01*
X37917040Y5252574D01*
X37917036Y5252572D01*
X37748504Y5148078D01*
X37746401Y5146774D01*
X37598720Y5007119D01*
X37597295Y5005084D01*
X37483562Y4842657D01*
X37483560Y4842653D01*
X37482137Y4840621D01*
X37401414Y4654081D01*
X37400908Y4651657D01*
X37400906Y4651652D01*
X37378201Y4542965D01*
X37359849Y4455120D01*
X37359500Y4448461D01*
X37359500Y3599200D01*
X13270500Y3599200D01*
X13270500Y4400800D01*
X13255120Y4552216D01*
X13194338Y4746172D01*
X13095797Y4923944D01*
X12963523Y5078271D01*
X12802919Y5202848D01*
X12620545Y5292587D01*
X12423852Y5343822D01*
X12421380Y5343952D01*
X12421377Y5343952D01*
X12330356Y5348722D01*
X12220874Y5354459D01*
X12019903Y5324065D01*
X11829148Y5253881D01*
X11827040Y5252574D01*
X11827036Y5252572D01*
X11658504Y5148078D01*
X11656401Y5146774D01*
X11508720Y5007119D01*
X11507295Y5005084D01*
X11393562Y4842657D01*
X11393560Y4842653D01*
X11392137Y4840621D01*
X11311414Y4654081D01*
X11310908Y4651657D01*
X11310906Y4651652D01*
X11288201Y4542965D01*
X11269849Y4455120D01*
X11269500Y4448461D01*
X11269500Y3599200D01*
X10730500Y3599200D01*
X10730500Y4400800D01*
X10715120Y4552216D01*
X10654338Y4746172D01*
X10555797Y4923944D01*
X10423523Y5078271D01*
X10262919Y5202848D01*
X10080545Y5292587D01*
X9883852Y5343822D01*
X9881380Y5343952D01*
X9881377Y5343952D01*
X9790356Y5348722D01*
X9680874Y5354459D01*
X9479903Y5324065D01*
X9289148Y5253881D01*
X9287040Y5252574D01*
X9287036Y5252572D01*
X9118504Y5148078D01*
X9116401Y5146774D01*
X8968720Y5007119D01*
X8967295Y5005084D01*
X8853562Y4842657D01*
X8853560Y4842653D01*
X8852137Y4840621D01*
X8771414Y4654081D01*
X8770908Y4651657D01*
X8770906Y4651652D01*
X8748201Y4542965D01*
X8729849Y4455120D01*
X8729500Y4448461D01*
X8729500Y3599200D01*
X4753924Y3599200D01*
X4664818Y3819192D01*
X4571296Y3978915D01*
X4530021Y4049408D01*
X4530020Y4049409D01*
X4529125Y4050938D01*
X4361399Y4260669D01*
X4165154Y4443991D01*
X4163707Y4444995D01*
X4163703Y4444998D01*
X3945961Y4596051D01*
X3944501Y4597064D01*
X3704062Y4716680D01*
X3702380Y4717232D01*
X3702376Y4717233D01*
X3450556Y4799784D01*
X3450551Y4799785D01*
X3448874Y4800335D01*
X3447136Y4800637D01*
X3447131Y4800638D01*
X3185757Y4846020D01*
X3185758Y4846020D01*
X3184283Y4846276D01*
X3182788Y4846350D01*
X3182783Y4846351D01*
X3142148Y4848374D01*
X3099433Y4850500D01*
X2931777Y4850500D01*
X2930913Y4850437D01*
X2930904Y4850437D01*
X2733925Y4836145D01*
X2733918Y4836144D01*
X2732154Y4836016D01*
X2730420Y4835633D01*
X2730419Y4835633D01*
X2471653Y4778503D01*
X2471648Y4778502D01*
X2469920Y4778120D01*
X2218789Y4682975D01*
X2217247Y4682118D01*
X2217246Y4682118D01*
X2064121Y4597064D01*
X1984024Y4552574D01*
X1982608Y4551493D01*
X1982606Y4551492D01*
X1848421Y4449085D01*
X1770542Y4389650D01*
X1769303Y4388382D01*
X1769299Y4388379D01*
X1645636Y4261877D01*
X1582815Y4197614D01*
X1424775Y3980491D01*
X1299735Y3742828D01*
X1299145Y3741157D01*
X1299144Y3741155D01*
X1230494Y3546754D01*
X1210312Y3489603D01*
X1209970Y3487866D01*
X1209968Y3487860D01*
X1158723Y3227865D01*
X1158722Y3227858D01*
X1158380Y3226122D01*
X1154956Y3157343D01*
X1145995Y2977322D01*
X1145028Y2957905D01*
X100648Y2957905D01*
X99581Y2977322D01*
X101082Y2988837D01*
X101082Y2992619D01*
X103480Y3000000D01*
X100733Y3008454D01*
X98334Y3023600D01*
X98340Y3161658D01*
X98581Y9549000D01*
X38200000Y9549000D01*
X38207612Y9510731D01*
X38221964Y9476083D01*
X38229088Y9462103D01*
X38276083Y9421964D01*
X38279647Y9420488D01*
X38279648Y9420487D01*
X38282608Y9419261D01*
X38310731Y9407612D01*
X38313094Y9407142D01*
X38346646Y9400468D01*
X38346648Y9400468D01*
X38349000Y9400000D01*
X48081795Y9400000D01*
X48096965Y9402727D01*
X48114478Y9405875D01*
X48114482Y9405876D01*
X48116623Y9406261D01*
X48118663Y9407019D01*
X48118667Y9407020D01*
X48146566Y9417386D01*
X48148617Y9418148D01*
X48155077Y9421964D01*
X48177207Y9435037D01*
X48177213Y9435041D01*
X48179083Y9436146D01*
X49804716Y10837554D01*
X51046291Y11907877D01*
X51046293Y11907879D01*
X51048288Y11909599D01*
X51073904Y11943683D01*
X51075000Y11946075D01*
X51075003Y11946080D01*
X51089812Y11978399D01*
X51089813Y11978402D01*
X51090910Y11980796D01*
X51100000Y12022453D01*
X51100000Y16951000D01*
X51092388Y16989269D01*
X51078036Y17023917D01*
X51070912Y17037897D01*
X51023917Y17078036D01*
X51020353Y17079512D01*
X51020352Y17079513D01*
X51009978Y17083810D01*
X50989269Y17092388D01*
X50984337Y17093369D01*
X50953354Y17099532D01*
X50953352Y17099532D01*
X50951000Y17100000D01*
X48061718Y17100000D01*
X48027070Y17114352D01*
X46114352Y19027070D01*
X46100000Y19061718D01*
X46100000Y20510874D01*
X47645541Y20510874D01*
X47675935Y20309903D01*
X47746119Y20119148D01*
X47747426Y20117040D01*
X47747428Y20117036D01*
X47804419Y20025119D01*
X47853226Y19946401D01*
X47992881Y19798720D01*
X47994916Y19797295D01*
X48157343Y19683562D01*
X48157347Y19683560D01*
X48159379Y19682137D01*
X48345919Y19601414D01*
X48348343Y19600908D01*
X48348348Y19600906D01*
X48457035Y19578201D01*
X48544880Y19559849D01*
X48551539Y19559500D01*
X49400800Y19559500D01*
X49402029Y19559625D01*
X49402032Y19559625D01*
X49449487Y19564445D01*
X49552216Y19574880D01*
X49746172Y19635662D01*
X49923944Y19734203D01*
X50078271Y19866477D01*
X50202848Y20027081D01*
X50292587Y20209455D01*
X50343822Y20406148D01*
X50354459Y20609126D01*
X50324065Y20810097D01*
X50253881Y21000852D01*
X50196798Y21092919D01*
X50148078Y21171496D01*
X50148078Y21171497D01*
X50146774Y21173599D01*
X50007119Y21321280D01*
X49917286Y21384182D01*
X49842657Y21436438D01*
X49842653Y21436440D01*
X49840621Y21437863D01*
X49654081Y21518586D01*
X49651657Y21519092D01*
X49651652Y21519094D01*
X49530626Y21544377D01*
X49455120Y21560151D01*
X49448461Y21560500D01*
X48599200Y21560500D01*
X48597971Y21560375D01*
X48597968Y21560375D01*
X48550513Y21555555D01*
X48447784Y21545120D01*
X48253828Y21484338D01*
X48076056Y21385797D01*
X47921729Y21253523D01*
X47797152Y21092919D01*
X47707413Y20910545D01*
X47656178Y20713852D01*
X47645541Y20510874D01*
X46100000Y20510874D01*
X46100000Y21951000D01*
X46092388Y21989269D01*
X46078036Y22023917D01*
X46070912Y22037897D01*
X46023917Y22078036D01*
X46020353Y22079512D01*
X46020352Y22079513D01*
X46009978Y22083810D01*
X45989269Y22092388D01*
X45984337Y22093369D01*
X45953354Y22099532D01*
X45953352Y22099532D01*
X45951000Y22100000D01*
X43449500Y22100000D01*
X43414852Y22114352D01*
X43400500Y22149000D01*
X43400500Y23050874D01*
X47645541Y23050874D01*
X47675935Y22849903D01*
X47746119Y22659148D01*
X47747426Y22657040D01*
X47747428Y22657036D01*
X47804419Y22565119D01*
X47853226Y22486401D01*
X47992881Y22338720D01*
X47994916Y22337295D01*
X48157343Y22223562D01*
X48157347Y22223560D01*
X48159379Y22222137D01*
X48345919Y22141414D01*
X48348343Y22140908D01*
X48348348Y22140906D01*
X48457035Y22118201D01*
X48544880Y22099849D01*
X48551539Y22099500D01*
X49400800Y22099500D01*
X49402029Y22099625D01*
X49402032Y22099625D01*
X49449487Y22104445D01*
X49552216Y22114880D01*
X49746172Y22175662D01*
X49923944Y22274203D01*
X50078271Y22406477D01*
X50202848Y22567081D01*
X50292587Y22749455D01*
X50343822Y22946148D01*
X50354459Y23149126D01*
X50324065Y23350097D01*
X50253881Y23540852D01*
X50196798Y23632919D01*
X50148078Y23711496D01*
X50148078Y23711497D01*
X50146774Y23713599D01*
X50007119Y23861280D01*
X49917286Y23924182D01*
X49842657Y23976438D01*
X49842653Y23976440D01*
X49840621Y23977863D01*
X49654081Y24058586D01*
X49651657Y24059092D01*
X49651652Y24059094D01*
X49530626Y24084377D01*
X49455120Y24100151D01*
X49448461Y24100500D01*
X48599200Y24100500D01*
X48597971Y24100375D01*
X48597968Y24100375D01*
X48554090Y24095918D01*
X48447784Y24085120D01*
X48253828Y24024338D01*
X48076056Y23925797D01*
X47921729Y23793523D01*
X47797152Y23632919D01*
X47707413Y23450545D01*
X47656178Y23253852D01*
X47645541Y23050874D01*
X43400500Y23050874D01*
X43400500Y33138420D01*
X43401708Y33149234D01*
X43403249Y33156045D01*
X43404019Y33159447D01*
X43400594Y33214649D01*
X43400500Y33217683D01*
X43400500Y33235940D01*
X43398614Y33249111D01*
X43398213Y33253021D01*
X43395357Y33299056D01*
X43395141Y33302538D01*
X43393957Y33305817D01*
X43393956Y33305823D01*
X43389919Y33317006D01*
X43387503Y33326696D01*
X43385818Y33338462D01*
X43385818Y33338463D01*
X43385323Y33341918D01*
X43364788Y33387083D01*
X43363305Y33390726D01*
X43347647Y33434100D01*
X43347646Y33434102D01*
X43346460Y33437387D01*
X43337391Y33449801D01*
X43332353Y33458423D01*
X43327430Y33469250D01*
X43327427Y33469255D01*
X43325984Y33472428D01*
X43323709Y33475068D01*
X43323708Y33475070D01*
X43293594Y33510018D01*
X43291162Y33513080D01*
X43281478Y33526336D01*
X43268713Y33539101D01*
X43266240Y33541764D01*
X43234680Y33578391D01*
X43232400Y33581037D01*
X43220753Y33588586D01*
X43212761Y33595053D01*
X41054852Y35752962D01*
X41040500Y35787610D01*
X41040500Y36289606D01*
X49370000Y36289606D01*
X49370471Y36284830D01*
X49376602Y36254009D01*
X49380224Y36245264D01*
X49403595Y36210286D01*
X49410286Y36203595D01*
X49445264Y36180224D01*
X49454009Y36176602D01*
X49484830Y36170471D01*
X49489606Y36170000D01*
X49490253Y36170000D01*
X49497145Y36172855D01*
X49500000Y36179747D01*
X51300000Y36179747D01*
X51302855Y36172855D01*
X51309747Y36170000D01*
X51310394Y36170000D01*
X51315170Y36170471D01*
X51345991Y36176602D01*
X51354736Y36180224D01*
X51389714Y36203595D01*
X51396405Y36210286D01*
X51419776Y36245264D01*
X51423398Y36254009D01*
X51429529Y36284830D01*
X51430000Y36289606D01*
X51430000Y36290253D01*
X51427145Y36297145D01*
X51420253Y36300000D01*
X51309747Y36300000D01*
X51302855Y36297145D01*
X51300000Y36290253D01*
X51300000Y36179747D01*
X49500000Y36179747D01*
X49500000Y36290253D01*
X49497145Y36297145D01*
X49490253Y36300000D01*
X49379747Y36300000D01*
X49372855Y36297145D01*
X49370000Y36290253D01*
X49370000Y36289606D01*
X41040500Y36289606D01*
X41040500Y38109747D01*
X49370000Y38109747D01*
X49372855Y38102855D01*
X49379747Y38100000D01*
X49490253Y38100000D01*
X49497145Y38102855D01*
X49500000Y38109747D01*
X51300000Y38109747D01*
X51302855Y38102855D01*
X51309747Y38100000D01*
X51420253Y38100000D01*
X51427145Y38102855D01*
X51430000Y38109747D01*
X51430000Y38110394D01*
X51429529Y38115170D01*
X51423398Y38145991D01*
X51419776Y38154736D01*
X51396405Y38189714D01*
X51389714Y38196405D01*
X51354736Y38219776D01*
X51345991Y38223398D01*
X51315170Y38229529D01*
X51310394Y38230000D01*
X51309747Y38230000D01*
X51302855Y38227145D01*
X51300000Y38220253D01*
X51300000Y38109747D01*
X49500000Y38109747D01*
X49500000Y38220253D01*
X49497145Y38227145D01*
X49490253Y38230000D01*
X49489606Y38230000D01*
X49484830Y38229529D01*
X49454009Y38223398D01*
X49445264Y38219776D01*
X49410286Y38196405D01*
X49403595Y38189714D01*
X49380224Y38154736D01*
X49376602Y38145991D01*
X49370471Y38115170D01*
X49370000Y38110394D01*
X49370000Y38109747D01*
X41040500Y38109747D01*
X41040500Y39754037D01*
X49394757Y39754037D01*
X49394957Y39751655D01*
X49394957Y39751651D01*
X49401444Y39674401D01*
X49411175Y39558517D01*
X49465258Y39369909D01*
X49466352Y39367780D01*
X49466353Y39367778D01*
X49484039Y39333366D01*
X49554944Y39195399D01*
X49556430Y39193524D01*
X49556432Y39193521D01*
X49560605Y39188256D01*
X49676818Y39041631D01*
X49678644Y39040077D01*
X49678645Y39040076D01*
X49728731Y38997450D01*
X49826238Y38914465D01*
X49997513Y38818743D01*
X50019054Y38811744D01*
X50181836Y38758852D01*
X50181840Y38758851D01*
X50184118Y38758111D01*
X50378946Y38734879D01*
X50574576Y38749932D01*
X50763556Y38802697D01*
X50765685Y38803772D01*
X50765689Y38803774D01*
X50848323Y38845516D01*
X50938689Y38891163D01*
X51093303Y39011960D01*
X51117572Y39040076D01*
X51219938Y39158668D01*
X51219942Y39158673D01*
X51221509Y39160489D01*
X51318425Y39331091D01*
X51330798Y39368284D01*
X51379602Y39514996D01*
X51380358Y39517268D01*
X51404949Y39711929D01*
X51405341Y39740000D01*
X51393565Y39860101D01*
X51386428Y39932888D01*
X51386428Y39932890D01*
X51386194Y39935272D01*
X51381354Y39951303D01*
X51330178Y40120809D01*
X51330176Y40120814D01*
X51329484Y40123106D01*
X51237370Y40296347D01*
X51113361Y40448398D01*
X50962180Y40573465D01*
X50789585Y40666787D01*
X50602152Y40724807D01*
X50599775Y40725057D01*
X50599774Y40725057D01*
X50409402Y40745067D01*
X50409397Y40745067D01*
X50407019Y40745317D01*
X50404634Y40745100D01*
X50404629Y40745100D01*
X50309318Y40736425D01*
X50211618Y40727534D01*
X50076918Y40687889D01*
X50025696Y40672814D01*
X50025694Y40672813D01*
X50023393Y40672136D01*
X49849512Y40581233D01*
X49696600Y40458289D01*
X49695057Y40456450D01*
X49572020Y40309820D01*
X49572017Y40309816D01*
X49570480Y40307984D01*
X49475956Y40136046D01*
X49416628Y39949022D01*
X49394757Y39754037D01*
X41040500Y39754037D01*
X41040500Y44755829D01*
X41054852Y44790477D01*
X41063676Y44797472D01*
X41153599Y44853226D01*
X41301280Y44992881D01*
X41302705Y44994916D01*
X41416438Y45157343D01*
X41416440Y45157347D01*
X41417863Y45159379D01*
X41498586Y45345919D01*
X41499092Y45348343D01*
X41499094Y45348348D01*
X41539767Y45543044D01*
X41540151Y45544880D01*
X41540500Y45551539D01*
X41540500Y46400800D01*
X41525120Y46552216D01*
X41464338Y46746172D01*
X41365797Y46923944D01*
X41336689Y46957905D01*
X48145028Y46957905D01*
X48170534Y46690569D01*
X48170955Y46688848D01*
X48170956Y46688843D01*
X48179462Y46654081D01*
X48234364Y46429715D01*
X48335182Y46180808D01*
X48336078Y46179278D01*
X48429627Y46019509D01*
X48470875Y45949062D01*
X48638601Y45739331D01*
X48834846Y45556009D01*
X48836293Y45555005D01*
X48836297Y45555002D01*
X48987285Y45450258D01*
X49055499Y45402936D01*
X49295938Y45283320D01*
X49297620Y45282768D01*
X49297624Y45282767D01*
X49549444Y45200216D01*
X49549449Y45200215D01*
X49551126Y45199665D01*
X49552864Y45199363D01*
X49552869Y45199362D01*
X49754420Y45164367D01*
X49815717Y45153724D01*
X49817212Y45153650D01*
X49817217Y45153649D01*
X49857852Y45151626D01*
X49900567Y45149500D01*
X50068223Y45149500D01*
X50069087Y45149563D01*
X50069096Y45149563D01*
X50266075Y45163855D01*
X50266082Y45163856D01*
X50267846Y45163984D01*
X50269581Y45164367D01*
X50528347Y45221497D01*
X50528352Y45221498D01*
X50530080Y45221880D01*
X50781211Y45317025D01*
X50934452Y45402143D01*
X51014421Y45446562D01*
X51014424Y45446564D01*
X51015976Y45447426D01*
X51146127Y45546754D01*
X51228042Y45609269D01*
X51228045Y45609272D01*
X51229458Y45610350D01*
X51230697Y45611618D01*
X51230701Y45611621D01*
X51415942Y45801114D01*
X51415945Y45801117D01*
X51417185Y45802386D01*
X51575225Y46019509D01*
X51700265Y46257172D01*
X51750549Y46399563D01*
X51789097Y46508723D01*
X51789098Y46508725D01*
X51789688Y46510397D01*
X51798398Y46554587D01*
X51841277Y46772135D01*
X51841278Y46772142D01*
X51841620Y46773878D01*
X51852509Y46992620D01*
X51854884Y47040321D01*
X51854884Y47040325D01*
X51854972Y47042095D01*
X51829466Y47309431D01*
X51828024Y47315327D01*
X51766056Y47568568D01*
X51765636Y47570285D01*
X51664818Y47819192D01*
X51571296Y47978915D01*
X51530021Y48049408D01*
X51530020Y48049409D01*
X51529125Y48050938D01*
X51361399Y48260669D01*
X51165154Y48443991D01*
X51163707Y48444995D01*
X51163703Y48444998D01*
X50949323Y48593719D01*
X50944501Y48597064D01*
X50704062Y48716680D01*
X50702380Y48717232D01*
X50702376Y48717233D01*
X50450556Y48799784D01*
X50450551Y48799785D01*
X50448874Y48800335D01*
X50447136Y48800637D01*
X50447131Y48800638D01*
X50185757Y48846020D01*
X50185758Y48846020D01*
X50184283Y48846276D01*
X50182788Y48846350D01*
X50182783Y48846351D01*
X50142148Y48848374D01*
X50099433Y48850500D01*
X49931777Y48850500D01*
X49930913Y48850437D01*
X49930904Y48850437D01*
X49733925Y48836145D01*
X49733918Y48836144D01*
X49732154Y48836016D01*
X49730420Y48835633D01*
X49730419Y48835633D01*
X49471653Y48778503D01*
X49471648Y48778502D01*
X49469920Y48778120D01*
X49218789Y48682975D01*
X49217247Y48682118D01*
X49217246Y48682118D01*
X49058099Y48593719D01*
X48984024Y48552574D01*
X48770542Y48389650D01*
X48769303Y48388382D01*
X48769299Y48388379D01*
X48584058Y48198886D01*
X48582815Y48197614D01*
X48424775Y47980491D01*
X48299735Y47742828D01*
X48299145Y47741157D01*
X48299144Y47741155D01*
X48293864Y47726203D01*
X48210312Y47489603D01*
X48209970Y47487866D01*
X48209968Y47487860D01*
X48158723Y47227865D01*
X48158722Y47227858D01*
X48158380Y47226122D01*
X48152487Y47107735D01*
X48145949Y46976400D01*
X48145028Y46957905D01*
X41336689Y46957905D01*
X41233523Y47078271D01*
X41196204Y47107219D01*
X41074881Y47201326D01*
X41074882Y47201326D01*
X41072919Y47202848D01*
X40890545Y47292587D01*
X40693852Y47343822D01*
X40691380Y47343952D01*
X40691377Y47343952D01*
X40600356Y47348722D01*
X40490874Y47354459D01*
X40289903Y47324065D01*
X40287569Y47323206D01*
X40287568Y47323206D01*
X40266154Y47315327D01*
X40099148Y47253881D01*
X40097040Y47252574D01*
X40097036Y47252572D01*
X39928504Y47148078D01*
X39926401Y47146774D01*
X39778720Y47007119D01*
X39777295Y47005084D01*
X39663562Y46842657D01*
X39663560Y46842653D01*
X39662137Y46840621D01*
X39581414Y46654081D01*
X39580908Y46651657D01*
X39580906Y46651652D01*
X39558201Y46542965D01*
X39539849Y46455120D01*
X39539500Y46448461D01*
X39539500Y45599200D01*
X39554880Y45447784D01*
X39615662Y45253828D01*
X39714203Y45076056D01*
X39846477Y44921729D01*
X40007081Y44797152D01*
X40009304Y44796058D01*
X40009309Y44796055D01*
X40012131Y44794667D01*
X40036885Y44766494D01*
X40039500Y44750700D01*
X40039500Y35621580D01*
X40038292Y35610767D01*
X40035981Y35600553D01*
X40036197Y35597071D01*
X40039406Y35545351D01*
X40039500Y35542317D01*
X40039500Y35524060D01*
X40039747Y35522336D01*
X40039747Y35522335D01*
X40041386Y35510892D01*
X40041787Y35506983D01*
X40044859Y35457462D01*
X40046043Y35454183D01*
X40046044Y35454177D01*
X40050081Y35442994D01*
X40052497Y35433304D01*
X40054677Y35418082D01*
X40056122Y35414904D01*
X40075212Y35372917D01*
X40076695Y35369274D01*
X40093540Y35322613D01*
X40095602Y35319791D01*
X40102609Y35310199D01*
X40107647Y35301577D01*
X40112570Y35290750D01*
X40112573Y35290745D01*
X40114016Y35287572D01*
X40116291Y35284932D01*
X40116292Y35284930D01*
X40146406Y35249982D01*
X40148838Y35246920D01*
X40158522Y35233664D01*
X40171287Y35220899D01*
X40173760Y35218236D01*
X40207600Y35178963D01*
X40219247Y35171414D01*
X40227239Y35164947D01*
X42385148Y33007038D01*
X42399500Y32972390D01*
X42399500Y22149000D01*
X42385148Y22114352D01*
X42350500Y22100000D01*
X38349000Y22100000D01*
X38346648Y22099532D01*
X38346646Y22099532D01*
X38315663Y22093369D01*
X38310731Y22092388D01*
X38276083Y22078036D01*
X38262103Y22070912D01*
X38221964Y22023917D01*
X38207612Y21989269D01*
X38200000Y21951000D01*
X38200000Y9549000D01*
X98581Y9549000D01*
X98719Y13190835D01*
X23494994Y13190835D01*
X23495194Y13188453D01*
X23495194Y13188449D01*
X23496229Y13176129D01*
X23510592Y13005086D01*
X23561971Y12825905D01*
X23647176Y12660115D01*
X23648662Y12658240D01*
X23648664Y12658237D01*
X23749261Y12531315D01*
X23762959Y12514032D01*
X23904912Y12393221D01*
X24067627Y12302283D01*
X24111231Y12288115D01*
X24242625Y12245422D01*
X24242629Y12245421D01*
X24244907Y12244681D01*
X24429998Y12222610D01*
X24522924Y12229760D01*
X24613466Y12236727D01*
X24613471Y12236728D01*
X24615851Y12236911D01*
X24795387Y12287038D01*
X24797516Y12288113D01*
X24797520Y12288115D01*
X24959628Y12370002D01*
X24961768Y12371083D01*
X25108655Y12485844D01*
X25230454Y12626950D01*
X25248228Y12658237D01*
X25321341Y12786940D01*
X25322526Y12789026D01*
X25335560Y12828206D01*
X25380608Y12963627D01*
X25381364Y12965899D01*
X25404727Y13150832D01*
X25405099Y13177500D01*
X25386909Y13363013D01*
X25333033Y13541460D01*
X25245522Y13706044D01*
X25127710Y13850495D01*
X24984085Y13969313D01*
X24820116Y14057971D01*
X24817831Y14058678D01*
X24817827Y14058680D01*
X24644336Y14112383D01*
X24644337Y14112383D01*
X24642049Y14113091D01*
X24486312Y14129460D01*
X24453354Y14147355D01*
X24447523Y14167039D01*
X24431345Y14138209D01*
X24405484Y14127918D01*
X24392733Y14126758D01*
X24271032Y14115682D01*
X24169284Y14085735D01*
X24094513Y14063729D01*
X24094510Y14063728D01*
X24092214Y14063052D01*
X23927023Y13976693D01*
X23925159Y13975194D01*
X23925157Y13975193D01*
X23783617Y13861392D01*
X23783614Y13861389D01*
X23781752Y13859892D01*
X23780213Y13858058D01*
X23780212Y13858057D01*
X23735666Y13804968D01*
X23661935Y13717099D01*
X23572135Y13553754D01*
X23515772Y13376076D01*
X23494994Y13190835D01*
X98719Y13190835D01*
X98794Y15190835D01*
X23494994Y15190835D01*
X23495194Y15188453D01*
X23495194Y15188449D01*
X23496229Y15176129D01*
X23510592Y15005086D01*
X23561971Y14825905D01*
X23647176Y14660115D01*
X23648662Y14658240D01*
X23648664Y14658237D01*
X23749261Y14531315D01*
X23762959Y14514032D01*
X23904912Y14393221D01*
X24067627Y14302283D01*
X24110702Y14288287D01*
X24242625Y14245422D01*
X24242629Y14245421D01*
X24244907Y14244681D01*
X24406845Y14225371D01*
X24439550Y14207018D01*
X24445015Y14187574D01*
X24460597Y14216272D01*
X24487675Y14227048D01*
X24613466Y14236727D01*
X24613471Y14236728D01*
X24615851Y14236911D01*
X24795387Y14287038D01*
X24797516Y14288113D01*
X24797520Y14288115D01*
X24959628Y14370002D01*
X24961768Y14371083D01*
X25108655Y14485844D01*
X25230454Y14626950D01*
X25248228Y14658237D01*
X25321341Y14786940D01*
X25322526Y14789026D01*
X25335560Y14828206D01*
X25380608Y14963627D01*
X25381364Y14965899D01*
X25404727Y15150832D01*
X25405099Y15177500D01*
X25386909Y15363013D01*
X25333033Y15541460D01*
X25245522Y15706044D01*
X25127710Y15850495D01*
X24984085Y15969313D01*
X24862620Y16034989D01*
X25999500Y16034989D01*
X25999501Y15176433D01*
X25999501Y14317602D01*
X26005331Y14288287D01*
X26027543Y14255043D01*
X26031554Y14252363D01*
X26054681Y14236911D01*
X26060787Y14232831D01*
X26065521Y14231889D01*
X26065522Y14231889D01*
X26071550Y14230690D01*
X26090101Y14227000D01*
X26092511Y14227000D01*
X26951071Y14227001D01*
X27809898Y14227001D01*
X27839213Y14232831D01*
X27845320Y14236911D01*
X27868446Y14252363D01*
X27872457Y14255043D01*
X27894669Y14288287D01*
X27900500Y14317601D01*
X27900500Y15177500D01*
X27900499Y16034994D01*
X27900499Y16037398D01*
X27894669Y16066713D01*
X27872457Y16099957D01*
X27868446Y16102637D01*
X27843226Y16119488D01*
X27843225Y16119488D01*
X27839213Y16122169D01*
X27834479Y16123111D01*
X27834478Y16123111D01*
X27828450Y16124310D01*
X27809899Y16128000D01*
X27807489Y16128000D01*
X26948929Y16127999D01*
X26090102Y16127999D01*
X26060787Y16122169D01*
X26056775Y16119488D01*
X26056774Y16119488D01*
X26031554Y16102637D01*
X26027543Y16099957D01*
X26005331Y16066713D01*
X26004390Y16061980D01*
X26004389Y16061978D01*
X26003190Y16055950D01*
X25999500Y16037399D01*
X25999500Y16034989D01*
X24862620Y16034989D01*
X24820116Y16057971D01*
X24817831Y16058678D01*
X24817827Y16058680D01*
X24644336Y16112383D01*
X24644337Y16112383D01*
X24642049Y16113091D01*
X24581188Y16119488D01*
X24459051Y16132326D01*
X24459046Y16132326D01*
X24456668Y16132576D01*
X24454283Y16132359D01*
X24454278Y16132359D01*
X24363850Y16124129D01*
X24271032Y16115682D01*
X24169284Y16085735D01*
X24094513Y16063729D01*
X24094510Y16063728D01*
X24092214Y16063052D01*
X23927023Y15976693D01*
X23925159Y15975194D01*
X23925157Y15975193D01*
X23783617Y15861392D01*
X23783614Y15861389D01*
X23781752Y15859892D01*
X23780213Y15858058D01*
X23780212Y15858057D01*
X23735666Y15804968D01*
X23661935Y15717099D01*
X23572135Y15553754D01*
X23515772Y15376076D01*
X23494994Y15190835D01*
X98794Y15190835D01*
X99181Y25425000D01*
X29574570Y25425000D01*
X29594168Y25301260D01*
X29595918Y25297826D01*
X29649295Y25193068D01*
X29651045Y25189633D01*
X29739633Y25101045D01*
X29743066Y25099296D01*
X29743067Y25099295D01*
X29795446Y25072607D01*
X29851260Y25044168D01*
X29855065Y25043565D01*
X29855066Y25043565D01*
X29971193Y25025173D01*
X29975000Y25024570D01*
X29978807Y25025173D01*
X30094934Y25043565D01*
X30094935Y25043565D01*
X30098740Y25044168D01*
X30154553Y25072606D01*
X30206933Y25099295D01*
X30206934Y25099296D01*
X30210367Y25101045D01*
X30298955Y25189633D01*
X30303089Y25197746D01*
X30331607Y25222102D01*
X30346748Y25224500D01*
X34046654Y25224500D01*
X34081302Y25210148D01*
X34542114Y24749337D01*
X34542116Y24749334D01*
X34928136Y24363314D01*
X34933167Y24356216D01*
X34933230Y24356266D01*
X34936663Y24351950D01*
X34939052Y24346976D01*
X34943360Y24343531D01*
X34964012Y24327015D01*
X34968056Y24323395D01*
X34974208Y24317243D01*
X34981310Y24312779D01*
X34985823Y24309573D01*
X35010492Y24289844D01*
X35015871Y24288607D01*
X35020837Y24286207D01*
X35020829Y24286191D01*
X35022143Y24285645D01*
X35022149Y24285662D01*
X35027358Y24283838D01*
X35032028Y24280902D01*
X35037508Y24280282D01*
X35037509Y24280282D01*
X35063398Y24277355D01*
X35068872Y24276419D01*
X35074520Y24275120D01*
X35074524Y24275119D01*
X35077219Y24274500D01*
X35085893Y24274500D01*
X35091398Y24274190D01*
X35117438Y24271246D01*
X35122923Y24270626D01*
X35128135Y24272446D01*
X35133615Y24273061D01*
X35133619Y24273024D01*
X35142325Y24274500D01*
X39153252Y24274500D01*
X39187900Y24260148D01*
X39196911Y24247746D01*
X39201045Y24239633D01*
X39289633Y24151045D01*
X39293066Y24149296D01*
X39293067Y24149295D01*
X39345446Y24122607D01*
X39401260Y24094168D01*
X39405065Y24093565D01*
X39405066Y24093565D01*
X39521193Y24075173D01*
X39525000Y24074570D01*
X39528807Y24075173D01*
X39644934Y24093565D01*
X39644935Y24093565D01*
X39648740Y24094168D01*
X39704553Y24122606D01*
X39756933Y24149295D01*
X39756934Y24149296D01*
X39760367Y24151045D01*
X39848955Y24239633D01*
X39850706Y24243068D01*
X39892616Y24325322D01*
X39905832Y24351260D01*
X39925430Y24475000D01*
X39905832Y24598740D01*
X39853089Y24702254D01*
X39850705Y24706933D01*
X39850704Y24706934D01*
X39848955Y24710367D01*
X39760367Y24798955D01*
X39756934Y24800704D01*
X39756933Y24800705D01*
X39704553Y24827394D01*
X39648740Y24855832D01*
X39644935Y24856435D01*
X39644934Y24856435D01*
X39528807Y24874827D01*
X39525000Y24875430D01*
X39521193Y24874827D01*
X39405066Y24856435D01*
X39405065Y24856435D01*
X39401260Y24855832D01*
X39345447Y24827394D01*
X39293067Y24800705D01*
X39293066Y24800704D01*
X39289633Y24798955D01*
X39201045Y24710367D01*
X39199295Y24706932D01*
X39196911Y24702254D01*
X39168393Y24677898D01*
X39153252Y24675500D01*
X35203346Y24675500D01*
X35168698Y24689852D01*
X34321864Y25536686D01*
X34316834Y25543784D01*
X34316770Y25543733D01*
X34313337Y25548049D01*
X34310948Y25553024D01*
X34285993Y25572981D01*
X34281949Y25576601D01*
X34275792Y25582758D01*
X34273465Y25584221D01*
X34273462Y25584223D01*
X34268689Y25587223D01*
X34264162Y25590440D01*
X34243818Y25606709D01*
X34243819Y25606709D01*
X34239508Y25610156D01*
X34234128Y25611393D01*
X34229164Y25613793D01*
X34229172Y25613809D01*
X34227858Y25614355D01*
X34227852Y25614339D01*
X34222644Y25616163D01*
X34217972Y25619099D01*
X34212488Y25619719D01*
X34186600Y25622646D01*
X34181128Y25623581D01*
X34179264Y25624009D01*
X34172781Y25625500D01*
X34164109Y25625500D01*
X34158605Y25625810D01*
X34148608Y25626940D01*
X34127076Y25629374D01*
X34121867Y25627555D01*
X34116383Y25626940D01*
X34116379Y25626977D01*
X34107672Y25625500D01*
X30346748Y25625500D01*
X30312100Y25639852D01*
X30303089Y25652254D01*
X30300705Y25656932D01*
X30298955Y25660367D01*
X30210367Y25748955D01*
X30206934Y25750704D01*
X30206933Y25750705D01*
X30154553Y25777394D01*
X30098740Y25805832D01*
X30094935Y25806435D01*
X30094934Y25806435D01*
X29978807Y25824827D01*
X29975000Y25825430D01*
X29971193Y25824827D01*
X29855066Y25806435D01*
X29855065Y25806435D01*
X29851260Y25805832D01*
X29795447Y25777394D01*
X29743067Y25750705D01*
X29743066Y25750704D01*
X29739633Y25748955D01*
X29651045Y25660367D01*
X29649296Y25656934D01*
X29649295Y25656933D01*
X29631984Y25622958D01*
X29594168Y25548740D01*
X29574570Y25425000D01*
X99181Y25425000D01*
X99226Y26618068D01*
X99256Y27398335D01*
X13644994Y27398335D01*
X13645194Y27395953D01*
X13645194Y27395949D01*
X13646229Y27383629D01*
X13660592Y27212586D01*
X13671669Y27173955D01*
X13706382Y27052898D01*
X13711971Y27033405D01*
X13797176Y26867615D01*
X13798662Y26865740D01*
X13798664Y26865737D01*
X13899261Y26738815D01*
X13912959Y26721532D01*
X13914785Y26719978D01*
X13914786Y26719977D01*
X14029033Y26622746D01*
X14054912Y26600721D01*
X14217627Y26509783D01*
X14261231Y26495615D01*
X14392625Y26452922D01*
X14392629Y26452921D01*
X14394907Y26452181D01*
X14579998Y26430110D01*
X14672924Y26437260D01*
X14763466Y26444227D01*
X14763471Y26444228D01*
X14765851Y26444411D01*
X14945387Y26494538D01*
X14947516Y26495613D01*
X14947520Y26495615D01*
X15109628Y26577502D01*
X15111768Y26578583D01*
X15258655Y26693344D01*
X15380454Y26834450D01*
X15389288Y26850000D01*
X30574570Y26850000D01*
X30594168Y26726260D01*
X30610017Y26695154D01*
X30649295Y26618068D01*
X30651045Y26614633D01*
X30739633Y26526045D01*
X30743066Y26524296D01*
X30743067Y26524295D01*
X30771549Y26509783D01*
X30851260Y26469168D01*
X30855065Y26468565D01*
X30855066Y26468565D01*
X30971193Y26450173D01*
X30975000Y26449570D01*
X30978807Y26450173D01*
X31094934Y26468565D01*
X31094935Y26468565D01*
X31098740Y26469168D01*
X31178451Y26509783D01*
X31206933Y26524295D01*
X31206934Y26524296D01*
X31210367Y26526045D01*
X31298955Y26614633D01*
X31303089Y26622746D01*
X31331607Y26647102D01*
X31346748Y26649500D01*
X39178252Y26649500D01*
X39212900Y26635148D01*
X39221911Y26622746D01*
X39226045Y26614633D01*
X39314633Y26526045D01*
X39318066Y26524296D01*
X39318067Y26524295D01*
X39346549Y26509783D01*
X39426260Y26469168D01*
X39430065Y26468565D01*
X39430066Y26468565D01*
X39546193Y26450173D01*
X39550000Y26449570D01*
X39553807Y26450173D01*
X39669934Y26468565D01*
X39669935Y26468565D01*
X39673740Y26469168D01*
X39753451Y26509783D01*
X39781933Y26524295D01*
X39781934Y26524296D01*
X39785367Y26526045D01*
X39873955Y26614633D01*
X39875706Y26618068D01*
X39914983Y26695154D01*
X39930832Y26726260D01*
X39950430Y26850000D01*
X39930832Y26973740D01*
X39878089Y27077254D01*
X39875705Y27081933D01*
X39875704Y27081934D01*
X39873955Y27085367D01*
X39785367Y27173955D01*
X39781934Y27175704D01*
X39781933Y27175705D01*
X39729553Y27202394D01*
X39673740Y27230832D01*
X39669935Y27231435D01*
X39669934Y27231435D01*
X39553807Y27249827D01*
X39550000Y27250430D01*
X39546193Y27249827D01*
X39430066Y27231435D01*
X39430065Y27231435D01*
X39426260Y27230832D01*
X39370447Y27202394D01*
X39318067Y27175705D01*
X39318066Y27175704D01*
X39314633Y27173955D01*
X39226045Y27085367D01*
X39224295Y27081932D01*
X39221911Y27077254D01*
X39193393Y27052898D01*
X39178252Y27050500D01*
X31346748Y27050500D01*
X31312100Y27064852D01*
X31303089Y27077254D01*
X31300705Y27081932D01*
X31298955Y27085367D01*
X31210367Y27173955D01*
X31206934Y27175704D01*
X31206933Y27175705D01*
X31154553Y27202394D01*
X31098740Y27230832D01*
X31094935Y27231435D01*
X31094934Y27231435D01*
X30978807Y27249827D01*
X30975000Y27250430D01*
X30971193Y27249827D01*
X30855066Y27231435D01*
X30855065Y27231435D01*
X30851260Y27230832D01*
X30795447Y27202394D01*
X30743067Y27175705D01*
X30743066Y27175704D01*
X30739633Y27173955D01*
X30651045Y27085367D01*
X30649296Y27081934D01*
X30649295Y27081933D01*
X30646911Y27077254D01*
X30594168Y26973740D01*
X30574570Y26850000D01*
X15389288Y26850000D01*
X15391451Y26853807D01*
X15471341Y26994440D01*
X15472526Y26996526D01*
X15485560Y27035706D01*
X15530608Y27171127D01*
X15531364Y27173399D01*
X15541096Y27250430D01*
X15554556Y27356979D01*
X15554727Y27358332D01*
X15555099Y27385000D01*
X15536909Y27570513D01*
X15483033Y27748960D01*
X15395522Y27913544D01*
X15277710Y28057995D01*
X15134085Y28176813D01*
X14970116Y28265471D01*
X14967831Y28266178D01*
X14967827Y28266180D01*
X14794336Y28319883D01*
X14794337Y28319883D01*
X14792049Y28320591D01*
X14744652Y28325573D01*
X14609051Y28339826D01*
X14609046Y28339826D01*
X14606668Y28340076D01*
X14604283Y28339859D01*
X14604278Y28339859D01*
X14513850Y28331629D01*
X14421032Y28323182D01*
X14319284Y28293235D01*
X14244513Y28271229D01*
X14244510Y28271228D01*
X14242214Y28270552D01*
X14077023Y28184193D01*
X14075159Y28182694D01*
X14075157Y28182693D01*
X13933617Y28068892D01*
X13933614Y28068889D01*
X13931752Y28067392D01*
X13930213Y28065558D01*
X13930212Y28065557D01*
X13885666Y28012468D01*
X13811935Y27924599D01*
X13722135Y27761254D01*
X13665772Y27583576D01*
X13644994Y27398335D01*
X99256Y27398335D01*
X99384Y30784899D01*
X13649500Y30784899D01*
X13649501Y29065102D01*
X13655331Y29035787D01*
X13677543Y29002543D01*
X13710787Y28980331D01*
X13715521Y28979389D01*
X13715522Y28979389D01*
X13721550Y28978190D01*
X13740101Y28974500D01*
X13742511Y28974500D01*
X14601071Y28974501D01*
X15459898Y28974501D01*
X15489213Y28980331D01*
X15522457Y29002543D01*
X15544669Y29035787D01*
X15550500Y29065101D01*
X15550499Y30000000D01*
X23499570Y30000000D01*
X23519168Y29876260D01*
X23576045Y29764633D01*
X23664633Y29676045D01*
X23668066Y29674296D01*
X23668067Y29674295D01*
X23720446Y29647607D01*
X23776260Y29619168D01*
X23780065Y29618565D01*
X23780066Y29618565D01*
X23896193Y29600173D01*
X23900000Y29599570D01*
X23903807Y29600173D01*
X24019934Y29618565D01*
X24019935Y29618565D01*
X24023740Y29619168D01*
X24079554Y29647607D01*
X24131933Y29674295D01*
X24131934Y29674296D01*
X24135367Y29676045D01*
X24223955Y29764633D01*
X24280832Y29876260D01*
X24300430Y30000000D01*
X24299315Y30007041D01*
X24288355Y30076241D01*
X24297110Y30112708D01*
X24302104Y30118554D01*
X29981446Y35797896D01*
X30016094Y35812248D01*
X30023759Y35811645D01*
X30096193Y35800173D01*
X30100000Y35799570D01*
X30103807Y35800173D01*
X30219934Y35818565D01*
X30219935Y35818565D01*
X30223740Y35819168D01*
X30279554Y35847607D01*
X30331933Y35874295D01*
X30331934Y35874296D01*
X30335367Y35876045D01*
X30423955Y35964633D01*
X30480832Y36076260D01*
X30481654Y36081446D01*
X30499827Y36196193D01*
X30500430Y36200000D01*
X30480832Y36323740D01*
X30423955Y36435367D01*
X30335367Y36523955D01*
X30331934Y36525704D01*
X30331933Y36525705D01*
X30279554Y36552393D01*
X30223740Y36580832D01*
X30219935Y36581435D01*
X30219934Y36581435D01*
X30103807Y36599827D01*
X30100000Y36600430D01*
X30096193Y36599827D01*
X29980066Y36581435D01*
X29980065Y36581435D01*
X29976260Y36580832D01*
X29920446Y36552393D01*
X29868067Y36525705D01*
X29868066Y36525704D01*
X29864633Y36523955D01*
X29776045Y36435367D01*
X29719168Y36323740D01*
X29699570Y36200000D01*
X29700173Y36196193D01*
X29711645Y36123759D01*
X29702890Y36087292D01*
X29697896Y36081446D01*
X24018554Y30402104D01*
X23983906Y30387752D01*
X23976241Y30388355D01*
X23903807Y30399827D01*
X23900000Y30400430D01*
X23896193Y30399827D01*
X23780066Y30381435D01*
X23780065Y30381435D01*
X23776260Y30380832D01*
X23720446Y30352393D01*
X23668067Y30325705D01*
X23668066Y30325704D01*
X23664633Y30323955D01*
X23576045Y30235367D01*
X23519168Y30123740D01*
X23518565Y30119935D01*
X23518565Y30119934D01*
X23517421Y30112708D01*
X23499570Y30000000D01*
X15550499Y30000000D01*
X15550499Y30784898D01*
X15544669Y30814213D01*
X15522457Y30847457D01*
X15489213Y30869669D01*
X15484479Y30870611D01*
X15484478Y30870611D01*
X15478450Y30871810D01*
X15459899Y30875500D01*
X15457489Y30875500D01*
X14598929Y30875499D01*
X13740102Y30875499D01*
X13710787Y30869669D01*
X13677543Y30847457D01*
X13655331Y30814213D01*
X13649500Y30784899D01*
X99384Y30784899D01*
X99616Y36925000D01*
X17599570Y36925000D01*
X17619168Y36801260D01*
X17676045Y36689633D01*
X17764633Y36601045D01*
X17768066Y36599296D01*
X17768067Y36599295D01*
X17804303Y36580832D01*
X17876260Y36544168D01*
X17880065Y36543565D01*
X17880066Y36543565D01*
X17996193Y36525173D01*
X18000000Y36524570D01*
X18003807Y36525173D01*
X18119934Y36543565D01*
X18119935Y36543565D01*
X18123740Y36544168D01*
X18195697Y36580832D01*
X18231933Y36599295D01*
X18231934Y36599296D01*
X18235367Y36601045D01*
X18269470Y36635148D01*
X18304118Y36649500D01*
X22090588Y36649500D01*
X22125236Y36635148D01*
X23336276Y35424108D01*
X23350025Y35397125D01*
X23364435Y35306143D01*
X23369168Y35276260D01*
X23383316Y35248494D01*
X23424022Y35168604D01*
X23426045Y35164633D01*
X23514633Y35076045D01*
X23518066Y35074296D01*
X23518067Y35074295D01*
X23570446Y35047607D01*
X23626260Y35019168D01*
X23630065Y35018565D01*
X23630066Y35018565D01*
X23746193Y35000173D01*
X23750000Y34999570D01*
X23753807Y35000173D01*
X23869934Y35018565D01*
X23869935Y35018565D01*
X23873740Y35019168D01*
X23929554Y35047607D01*
X23981933Y35074295D01*
X23981934Y35074296D01*
X23985367Y35076045D01*
X24073955Y35164633D01*
X24075979Y35168604D01*
X24116684Y35248494D01*
X24130832Y35276260D01*
X24137727Y35319791D01*
X24149827Y35396193D01*
X24150430Y35400000D01*
X24130832Y35523740D01*
X24073955Y35635367D01*
X23985367Y35723955D01*
X23981934Y35725704D01*
X23981933Y35725705D01*
X23900270Y35767314D01*
X23873740Y35780832D01*
X23869935Y35781435D01*
X23869934Y35781435D01*
X23752875Y35799975D01*
X23725892Y35813724D01*
X22539616Y37000000D01*
X32499570Y37000000D01*
X32500173Y36996193D01*
X32511449Y36925000D01*
X32519168Y36876260D01*
X32520918Y36872826D01*
X32557383Y36801260D01*
X32576045Y36764633D01*
X32664633Y36676045D01*
X32671155Y36672722D01*
X32672746Y36671911D01*
X32697102Y36643393D01*
X32699500Y36628252D01*
X32699500Y36242552D01*
X32698039Y36233978D01*
X32698119Y36233969D01*
X32697494Y36228488D01*
X32695666Y36223281D01*
X32696276Y36217798D01*
X32696276Y36217796D01*
X32699199Y36191533D01*
X32699500Y36186114D01*
X32699500Y36177397D01*
X32700111Y36174720D01*
X32700111Y36174718D01*
X32701366Y36169217D01*
X32702290Y36163755D01*
X32705783Y36132367D01*
X32708711Y36127690D01*
X32710526Y36122478D01*
X32710510Y36122472D01*
X32711052Y36121160D01*
X32711067Y36121167D01*
X32713461Y36116192D01*
X32714688Y36110815D01*
X32734374Y36086111D01*
X32737567Y36081600D01*
X32742116Y36074334D01*
X32748247Y36068203D01*
X32751920Y36064092D01*
X32771695Y36039276D01*
X32776669Y36036877D01*
X32780977Y36033438D01*
X32780953Y36033409D01*
X32788155Y36028295D01*
X35785148Y33031302D01*
X35799500Y32996654D01*
X35799500Y32371748D01*
X35785148Y32337100D01*
X35772745Y32328089D01*
X35764633Y32323955D01*
X35676045Y32235367D01*
X35619168Y32123740D01*
X35599570Y32000000D01*
X35619168Y31876260D01*
X35676045Y31764633D01*
X35764633Y31676045D01*
X35768066Y31674296D01*
X35768067Y31674295D01*
X35820446Y31647607D01*
X35876260Y31619168D01*
X35880065Y31618565D01*
X35880066Y31618565D01*
X35996193Y31600173D01*
X36000000Y31599570D01*
X36003807Y31600173D01*
X36119934Y31618565D01*
X36119935Y31618565D01*
X36123740Y31619168D01*
X36179554Y31647607D01*
X36231933Y31674295D01*
X36231934Y31674296D01*
X36235367Y31676045D01*
X36323955Y31764633D01*
X36380832Y31876260D01*
X36400430Y32000000D01*
X36380832Y32123740D01*
X36323955Y32235367D01*
X36235367Y32323955D01*
X36227254Y32328089D01*
X36202898Y32356607D01*
X36200500Y32371748D01*
X36200500Y33057448D01*
X36201961Y33066022D01*
X36201881Y33066031D01*
X36202506Y33071512D01*
X36204334Y33076719D01*
X36200801Y33108467D01*
X36200500Y33113886D01*
X36200500Y33122603D01*
X36198634Y33130783D01*
X36197710Y33136245D01*
X36194217Y33167633D01*
X36191289Y33172310D01*
X36189474Y33177522D01*
X36189490Y33177528D01*
X36188948Y33178840D01*
X36188933Y33178833D01*
X36186538Y33183809D01*
X36185312Y33189185D01*
X36181876Y33193497D01*
X36181875Y33193499D01*
X36165638Y33213874D01*
X36162427Y33218409D01*
X36159354Y33223317D01*
X36159353Y33223319D01*
X36157883Y33225666D01*
X36151757Y33231792D01*
X36148084Y33235903D01*
X36131744Y33256408D01*
X36128305Y33260724D01*
X36123334Y33263122D01*
X36119023Y33266563D01*
X36119046Y33266592D01*
X36111843Y33271706D01*
X33114852Y36268698D01*
X33100500Y36303346D01*
X33100500Y36628252D01*
X33114852Y36662900D01*
X33127254Y36671911D01*
X33128845Y36672722D01*
X33135367Y36676045D01*
X33223955Y36764633D01*
X33242618Y36801260D01*
X33279082Y36872826D01*
X33280832Y36876260D01*
X33288552Y36925000D01*
X33299827Y36996193D01*
X33300430Y37000000D01*
X33280832Y37123740D01*
X33251232Y37181833D01*
X33225705Y37231933D01*
X33225704Y37231934D01*
X33223955Y37235367D01*
X33135367Y37323955D01*
X33131934Y37325704D01*
X33131933Y37325705D01*
X33079553Y37352394D01*
X33023740Y37380832D01*
X33019935Y37381435D01*
X33019934Y37381435D01*
X32903807Y37399827D01*
X32900000Y37400430D01*
X32896193Y37399827D01*
X32780066Y37381435D01*
X32780065Y37381435D01*
X32776260Y37380832D01*
X32720447Y37352394D01*
X32668067Y37325705D01*
X32668066Y37325704D01*
X32664633Y37323955D01*
X32576045Y37235367D01*
X32574296Y37231934D01*
X32574295Y37231933D01*
X32548768Y37181833D01*
X32519168Y37123740D01*
X32499570Y37000000D01*
X22539616Y37000000D01*
X22442407Y37097209D01*
X22436313Y37104634D01*
X22426304Y37119613D01*
X22423624Y37123624D01*
X22400623Y37138993D01*
X22400622Y37138994D01*
X22367765Y37160948D01*
X22332495Y37184515D01*
X22252133Y37200500D01*
X22229737Y37204955D01*
X22229736Y37204955D01*
X22225000Y37205897D01*
X22220264Y37204955D01*
X22202604Y37201442D01*
X22193044Y37200500D01*
X18304118Y37200500D01*
X18269470Y37214852D01*
X18235367Y37248955D01*
X18231934Y37250704D01*
X18231933Y37250705D01*
X18179553Y37277394D01*
X18123740Y37305832D01*
X18119935Y37306435D01*
X18119934Y37306435D01*
X18003807Y37324827D01*
X18000000Y37325430D01*
X17996193Y37324827D01*
X17880066Y37306435D01*
X17880065Y37306435D01*
X17876260Y37305832D01*
X17820447Y37277394D01*
X17768067Y37250705D01*
X17768066Y37250704D01*
X17764633Y37248955D01*
X17676045Y37160367D01*
X17674296Y37156934D01*
X17674295Y37156933D01*
X17657323Y37123624D01*
X17619168Y37048740D01*
X17618565Y37044935D01*
X17618565Y37044934D01*
X17603530Y36950004D01*
X17599570Y36925000D01*
X99616Y36925000D01*
X99695Y39000000D01*
X9594540Y39000000D01*
X9614326Y38811744D01*
X9672821Y38631716D01*
X9767467Y38467784D01*
X9769188Y38465872D01*
X9769190Y38465870D01*
X9892406Y38329025D01*
X9892409Y38329023D01*
X9894129Y38327112D01*
X9896209Y38325601D01*
X9896211Y38325599D01*
X10041208Y38220253D01*
X10047270Y38215849D01*
X10220197Y38138856D01*
X10312776Y38119178D01*
X10402845Y38100033D01*
X10402848Y38100033D01*
X10405354Y38099500D01*
X10594646Y38099500D01*
X10597152Y38100033D01*
X10597155Y38100033D01*
X10687224Y38119178D01*
X10779803Y38138856D01*
X10952730Y38215849D01*
X10958792Y38220253D01*
X11103789Y38325599D01*
X11103791Y38325601D01*
X11105871Y38327112D01*
X11107591Y38329023D01*
X11107594Y38329025D01*
X11230810Y38465870D01*
X11230812Y38465872D01*
X11232533Y38467784D01*
X11327179Y38631716D01*
X11385674Y38811744D01*
X11405460Y39000000D01*
X11385674Y39188256D01*
X11327179Y39368284D01*
X11324913Y39372210D01*
X11233820Y39529987D01*
X11233820Y39529988D01*
X11232533Y39532216D01*
X11230810Y39534130D01*
X11107594Y39670975D01*
X11107591Y39670977D01*
X11105871Y39672888D01*
X11052136Y39711929D01*
X10954810Y39782640D01*
X10954809Y39782641D01*
X10952730Y39784151D01*
X10779803Y39861144D01*
X10687224Y39880822D01*
X10597155Y39899967D01*
X10597152Y39899967D01*
X10594646Y39900500D01*
X10405354Y39900500D01*
X10402848Y39899967D01*
X10402845Y39899967D01*
X10312776Y39880822D01*
X10220197Y39861144D01*
X10047270Y39784151D01*
X10045191Y39782641D01*
X10045190Y39782640D01*
X9947865Y39711929D01*
X9894129Y39672888D01*
X9892409Y39670977D01*
X9892406Y39670975D01*
X9769190Y39534130D01*
X9767467Y39532216D01*
X9766180Y39529988D01*
X9766180Y39529987D01*
X9675088Y39372210D01*
X9672821Y39368284D01*
X9614326Y39188256D01*
X9594540Y39000000D01*
X99695Y39000000D01*
X99996Y46957905D01*
X1145028Y46957905D01*
X1170534Y46690569D01*
X1170955Y46688848D01*
X1170956Y46688843D01*
X1179462Y46654081D01*
X1234364Y46429715D01*
X1335182Y46180808D01*
X1336078Y46179278D01*
X1429627Y46019509D01*
X1470875Y45949062D01*
X1638601Y45739331D01*
X1834846Y45556009D01*
X1836293Y45555005D01*
X1836297Y45555002D01*
X1987285Y45450258D01*
X2055499Y45402936D01*
X2295938Y45283320D01*
X2297620Y45282768D01*
X2297624Y45282767D01*
X2549444Y45200216D01*
X2549449Y45200215D01*
X2551126Y45199665D01*
X2552864Y45199363D01*
X2552869Y45199362D01*
X2754420Y45164367D01*
X2815717Y45153724D01*
X2817212Y45153650D01*
X2817217Y45153649D01*
X2857852Y45151626D01*
X2900567Y45149500D01*
X3068223Y45149500D01*
X3069087Y45149563D01*
X3069096Y45149563D01*
X3266075Y45163855D01*
X3266082Y45163856D01*
X3267846Y45163984D01*
X3269581Y45164367D01*
X3528347Y45221497D01*
X3528352Y45221498D01*
X3530080Y45221880D01*
X3781211Y45317025D01*
X3934452Y45402143D01*
X4014421Y45446562D01*
X4014424Y45446564D01*
X4015976Y45447426D01*
X4146127Y45546754D01*
X4214848Y45599200D01*
X16859500Y45599200D01*
X16874880Y45447784D01*
X16935662Y45253828D01*
X17034203Y45076056D01*
X17166477Y44921729D01*
X17327081Y44797152D01*
X17509455Y44707413D01*
X17706148Y44656178D01*
X17708620Y44656048D01*
X17708623Y44656048D01*
X17799644Y44651278D01*
X17909126Y44645541D01*
X18110097Y44675935D01*
X18300852Y44746119D01*
X18302960Y44747426D01*
X18302964Y44747428D01*
X18471496Y44851922D01*
X18471497Y44851922D01*
X18473599Y44853226D01*
X18621280Y44992881D01*
X18622705Y44994916D01*
X18736438Y45157343D01*
X18736440Y45157347D01*
X18737863Y45159379D01*
X18818586Y45345919D01*
X18819092Y45348343D01*
X18819094Y45348348D01*
X18859767Y45543044D01*
X18860151Y45544880D01*
X18860500Y45551539D01*
X18860500Y45599200D01*
X19399500Y45599200D01*
X19414880Y45447784D01*
X19475662Y45253828D01*
X19574203Y45076056D01*
X19706477Y44921729D01*
X19867081Y44797152D01*
X20049455Y44707413D01*
X20246148Y44656178D01*
X20248620Y44656048D01*
X20248623Y44656048D01*
X20339644Y44651278D01*
X20449126Y44645541D01*
X20650097Y44675935D01*
X20840852Y44746119D01*
X20842960Y44747426D01*
X20842964Y44747428D01*
X21011496Y44851922D01*
X21011497Y44851922D01*
X21013599Y44853226D01*
X21161280Y44992881D01*
X21162705Y44994916D01*
X21276438Y45157343D01*
X21276440Y45157347D01*
X21277863Y45159379D01*
X21358586Y45345919D01*
X21359092Y45348343D01*
X21359094Y45348348D01*
X21399767Y45543044D01*
X21400151Y45544880D01*
X21400500Y45551539D01*
X21400500Y45599200D01*
X31919500Y45599200D01*
X31934880Y45447784D01*
X31995662Y45253828D01*
X32094203Y45076056D01*
X32226477Y44921729D01*
X32387081Y44797152D01*
X32569455Y44707413D01*
X32766148Y44656178D01*
X32768620Y44656048D01*
X32768623Y44656048D01*
X32859644Y44651278D01*
X32969126Y44645541D01*
X33170097Y44675935D01*
X33360852Y44746119D01*
X33362960Y44747426D01*
X33362964Y44747428D01*
X33531496Y44851922D01*
X33531497Y44851922D01*
X33533599Y44853226D01*
X33681280Y44992881D01*
X33682705Y44994916D01*
X33796438Y45157343D01*
X33796440Y45157347D01*
X33797863Y45159379D01*
X33878586Y45345919D01*
X33879092Y45348343D01*
X33879094Y45348348D01*
X33919767Y45543044D01*
X33920151Y45544880D01*
X33920500Y45551539D01*
X33920500Y45599200D01*
X34459500Y45599200D01*
X34474880Y45447784D01*
X34535662Y45253828D01*
X34634203Y45076056D01*
X34766477Y44921729D01*
X34927081Y44797152D01*
X35109455Y44707413D01*
X35306148Y44656178D01*
X35308620Y44656048D01*
X35308623Y44656048D01*
X35399644Y44651278D01*
X35509126Y44645541D01*
X35710097Y44675935D01*
X35900852Y44746119D01*
X35902960Y44747426D01*
X35902964Y44747428D01*
X36071496Y44851922D01*
X36071497Y44851922D01*
X36073599Y44853226D01*
X36221280Y44992881D01*
X36222705Y44994916D01*
X36336438Y45157343D01*
X36336440Y45157347D01*
X36337863Y45159379D01*
X36418586Y45345919D01*
X36419092Y45348343D01*
X36419094Y45348348D01*
X36459767Y45543044D01*
X36460151Y45544880D01*
X36460500Y45551539D01*
X36460500Y45599200D01*
X36999500Y45599200D01*
X37014880Y45447784D01*
X37075662Y45253828D01*
X37174203Y45076056D01*
X37306477Y44921729D01*
X37467081Y44797152D01*
X37649455Y44707413D01*
X37846148Y44656178D01*
X37848620Y44656048D01*
X37848623Y44656048D01*
X37939644Y44651278D01*
X38049126Y44645541D01*
X38250097Y44675935D01*
X38440852Y44746119D01*
X38442960Y44747426D01*
X38442964Y44747428D01*
X38611496Y44851922D01*
X38611497Y44851922D01*
X38613599Y44853226D01*
X38761280Y44992881D01*
X38762705Y44994916D01*
X38876438Y45157343D01*
X38876440Y45157347D01*
X38877863Y45159379D01*
X38958586Y45345919D01*
X38959092Y45348343D01*
X38959094Y45348348D01*
X38999767Y45543044D01*
X39000151Y45544880D01*
X39000500Y45551539D01*
X39000500Y46400800D01*
X38985120Y46552216D01*
X38924338Y46746172D01*
X38825797Y46923944D01*
X38693523Y47078271D01*
X38656204Y47107219D01*
X38534881Y47201326D01*
X38534882Y47201326D01*
X38532919Y47202848D01*
X38350545Y47292587D01*
X38153852Y47343822D01*
X38151380Y47343952D01*
X38151377Y47343952D01*
X38060356Y47348722D01*
X37950874Y47354459D01*
X37749903Y47324065D01*
X37747569Y47323206D01*
X37747568Y47323206D01*
X37726154Y47315327D01*
X37559148Y47253881D01*
X37557040Y47252574D01*
X37557036Y47252572D01*
X37388504Y47148078D01*
X37386401Y47146774D01*
X37238720Y47007119D01*
X37237295Y47005084D01*
X37123562Y46842657D01*
X37123560Y46842653D01*
X37122137Y46840621D01*
X37041414Y46654081D01*
X37040908Y46651657D01*
X37040906Y46651652D01*
X37018201Y46542965D01*
X36999849Y46455120D01*
X36999500Y46448461D01*
X36999500Y45599200D01*
X36460500Y45599200D01*
X36460500Y46400800D01*
X36445120Y46552216D01*
X36384338Y46746172D01*
X36285797Y46923944D01*
X36153523Y47078271D01*
X36116204Y47107219D01*
X35994881Y47201326D01*
X35994882Y47201326D01*
X35992919Y47202848D01*
X35810545Y47292587D01*
X35613852Y47343822D01*
X35611380Y47343952D01*
X35611377Y47343952D01*
X35520356Y47348722D01*
X35410874Y47354459D01*
X35209903Y47324065D01*
X35207569Y47323206D01*
X35207568Y47323206D01*
X35186154Y47315327D01*
X35019148Y47253881D01*
X35017040Y47252574D01*
X35017036Y47252572D01*
X34848504Y47148078D01*
X34846401Y47146774D01*
X34698720Y47007119D01*
X34697295Y47005084D01*
X34583562Y46842657D01*
X34583560Y46842653D01*
X34582137Y46840621D01*
X34501414Y46654081D01*
X34500908Y46651657D01*
X34500906Y46651652D01*
X34478201Y46542965D01*
X34459849Y46455120D01*
X34459500Y46448461D01*
X34459500Y45599200D01*
X33920500Y45599200D01*
X33920500Y46400800D01*
X33905120Y46552216D01*
X33844338Y46746172D01*
X33745797Y46923944D01*
X33613523Y47078271D01*
X33576204Y47107219D01*
X33454881Y47201326D01*
X33454882Y47201326D01*
X33452919Y47202848D01*
X33270545Y47292587D01*
X33073852Y47343822D01*
X33071380Y47343952D01*
X33071377Y47343952D01*
X32980356Y47348722D01*
X32870874Y47354459D01*
X32669903Y47324065D01*
X32667569Y47323206D01*
X32667568Y47323206D01*
X32646154Y47315327D01*
X32479148Y47253881D01*
X32477040Y47252574D01*
X32477036Y47252572D01*
X32308504Y47148078D01*
X32306401Y47146774D01*
X32158720Y47007119D01*
X32157295Y47005084D01*
X32043562Y46842657D01*
X32043560Y46842653D01*
X32042137Y46840621D01*
X31961414Y46654081D01*
X31960908Y46651657D01*
X31960906Y46651652D01*
X31938201Y46542965D01*
X31919849Y46455120D01*
X31919500Y46448461D01*
X31919500Y45599200D01*
X21400500Y45599200D01*
X21400500Y46400800D01*
X21385120Y46552216D01*
X21324338Y46746172D01*
X21225797Y46923944D01*
X21093523Y47078271D01*
X21056204Y47107219D01*
X20934881Y47201326D01*
X20934882Y47201326D01*
X20932919Y47202848D01*
X20750545Y47292587D01*
X20553852Y47343822D01*
X20551380Y47343952D01*
X20551377Y47343952D01*
X20460356Y47348722D01*
X20350874Y47354459D01*
X20149903Y47324065D01*
X20147569Y47323206D01*
X20147568Y47323206D01*
X20126154Y47315327D01*
X19959148Y47253881D01*
X19957040Y47252574D01*
X19957036Y47252572D01*
X19788504Y47148078D01*
X19786401Y47146774D01*
X19638720Y47007119D01*
X19637295Y47005084D01*
X19523562Y46842657D01*
X19523560Y46842653D01*
X19522137Y46840621D01*
X19441414Y46654081D01*
X19440908Y46651657D01*
X19440906Y46651652D01*
X19418201Y46542965D01*
X19399849Y46455120D01*
X19399500Y46448461D01*
X19399500Y45599200D01*
X18860500Y45599200D01*
X18860500Y46400800D01*
X18845120Y46552216D01*
X18784338Y46746172D01*
X18685797Y46923944D01*
X18553523Y47078271D01*
X18516204Y47107219D01*
X18394881Y47201326D01*
X18394882Y47201326D01*
X18392919Y47202848D01*
X18210545Y47292587D01*
X18013852Y47343822D01*
X18011380Y47343952D01*
X18011377Y47343952D01*
X17920356Y47348722D01*
X17810874Y47354459D01*
X17609903Y47324065D01*
X17607569Y47323206D01*
X17607568Y47323206D01*
X17586154Y47315327D01*
X17419148Y47253881D01*
X17417040Y47252574D01*
X17417036Y47252572D01*
X17248504Y47148078D01*
X17246401Y47146774D01*
X17098720Y47007119D01*
X17097295Y47005084D01*
X16983562Y46842657D01*
X16983560Y46842653D01*
X16982137Y46840621D01*
X16901414Y46654081D01*
X16900908Y46651657D01*
X16900906Y46651652D01*
X16878201Y46542965D01*
X16859849Y46455120D01*
X16859500Y46448461D01*
X16859500Y45599200D01*
X4214848Y45599200D01*
X4228042Y45609269D01*
X4228045Y45609272D01*
X4229458Y45610350D01*
X4230697Y45611618D01*
X4230701Y45611621D01*
X4415942Y45801114D01*
X4415945Y45801117D01*
X4417185Y45802386D01*
X4575225Y46019509D01*
X4700265Y46257172D01*
X4750549Y46399563D01*
X4789097Y46508723D01*
X4789098Y46508725D01*
X4789688Y46510397D01*
X4798398Y46554587D01*
X4841277Y46772135D01*
X4841278Y46772142D01*
X4841620Y46773878D01*
X4852509Y46992620D01*
X4854884Y47040321D01*
X4854884Y47040325D01*
X4854972Y47042095D01*
X4829466Y47309431D01*
X4828024Y47315327D01*
X4766056Y47568568D01*
X4765636Y47570285D01*
X4664818Y47819192D01*
X4571296Y47978915D01*
X4530021Y48049408D01*
X4530020Y48049409D01*
X4529125Y48050938D01*
X4361399Y48260669D01*
X4165154Y48443991D01*
X4163707Y48444995D01*
X4163703Y48444998D01*
X3949323Y48593719D01*
X3944501Y48597064D01*
X3704062Y48716680D01*
X3702380Y48717232D01*
X3702376Y48717233D01*
X3450556Y48799784D01*
X3450551Y48799785D01*
X3448874Y48800335D01*
X3447136Y48800637D01*
X3447131Y48800638D01*
X3185757Y48846020D01*
X3185758Y48846020D01*
X3184283Y48846276D01*
X3182788Y48846350D01*
X3182783Y48846351D01*
X3142148Y48848374D01*
X3099433Y48850500D01*
X2931777Y48850500D01*
X2930913Y48850437D01*
X2930904Y48850437D01*
X2733925Y48836145D01*
X2733918Y48836144D01*
X2732154Y48836016D01*
X2730420Y48835633D01*
X2730419Y48835633D01*
X2471653Y48778503D01*
X2471648Y48778502D01*
X2469920Y48778120D01*
X2218789Y48682975D01*
X2217247Y48682118D01*
X2217246Y48682118D01*
X2058099Y48593719D01*
X1984024Y48552574D01*
X1770542Y48389650D01*
X1769303Y48388382D01*
X1769299Y48388379D01*
X1584058Y48198886D01*
X1582815Y48197614D01*
X1424775Y47980491D01*
X1299735Y47742828D01*
X1299145Y47741157D01*
X1299144Y47741155D01*
X1293864Y47726203D01*
X1210312Y47489603D01*
X1209970Y47487866D01*
X1209968Y47487860D01*
X1158723Y47227865D01*
X1158722Y47227858D01*
X1158380Y47226122D01*
X1152487Y47107735D01*
X1145949Y46976400D01*
X1145028Y46957905D01*
X99996Y46957905D01*
X100000Y47073849D01*
X102387Y47087448D01*
X102445Y47089200D01*
X105088Y47096497D01*
X102937Y47103953D01*
X103063Y47107735D01*
X101946Y47119295D01*
X127773Y47411245D01*
X128540Y47416568D01*
X190147Y47723563D01*
X191493Y47728770D01*
X192895Y47733177D01*
X286376Y48027163D01*
X288285Y48032191D01*
X362265Y48198886D01*
X415302Y48318389D01*
X417746Y48323171D01*
X575361Y48593719D01*
X578319Y48598211D01*
X640444Y48682118D01*
X764644Y48849865D01*
X768075Y48854002D01*
X787896Y48875400D01*
X980855Y49083716D01*
X984711Y49087445D01*
X1221387Y49292455D01*
X1225640Y49295748D01*
X1483348Y49473577D01*
X1487936Y49476384D01*
X1763586Y49624898D01*
X1768453Y49627186D01*
X2058725Y49744597D01*
X2063814Y49746337D01*
X2214507Y49788782D01*
X2365205Y49831228D01*
X2370443Y49832398D01*
X2679327Y49883745D01*
X2684673Y49884334D01*
X2977322Y49900419D01*
X2988837Y49898918D01*
X2992619Y49898918D01*
X3000000Y49896520D01*
X3008454Y49899267D01*
X3023598Y49901666D01*
X25346731Y49900876D01*
G37*
%TD.AperFunction*%
%TD*%
M02*
