%TF.GenerationSoftware,KiCad,Pcbnew,(6.0.1)*%
%TF.CreationDate,2023-06-09T19:02:12+03:00*%
%TF.ProjectId,Radioless Allstar Node,52616469-6f6c-4657-9373-20416c6c7374,rev?*%
%TF.SameCoordinates,PX5f5e100PY5f5e100*%
%TF.FileFunction,Legend,Top*%
%TF.FilePolarity,Positive*%
%FSLAX46Y46*%
G04 Gerber Fmt 4.6, Leading zero omitted, Abs format (unit mm)*
G04 Created by KiCad (PCBNEW (6.0.1)) date 2023-06-09 19:02:12*
%MOMM*%
%LPD*%
G01*
G04 APERTURE LIST*
%ADD10C,0.200000*%
%ADD11C,0.150000*%
%ADD12C,0.130000*%
%ADD13C,0.120000*%
%ADD14C,0.127000*%
%ADD15C,0.250000*%
G04 APERTURE END LIST*
D10*
X42800000Y17200000D02*
G75*
G03*
X42800000Y17200000I-100000J0D01*
G01*
X10300000Y19400000D02*
G75*
G03*
X10300000Y19400000I-100000J0D01*
G01*
D11*
X43195238Y48580953D02*
X43290476Y48533334D01*
X43338095Y48485715D01*
X43385714Y48390477D01*
X43385714Y48342858D01*
X43338095Y48247620D01*
X43290476Y48200000D01*
X43195238Y48152381D01*
X43004761Y48152381D01*
X42909523Y48200000D01*
X42861904Y48247620D01*
X42814285Y48342858D01*
X42814285Y48390477D01*
X42861904Y48485715D01*
X42909523Y48533334D01*
X43004761Y48580953D01*
X43195238Y48580953D01*
X43290476Y48628572D01*
X43338095Y48676191D01*
X43385714Y48771429D01*
X43385714Y48961905D01*
X43338095Y49057143D01*
X43290476Y49104762D01*
X43195238Y49152381D01*
X43004761Y49152381D01*
X42909523Y49104762D01*
X42861904Y49057143D01*
X42814285Y48961905D01*
X42814285Y48771429D01*
X42861904Y48676191D01*
X42909523Y48628572D01*
X43004761Y48580953D01*
X9514285Y1947620D02*
X10085714Y1947620D01*
X9800000Y947620D02*
X9800000Y1947620D01*
X51219047Y20528572D02*
X51980952Y20528572D01*
X51600000Y20147620D02*
X51600000Y20909524D01*
X32614285Y49152381D02*
X33185714Y49152381D01*
X32900000Y49152381D02*
X32900000Y48152381D01*
X32995238Y48295239D01*
X33090476Y48390477D01*
X33185714Y48438096D01*
X37761904Y48152381D02*
X38238095Y48152381D01*
X38285714Y48628572D01*
X38238095Y48580953D01*
X38142857Y48533334D01*
X37904761Y48533334D01*
X37809523Y48580953D01*
X37761904Y48628572D01*
X37714285Y48723810D01*
X37714285Y48961905D01*
X37761904Y49057143D01*
X37809523Y49104762D01*
X37904761Y49152381D01*
X38142857Y49152381D01*
X38238095Y49104762D01*
X38285714Y49057143D01*
X51219047Y25528572D02*
X51980952Y25528572D01*
X40833333Y48152381D02*
X40166666Y48152381D01*
X40595238Y49152381D01*
X12014285Y995239D02*
X12157142Y947620D01*
X12395238Y947620D01*
X12490476Y995239D01*
X12538095Y1042858D01*
X12585714Y1138096D01*
X12585714Y1233334D01*
X12538095Y1328572D01*
X12490476Y1376191D01*
X12395238Y1423810D01*
X12204761Y1471429D01*
X12109523Y1519048D01*
X12061904Y1566667D01*
X12014285Y1661905D01*
X12014285Y1757143D01*
X12061904Y1852381D01*
X12109523Y1900000D01*
X12204761Y1947620D01*
X12442857Y1947620D01*
X12585714Y1900000D01*
X35685714Y48247620D02*
X35638095Y48200000D01*
X35542857Y48152381D01*
X35304761Y48152381D01*
X35209523Y48200000D01*
X35161904Y48247620D01*
X35114285Y48342858D01*
X35114285Y48438096D01*
X35161904Y48580953D01*
X35733333Y49152381D01*
X35114285Y49152381D01*
D12*
%TO.C,C7*%
X4266666Y9214286D02*
X4228571Y9176191D01*
X4114285Y9138096D01*
X4038095Y9138096D01*
X3923809Y9176191D01*
X3847619Y9252381D01*
X3809523Y9328572D01*
X3771428Y9480953D01*
X3771428Y9595239D01*
X3809523Y9747620D01*
X3847619Y9823810D01*
X3923809Y9900000D01*
X4038095Y9938096D01*
X4114285Y9938096D01*
X4228571Y9900000D01*
X4266666Y9861905D01*
X4533333Y9938096D02*
X5066666Y9938096D01*
X4723809Y9138096D01*
%TO.C,R9*%
X19561904Y40066667D02*
X19180952Y39800000D01*
X19561904Y39609524D02*
X18761904Y39609524D01*
X18761904Y39914286D01*
X18800000Y39990477D01*
X18838095Y40028572D01*
X18914285Y40066667D01*
X19028571Y40066667D01*
X19104761Y40028572D01*
X19142857Y39990477D01*
X19180952Y39914286D01*
X19180952Y39609524D01*
X19561904Y40447620D02*
X19561904Y40600000D01*
X19523809Y40676191D01*
X19485714Y40714286D01*
X19371428Y40790477D01*
X19219047Y40828572D01*
X18914285Y40828572D01*
X18838095Y40790477D01*
X18800000Y40752381D01*
X18761904Y40676191D01*
X18761904Y40523810D01*
X18800000Y40447620D01*
X18838095Y40409524D01*
X18914285Y40371429D01*
X19104761Y40371429D01*
X19180952Y40409524D01*
X19219047Y40447620D01*
X19257142Y40523810D01*
X19257142Y40676191D01*
X19219047Y40752381D01*
X19180952Y40790477D01*
X19104761Y40828572D01*
%TO.C,C22*%
X15985714Y41014286D02*
X15947619Y40976191D01*
X15833333Y40938096D01*
X15757142Y40938096D01*
X15642857Y40976191D01*
X15566666Y41052381D01*
X15528571Y41128572D01*
X15490476Y41280953D01*
X15490476Y41395239D01*
X15528571Y41547620D01*
X15566666Y41623810D01*
X15642857Y41700000D01*
X15757142Y41738096D01*
X15833333Y41738096D01*
X15947619Y41700000D01*
X15985714Y41661905D01*
X16290476Y41661905D02*
X16328571Y41700000D01*
X16404761Y41738096D01*
X16595238Y41738096D01*
X16671428Y41700000D01*
X16709523Y41661905D01*
X16747619Y41585715D01*
X16747619Y41509524D01*
X16709523Y41395239D01*
X16252380Y40938096D01*
X16747619Y40938096D01*
X17052380Y41661905D02*
X17090476Y41700000D01*
X17166666Y41738096D01*
X17357142Y41738096D01*
X17433333Y41700000D01*
X17471428Y41661905D01*
X17509523Y41585715D01*
X17509523Y41509524D01*
X17471428Y41395239D01*
X17014285Y40938096D01*
X17509523Y40938096D01*
%TO.C,D1*%
X46849523Y38108096D02*
X46849523Y38908096D01*
X47040000Y38908096D01*
X47154285Y38870000D01*
X47230476Y38793810D01*
X47268571Y38717620D01*
X47306666Y38565239D01*
X47306666Y38450953D01*
X47268571Y38298572D01*
X47230476Y38222381D01*
X47154285Y38146191D01*
X47040000Y38108096D01*
X46849523Y38108096D01*
X48068571Y38108096D02*
X47611428Y38108096D01*
X47840000Y38108096D02*
X47840000Y38908096D01*
X47763809Y38793810D01*
X47687619Y38717620D01*
X47611428Y38679524D01*
%TO.C,C10*%
X42785714Y21314286D02*
X42747619Y21276191D01*
X42633333Y21238096D01*
X42557142Y21238096D01*
X42442857Y21276191D01*
X42366666Y21352381D01*
X42328571Y21428572D01*
X42290476Y21580953D01*
X42290476Y21695239D01*
X42328571Y21847620D01*
X42366666Y21923810D01*
X42442857Y22000000D01*
X42557142Y22038096D01*
X42633333Y22038096D01*
X42747619Y22000000D01*
X42785714Y21961905D01*
X43547619Y21238096D02*
X43090476Y21238096D01*
X43319047Y21238096D02*
X43319047Y22038096D01*
X43242857Y21923810D01*
X43166666Y21847620D01*
X43090476Y21809524D01*
X44042857Y22038096D02*
X44119047Y22038096D01*
X44195238Y22000000D01*
X44233333Y21961905D01*
X44271428Y21885715D01*
X44309523Y21733334D01*
X44309523Y21542858D01*
X44271428Y21390477D01*
X44233333Y21314286D01*
X44195238Y21276191D01*
X44119047Y21238096D01*
X44042857Y21238096D01*
X43966666Y21276191D01*
X43928571Y21314286D01*
X43890476Y21390477D01*
X43852380Y21542858D01*
X43852380Y21733334D01*
X43890476Y21885715D01*
X43928571Y21961905D01*
X43966666Y22000000D01*
X44042857Y22038096D01*
%TO.C,C14*%
X24085714Y40085715D02*
X24123809Y40047620D01*
X24161904Y39933334D01*
X24161904Y39857143D01*
X24123809Y39742858D01*
X24047619Y39666667D01*
X23971428Y39628572D01*
X23819047Y39590477D01*
X23704761Y39590477D01*
X23552380Y39628572D01*
X23476190Y39666667D01*
X23400000Y39742858D01*
X23361904Y39857143D01*
X23361904Y39933334D01*
X23400000Y40047620D01*
X23438095Y40085715D01*
X24161904Y40847620D02*
X24161904Y40390477D01*
X24161904Y40619048D02*
X23361904Y40619048D01*
X23476190Y40542858D01*
X23552380Y40466667D01*
X23590476Y40390477D01*
X23628571Y41533334D02*
X24161904Y41533334D01*
X23323809Y41342858D02*
X23895238Y41152381D01*
X23895238Y41647620D01*
%TO.C,RV1*%
X10223809Y29138096D02*
X9957142Y29519048D01*
X9766666Y29138096D02*
X9766666Y29938096D01*
X10071428Y29938096D01*
X10147619Y29900000D01*
X10185714Y29861905D01*
X10223809Y29785715D01*
X10223809Y29671429D01*
X10185714Y29595239D01*
X10147619Y29557143D01*
X10071428Y29519048D01*
X9766666Y29519048D01*
X10452380Y29938096D02*
X10719047Y29138096D01*
X10985714Y29938096D01*
X11671428Y29138096D02*
X11214285Y29138096D01*
X11442857Y29138096D02*
X11442857Y29938096D01*
X11366666Y29823810D01*
X11290476Y29747620D01*
X11214285Y29709524D01*
%TO.C,R7*%
X44166666Y16038096D02*
X43900000Y16419048D01*
X43709523Y16038096D02*
X43709523Y16838096D01*
X44014285Y16838096D01*
X44090476Y16800000D01*
X44128571Y16761905D01*
X44166666Y16685715D01*
X44166666Y16571429D01*
X44128571Y16495239D01*
X44090476Y16457143D01*
X44014285Y16419048D01*
X43709523Y16419048D01*
X44433333Y16838096D02*
X44966666Y16838096D01*
X44623809Y16038096D01*
%TO.C,C18*%
X17985714Y21514286D02*
X17947619Y21476191D01*
X17833333Y21438096D01*
X17757142Y21438096D01*
X17642857Y21476191D01*
X17566666Y21552381D01*
X17528571Y21628572D01*
X17490476Y21780953D01*
X17490476Y21895239D01*
X17528571Y22047620D01*
X17566666Y22123810D01*
X17642857Y22200000D01*
X17757142Y22238096D01*
X17833333Y22238096D01*
X17947619Y22200000D01*
X17985714Y22161905D01*
X18747619Y21438096D02*
X18290476Y21438096D01*
X18519047Y21438096D02*
X18519047Y22238096D01*
X18442857Y22123810D01*
X18366666Y22047620D01*
X18290476Y22009524D01*
X19204761Y21895239D02*
X19128571Y21933334D01*
X19090476Y21971429D01*
X19052380Y22047620D01*
X19052380Y22085715D01*
X19090476Y22161905D01*
X19128571Y22200000D01*
X19204761Y22238096D01*
X19357142Y22238096D01*
X19433333Y22200000D01*
X19471428Y22161905D01*
X19509523Y22085715D01*
X19509523Y22047620D01*
X19471428Y21971429D01*
X19433333Y21933334D01*
X19357142Y21895239D01*
X19204761Y21895239D01*
X19128571Y21857143D01*
X19090476Y21819048D01*
X19052380Y21742858D01*
X19052380Y21590477D01*
X19090476Y21514286D01*
X19128571Y21476191D01*
X19204761Y21438096D01*
X19357142Y21438096D01*
X19433333Y21476191D01*
X19471428Y21514286D01*
X19509523Y21590477D01*
X19509523Y21742858D01*
X19471428Y21819048D01*
X19433333Y21857143D01*
X19357142Y21895239D01*
%TO.C,U2*%
X37790476Y15438096D02*
X37790476Y14790477D01*
X37828571Y14714286D01*
X37866666Y14676191D01*
X37942857Y14638096D01*
X38095238Y14638096D01*
X38171428Y14676191D01*
X38209523Y14714286D01*
X38247619Y14790477D01*
X38247619Y15438096D01*
X38590476Y15361905D02*
X38628571Y15400000D01*
X38704761Y15438096D01*
X38895238Y15438096D01*
X38971428Y15400000D01*
X39009523Y15361905D01*
X39047619Y15285715D01*
X39047619Y15209524D01*
X39009523Y15095239D01*
X38552380Y14638096D01*
X39047619Y14638096D01*
%TO.C,C25*%
X36385714Y19914286D02*
X36347619Y19876191D01*
X36233333Y19838096D01*
X36157142Y19838096D01*
X36042857Y19876191D01*
X35966666Y19952381D01*
X35928571Y20028572D01*
X35890476Y20180953D01*
X35890476Y20295239D01*
X35928571Y20447620D01*
X35966666Y20523810D01*
X36042857Y20600000D01*
X36157142Y20638096D01*
X36233333Y20638096D01*
X36347619Y20600000D01*
X36385714Y20561905D01*
X36690476Y20561905D02*
X36728571Y20600000D01*
X36804761Y20638096D01*
X36995238Y20638096D01*
X37071428Y20600000D01*
X37109523Y20561905D01*
X37147619Y20485715D01*
X37147619Y20409524D01*
X37109523Y20295239D01*
X36652380Y19838096D01*
X37147619Y19838096D01*
X37871428Y20638096D02*
X37490476Y20638096D01*
X37452380Y20257143D01*
X37490476Y20295239D01*
X37566666Y20333334D01*
X37757142Y20333334D01*
X37833333Y20295239D01*
X37871428Y20257143D01*
X37909523Y20180953D01*
X37909523Y19990477D01*
X37871428Y19914286D01*
X37833333Y19876191D01*
X37757142Y19838096D01*
X37566666Y19838096D01*
X37490476Y19876191D01*
X37452380Y19914286D01*
%TO.C,C1*%
X4566666Y15714286D02*
X4528571Y15676191D01*
X4414285Y15638096D01*
X4338095Y15638096D01*
X4223809Y15676191D01*
X4147619Y15752381D01*
X4109523Y15828572D01*
X4071428Y15980953D01*
X4071428Y16095239D01*
X4109523Y16247620D01*
X4147619Y16323810D01*
X4223809Y16400000D01*
X4338095Y16438096D01*
X4414285Y16438096D01*
X4528571Y16400000D01*
X4566666Y16361905D01*
X5328571Y15638096D02*
X4871428Y15638096D01*
X5100000Y15638096D02*
X5100000Y16438096D01*
X5023809Y16323810D01*
X4947619Y16247620D01*
X4871428Y16209524D01*
%TO.C,C8*%
X40866666Y11514286D02*
X40828571Y11476191D01*
X40714285Y11438096D01*
X40638095Y11438096D01*
X40523809Y11476191D01*
X40447619Y11552381D01*
X40409523Y11628572D01*
X40371428Y11780953D01*
X40371428Y11895239D01*
X40409523Y12047620D01*
X40447619Y12123810D01*
X40523809Y12200000D01*
X40638095Y12238096D01*
X40714285Y12238096D01*
X40828571Y12200000D01*
X40866666Y12161905D01*
X41323809Y11895239D02*
X41247619Y11933334D01*
X41209523Y11971429D01*
X41171428Y12047620D01*
X41171428Y12085715D01*
X41209523Y12161905D01*
X41247619Y12200000D01*
X41323809Y12238096D01*
X41476190Y12238096D01*
X41552380Y12200000D01*
X41590476Y12161905D01*
X41628571Y12085715D01*
X41628571Y12047620D01*
X41590476Y11971429D01*
X41552380Y11933334D01*
X41476190Y11895239D01*
X41323809Y11895239D01*
X41247619Y11857143D01*
X41209523Y11819048D01*
X41171428Y11742858D01*
X41171428Y11590477D01*
X41209523Y11514286D01*
X41247619Y11476191D01*
X41323809Y11438096D01*
X41476190Y11438096D01*
X41552380Y11476191D01*
X41590476Y11514286D01*
X41628571Y11590477D01*
X41628571Y11742858D01*
X41590476Y11819048D01*
X41552380Y11857143D01*
X41476190Y11895239D01*
%TO.C,R14*%
X47785714Y29138096D02*
X47519047Y29519048D01*
X47328571Y29138096D02*
X47328571Y29938096D01*
X47633333Y29938096D01*
X47709523Y29900000D01*
X47747619Y29861905D01*
X47785714Y29785715D01*
X47785714Y29671429D01*
X47747619Y29595239D01*
X47709523Y29557143D01*
X47633333Y29519048D01*
X47328571Y29519048D01*
X48547619Y29138096D02*
X48090476Y29138096D01*
X48319047Y29138096D02*
X48319047Y29938096D01*
X48242857Y29823810D01*
X48166666Y29747620D01*
X48090476Y29709524D01*
X49233333Y29671429D02*
X49233333Y29138096D01*
X49042857Y29976191D02*
X48852380Y29404762D01*
X49347619Y29404762D01*
%TO.C,C4*%
X10366666Y24714286D02*
X10328571Y24676191D01*
X10214285Y24638096D01*
X10138095Y24638096D01*
X10023809Y24676191D01*
X9947619Y24752381D01*
X9909523Y24828572D01*
X9871428Y24980953D01*
X9871428Y25095239D01*
X9909523Y25247620D01*
X9947619Y25323810D01*
X10023809Y25400000D01*
X10138095Y25438096D01*
X10214285Y25438096D01*
X10328571Y25400000D01*
X10366666Y25361905D01*
X11052380Y25171429D02*
X11052380Y24638096D01*
X10861904Y25476191D02*
X10671428Y24904762D01*
X11166666Y24904762D01*
%TO.C,R11*%
X20385714Y21438096D02*
X20119047Y21819048D01*
X19928571Y21438096D02*
X19928571Y22238096D01*
X20233333Y22238096D01*
X20309523Y22200000D01*
X20347619Y22161905D01*
X20385714Y22085715D01*
X20385714Y21971429D01*
X20347619Y21895239D01*
X20309523Y21857143D01*
X20233333Y21819048D01*
X19928571Y21819048D01*
X21147619Y21438096D02*
X20690476Y21438096D01*
X20919047Y21438096D02*
X20919047Y22238096D01*
X20842857Y22123810D01*
X20766666Y22047620D01*
X20690476Y22009524D01*
X21909523Y21438096D02*
X21452380Y21438096D01*
X21680952Y21438096D02*
X21680952Y22238096D01*
X21604761Y22123810D01*
X21528571Y22047620D01*
X21452380Y22009524D01*
%TO.C,R4*%
X11466666Y19438096D02*
X11200000Y19819048D01*
X11009523Y19438096D02*
X11009523Y20238096D01*
X11314285Y20238096D01*
X11390476Y20200000D01*
X11428571Y20161905D01*
X11466666Y20085715D01*
X11466666Y19971429D01*
X11428571Y19895239D01*
X11390476Y19857143D01*
X11314285Y19819048D01*
X11009523Y19819048D01*
X12152380Y19971429D02*
X12152380Y19438096D01*
X11961904Y20276191D02*
X11771428Y19704762D01*
X12266666Y19704762D01*
%TO.C,R2*%
X6166666Y19438096D02*
X5900000Y19819048D01*
X5709523Y19438096D02*
X5709523Y20238096D01*
X6014285Y20238096D01*
X6090476Y20200000D01*
X6128571Y20161905D01*
X6166666Y20085715D01*
X6166666Y19971429D01*
X6128571Y19895239D01*
X6090476Y19857143D01*
X6014285Y19819048D01*
X5709523Y19819048D01*
X6471428Y20161905D02*
X6509523Y20200000D01*
X6585714Y20238096D01*
X6776190Y20238096D01*
X6852380Y20200000D01*
X6890476Y20161905D01*
X6928571Y20085715D01*
X6928571Y20009524D01*
X6890476Y19895239D01*
X6433333Y19438096D01*
X6928571Y19438096D01*
D11*
%TO.C,U3*%
X28738095Y34147620D02*
X28738095Y33338096D01*
X28785714Y33242858D01*
X28833333Y33195239D01*
X28928571Y33147620D01*
X29119047Y33147620D01*
X29214285Y33195239D01*
X29261904Y33242858D01*
X29309523Y33338096D01*
X29309523Y34147620D01*
X29690476Y34147620D02*
X30309523Y34147620D01*
X29976190Y33766667D01*
X30119047Y33766667D01*
X30214285Y33719048D01*
X30261904Y33671429D01*
X30309523Y33576191D01*
X30309523Y33338096D01*
X30261904Y33242858D01*
X30214285Y33195239D01*
X30119047Y33147620D01*
X29833333Y33147620D01*
X29738095Y33195239D01*
X29690476Y33242858D01*
D12*
%TO.C,C6*%
X13466666Y9214286D02*
X13428571Y9176191D01*
X13314285Y9138096D01*
X13238095Y9138096D01*
X13123809Y9176191D01*
X13047619Y9252381D01*
X13009523Y9328572D01*
X12971428Y9480953D01*
X12971428Y9595239D01*
X13009523Y9747620D01*
X13047619Y9823810D01*
X13123809Y9900000D01*
X13238095Y9938096D01*
X13314285Y9938096D01*
X13428571Y9900000D01*
X13466666Y9861905D01*
X14152380Y9938096D02*
X14000000Y9938096D01*
X13923809Y9900000D01*
X13885714Y9861905D01*
X13809523Y9747620D01*
X13771428Y9595239D01*
X13771428Y9290477D01*
X13809523Y9214286D01*
X13847619Y9176191D01*
X13923809Y9138096D01*
X14076190Y9138096D01*
X14152380Y9176191D01*
X14190476Y9214286D01*
X14228571Y9290477D01*
X14228571Y9480953D01*
X14190476Y9557143D01*
X14152380Y9595239D01*
X14076190Y9633334D01*
X13923809Y9633334D01*
X13847619Y9595239D01*
X13809523Y9557143D01*
X13771428Y9480953D01*
D11*
%TO.C,C24*%
X7357142Y44642858D02*
X7309523Y44595239D01*
X7166666Y44547620D01*
X7071428Y44547620D01*
X6928571Y44595239D01*
X6833333Y44690477D01*
X6785714Y44785715D01*
X6738095Y44976191D01*
X6738095Y45119048D01*
X6785714Y45309524D01*
X6833333Y45404762D01*
X6928571Y45500000D01*
X7071428Y45547620D01*
X7166666Y45547620D01*
X7309523Y45500000D01*
X7357142Y45452381D01*
X7738095Y45452381D02*
X7785714Y45500000D01*
X7880952Y45547620D01*
X8119047Y45547620D01*
X8214285Y45500000D01*
X8261904Y45452381D01*
X8309523Y45357143D01*
X8309523Y45261905D01*
X8261904Y45119048D01*
X7690476Y44547620D01*
X8309523Y44547620D01*
X9166666Y45214286D02*
X9166666Y44547620D01*
X8928571Y45595239D02*
X8690476Y44880953D01*
X9309523Y44880953D01*
D12*
%TO.C,R3*%
X45966666Y16038096D02*
X45700000Y16419048D01*
X45509523Y16038096D02*
X45509523Y16838096D01*
X45814285Y16838096D01*
X45890476Y16800000D01*
X45928571Y16761905D01*
X45966666Y16685715D01*
X45966666Y16571429D01*
X45928571Y16495239D01*
X45890476Y16457143D01*
X45814285Y16419048D01*
X45509523Y16419048D01*
X46233333Y16838096D02*
X46728571Y16838096D01*
X46461904Y16533334D01*
X46576190Y16533334D01*
X46652380Y16495239D01*
X46690476Y16457143D01*
X46728571Y16380953D01*
X46728571Y16190477D01*
X46690476Y16114286D01*
X46652380Y16076191D01*
X46576190Y16038096D01*
X46347619Y16038096D01*
X46271428Y16076191D01*
X46233333Y16114286D01*
%TO.C,R6*%
X44466666Y11438096D02*
X44200000Y11819048D01*
X44009523Y11438096D02*
X44009523Y12238096D01*
X44314285Y12238096D01*
X44390476Y12200000D01*
X44428571Y12161905D01*
X44466666Y12085715D01*
X44466666Y11971429D01*
X44428571Y11895239D01*
X44390476Y11857143D01*
X44314285Y11819048D01*
X44009523Y11819048D01*
X45152380Y12238096D02*
X45000000Y12238096D01*
X44923809Y12200000D01*
X44885714Y12161905D01*
X44809523Y12047620D01*
X44771428Y11895239D01*
X44771428Y11590477D01*
X44809523Y11514286D01*
X44847619Y11476191D01*
X44923809Y11438096D01*
X45076190Y11438096D01*
X45152380Y11476191D01*
X45190476Y11514286D01*
X45228571Y11590477D01*
X45228571Y11780953D01*
X45190476Y11857143D01*
X45152380Y11895239D01*
X45076190Y11933334D01*
X44923809Y11933334D01*
X44847619Y11895239D01*
X44809523Y11857143D01*
X44771428Y11780953D01*
%TO.C,C26*%
X36385714Y28314286D02*
X36347619Y28276191D01*
X36233333Y28238096D01*
X36157142Y28238096D01*
X36042857Y28276191D01*
X35966666Y28352381D01*
X35928571Y28428572D01*
X35890476Y28580953D01*
X35890476Y28695239D01*
X35928571Y28847620D01*
X35966666Y28923810D01*
X36042857Y29000000D01*
X36157142Y29038096D01*
X36233333Y29038096D01*
X36347619Y29000000D01*
X36385714Y28961905D01*
X36690476Y28961905D02*
X36728571Y29000000D01*
X36804761Y29038096D01*
X36995238Y29038096D01*
X37071428Y29000000D01*
X37109523Y28961905D01*
X37147619Y28885715D01*
X37147619Y28809524D01*
X37109523Y28695239D01*
X36652380Y28238096D01*
X37147619Y28238096D01*
X37833333Y29038096D02*
X37680952Y29038096D01*
X37604761Y29000000D01*
X37566666Y28961905D01*
X37490476Y28847620D01*
X37452380Y28695239D01*
X37452380Y28390477D01*
X37490476Y28314286D01*
X37528571Y28276191D01*
X37604761Y28238096D01*
X37757142Y28238096D01*
X37833333Y28276191D01*
X37871428Y28314286D01*
X37909523Y28390477D01*
X37909523Y28580953D01*
X37871428Y28657143D01*
X37833333Y28695239D01*
X37757142Y28733334D01*
X37604761Y28733334D01*
X37528571Y28695239D01*
X37490476Y28657143D01*
X37452380Y28580953D01*
%TO.C,C15*%
X22485714Y40085715D02*
X22523809Y40047620D01*
X22561904Y39933334D01*
X22561904Y39857143D01*
X22523809Y39742858D01*
X22447619Y39666667D01*
X22371428Y39628572D01*
X22219047Y39590477D01*
X22104761Y39590477D01*
X21952380Y39628572D01*
X21876190Y39666667D01*
X21800000Y39742858D01*
X21761904Y39857143D01*
X21761904Y39933334D01*
X21800000Y40047620D01*
X21838095Y40085715D01*
X22561904Y40847620D02*
X22561904Y40390477D01*
X22561904Y40619048D02*
X21761904Y40619048D01*
X21876190Y40542858D01*
X21952380Y40466667D01*
X21990476Y40390477D01*
X21761904Y41571429D02*
X21761904Y41190477D01*
X22142857Y41152381D01*
X22104761Y41190477D01*
X22066666Y41266667D01*
X22066666Y41457143D01*
X22104761Y41533334D01*
X22142857Y41571429D01*
X22219047Y41609524D01*
X22409523Y41609524D01*
X22485714Y41571429D01*
X22523809Y41533334D01*
X22561904Y41457143D01*
X22561904Y41266667D01*
X22523809Y41190477D01*
X22485714Y41152381D01*
%TO.C,FB3*%
X28033333Y21857143D02*
X27766666Y21857143D01*
X27766666Y21438096D02*
X27766666Y22238096D01*
X28147619Y22238096D01*
X28719047Y21857143D02*
X28833333Y21819048D01*
X28871428Y21780953D01*
X28909523Y21704762D01*
X28909523Y21590477D01*
X28871428Y21514286D01*
X28833333Y21476191D01*
X28757142Y21438096D01*
X28452380Y21438096D01*
X28452380Y22238096D01*
X28719047Y22238096D01*
X28795238Y22200000D01*
X28833333Y22161905D01*
X28871428Y22085715D01*
X28871428Y22009524D01*
X28833333Y21933334D01*
X28795238Y21895239D01*
X28719047Y21857143D01*
X28452380Y21857143D01*
X29176190Y22238096D02*
X29671428Y22238096D01*
X29404761Y21933334D01*
X29519047Y21933334D01*
X29595238Y21895239D01*
X29633333Y21857143D01*
X29671428Y21780953D01*
X29671428Y21590477D01*
X29633333Y21514286D01*
X29595238Y21476191D01*
X29519047Y21438096D01*
X29290476Y21438096D01*
X29214285Y21476191D01*
X29176190Y21514286D01*
%TO.C,C13*%
X25585714Y40085715D02*
X25623809Y40047620D01*
X25661904Y39933334D01*
X25661904Y39857143D01*
X25623809Y39742858D01*
X25547619Y39666667D01*
X25471428Y39628572D01*
X25319047Y39590477D01*
X25204761Y39590477D01*
X25052380Y39628572D01*
X24976190Y39666667D01*
X24900000Y39742858D01*
X24861904Y39857143D01*
X24861904Y39933334D01*
X24900000Y40047620D01*
X24938095Y40085715D01*
X25661904Y40847620D02*
X25661904Y40390477D01*
X25661904Y40619048D02*
X24861904Y40619048D01*
X24976190Y40542858D01*
X25052380Y40466667D01*
X25090476Y40390477D01*
X24861904Y41114286D02*
X24861904Y41609524D01*
X25166666Y41342858D01*
X25166666Y41457143D01*
X25204761Y41533334D01*
X25242857Y41571429D01*
X25319047Y41609524D01*
X25509523Y41609524D01*
X25585714Y41571429D01*
X25623809Y41533334D01*
X25661904Y41457143D01*
X25661904Y41228572D01*
X25623809Y41152381D01*
X25585714Y41114286D01*
%TO.C,C16*%
X20985714Y40085715D02*
X21023809Y40047620D01*
X21061904Y39933334D01*
X21061904Y39857143D01*
X21023809Y39742858D01*
X20947619Y39666667D01*
X20871428Y39628572D01*
X20719047Y39590477D01*
X20604761Y39590477D01*
X20452380Y39628572D01*
X20376190Y39666667D01*
X20300000Y39742858D01*
X20261904Y39857143D01*
X20261904Y39933334D01*
X20300000Y40047620D01*
X20338095Y40085715D01*
X21061904Y40847620D02*
X21061904Y40390477D01*
X21061904Y40619048D02*
X20261904Y40619048D01*
X20376190Y40542858D01*
X20452380Y40466667D01*
X20490476Y40390477D01*
X20261904Y41533334D02*
X20261904Y41380953D01*
X20300000Y41304762D01*
X20338095Y41266667D01*
X20452380Y41190477D01*
X20604761Y41152381D01*
X20909523Y41152381D01*
X20985714Y41190477D01*
X21023809Y41228572D01*
X21061904Y41304762D01*
X21061904Y41457143D01*
X21023809Y41533334D01*
X20985714Y41571429D01*
X20909523Y41609524D01*
X20719047Y41609524D01*
X20642857Y41571429D01*
X20604761Y41533334D01*
X20566666Y41457143D01*
X20566666Y41304762D01*
X20604761Y41228572D01*
X20642857Y41190477D01*
X20719047Y41152381D01*
%TO.C,C9*%
X42666666Y11514286D02*
X42628571Y11476191D01*
X42514285Y11438096D01*
X42438095Y11438096D01*
X42323809Y11476191D01*
X42247619Y11552381D01*
X42209523Y11628572D01*
X42171428Y11780953D01*
X42171428Y11895239D01*
X42209523Y12047620D01*
X42247619Y12123810D01*
X42323809Y12200000D01*
X42438095Y12238096D01*
X42514285Y12238096D01*
X42628571Y12200000D01*
X42666666Y12161905D01*
X43047619Y11438096D02*
X43200000Y11438096D01*
X43276190Y11476191D01*
X43314285Y11514286D01*
X43390476Y11628572D01*
X43428571Y11780953D01*
X43428571Y12085715D01*
X43390476Y12161905D01*
X43352380Y12200000D01*
X43276190Y12238096D01*
X43123809Y12238096D01*
X43047619Y12200000D01*
X43009523Y12161905D01*
X42971428Y12085715D01*
X42971428Y11895239D01*
X43009523Y11819048D01*
X43047619Y11780953D01*
X43123809Y11742858D01*
X43276190Y11742858D01*
X43352380Y11780953D01*
X43390476Y11819048D01*
X43428571Y11895239D01*
%TO.C,FB1*%
X7133333Y11557143D02*
X6866666Y11557143D01*
X6866666Y11138096D02*
X6866666Y11938096D01*
X7247619Y11938096D01*
X7819047Y11557143D02*
X7933333Y11519048D01*
X7971428Y11480953D01*
X8009523Y11404762D01*
X8009523Y11290477D01*
X7971428Y11214286D01*
X7933333Y11176191D01*
X7857142Y11138096D01*
X7552380Y11138096D01*
X7552380Y11938096D01*
X7819047Y11938096D01*
X7895238Y11900000D01*
X7933333Y11861905D01*
X7971428Y11785715D01*
X7971428Y11709524D01*
X7933333Y11633334D01*
X7895238Y11595239D01*
X7819047Y11557143D01*
X7552380Y11557143D01*
X8771428Y11138096D02*
X8314285Y11138096D01*
X8542857Y11138096D02*
X8542857Y11938096D01*
X8466666Y11823810D01*
X8390476Y11747620D01*
X8314285Y11709524D01*
%TO.C,C11*%
X47685714Y16114286D02*
X47647619Y16076191D01*
X47533333Y16038096D01*
X47457142Y16038096D01*
X47342857Y16076191D01*
X47266666Y16152381D01*
X47228571Y16228572D01*
X47190476Y16380953D01*
X47190476Y16495239D01*
X47228571Y16647620D01*
X47266666Y16723810D01*
X47342857Y16800000D01*
X47457142Y16838096D01*
X47533333Y16838096D01*
X47647619Y16800000D01*
X47685714Y16761905D01*
X48447619Y16038096D02*
X47990476Y16038096D01*
X48219047Y16038096D02*
X48219047Y16838096D01*
X48142857Y16723810D01*
X48066666Y16647620D01*
X47990476Y16609524D01*
X49209523Y16038096D02*
X48752380Y16038096D01*
X48980952Y16038096D02*
X48980952Y16838096D01*
X48904761Y16723810D01*
X48828571Y16647620D01*
X48752380Y16609524D01*
%TO.C,R12*%
X22985714Y21438096D02*
X22719047Y21819048D01*
X22528571Y21438096D02*
X22528571Y22238096D01*
X22833333Y22238096D01*
X22909523Y22200000D01*
X22947619Y22161905D01*
X22985714Y22085715D01*
X22985714Y21971429D01*
X22947619Y21895239D01*
X22909523Y21857143D01*
X22833333Y21819048D01*
X22528571Y21819048D01*
X23747619Y21438096D02*
X23290476Y21438096D01*
X23519047Y21438096D02*
X23519047Y22238096D01*
X23442857Y22123810D01*
X23366666Y22047620D01*
X23290476Y22009524D01*
X24052380Y22161905D02*
X24090476Y22200000D01*
X24166666Y22238096D01*
X24357142Y22238096D01*
X24433333Y22200000D01*
X24471428Y22161905D01*
X24509523Y22085715D01*
X24509523Y22009524D01*
X24471428Y21895239D01*
X24014285Y21438096D01*
X24509523Y21438096D01*
%TO.C,C17*%
X12985714Y34314286D02*
X12947619Y34276191D01*
X12833333Y34238096D01*
X12757142Y34238096D01*
X12642857Y34276191D01*
X12566666Y34352381D01*
X12528571Y34428572D01*
X12490476Y34580953D01*
X12490476Y34695239D01*
X12528571Y34847620D01*
X12566666Y34923810D01*
X12642857Y35000000D01*
X12757142Y35038096D01*
X12833333Y35038096D01*
X12947619Y35000000D01*
X12985714Y34961905D01*
X13747619Y34238096D02*
X13290476Y34238096D01*
X13519047Y34238096D02*
X13519047Y35038096D01*
X13442857Y34923810D01*
X13366666Y34847620D01*
X13290476Y34809524D01*
X14014285Y35038096D02*
X14547619Y35038096D01*
X14204761Y34238096D01*
%TO.C,C2*%
X40966666Y21314286D02*
X40928571Y21276191D01*
X40814285Y21238096D01*
X40738095Y21238096D01*
X40623809Y21276191D01*
X40547619Y21352381D01*
X40509523Y21428572D01*
X40471428Y21580953D01*
X40471428Y21695239D01*
X40509523Y21847620D01*
X40547619Y21923810D01*
X40623809Y22000000D01*
X40738095Y22038096D01*
X40814285Y22038096D01*
X40928571Y22000000D01*
X40966666Y21961905D01*
X41271428Y21961905D02*
X41309523Y22000000D01*
X41385714Y22038096D01*
X41576190Y22038096D01*
X41652380Y22000000D01*
X41690476Y21961905D01*
X41728571Y21885715D01*
X41728571Y21809524D01*
X41690476Y21695239D01*
X41233333Y21238096D01*
X41728571Y21238096D01*
%TO.C,FB2*%
X9533333Y11557143D02*
X9266666Y11557143D01*
X9266666Y11138096D02*
X9266666Y11938096D01*
X9647619Y11938096D01*
X10219047Y11557143D02*
X10333333Y11519048D01*
X10371428Y11480953D01*
X10409523Y11404762D01*
X10409523Y11290477D01*
X10371428Y11214286D01*
X10333333Y11176191D01*
X10257142Y11138096D01*
X9952380Y11138096D01*
X9952380Y11938096D01*
X10219047Y11938096D01*
X10295238Y11900000D01*
X10333333Y11861905D01*
X10371428Y11785715D01*
X10371428Y11709524D01*
X10333333Y11633334D01*
X10295238Y11595239D01*
X10219047Y11557143D01*
X9952380Y11557143D01*
X10714285Y11861905D02*
X10752380Y11900000D01*
X10828571Y11938096D01*
X11019047Y11938096D01*
X11095238Y11900000D01*
X11133333Y11861905D01*
X11171428Y11785715D01*
X11171428Y11709524D01*
X11133333Y11595239D01*
X10676190Y11138096D01*
X11171428Y11138096D01*
%TO.C,C5*%
X4866666Y24714286D02*
X4828571Y24676191D01*
X4714285Y24638096D01*
X4638095Y24638096D01*
X4523809Y24676191D01*
X4447619Y24752381D01*
X4409523Y24828572D01*
X4371428Y24980953D01*
X4371428Y25095239D01*
X4409523Y25247620D01*
X4447619Y25323810D01*
X4523809Y25400000D01*
X4638095Y25438096D01*
X4714285Y25438096D01*
X4828571Y25400000D01*
X4866666Y25361905D01*
X5590476Y25438096D02*
X5209523Y25438096D01*
X5171428Y25057143D01*
X5209523Y25095239D01*
X5285714Y25133334D01*
X5476190Y25133334D01*
X5552380Y25095239D01*
X5590476Y25057143D01*
X5628571Y24980953D01*
X5628571Y24790477D01*
X5590476Y24714286D01*
X5552380Y24676191D01*
X5476190Y24638096D01*
X5285714Y24638096D01*
X5209523Y24676191D01*
X5171428Y24714286D01*
%TO.C,C12*%
X38385714Y21314286D02*
X38347619Y21276191D01*
X38233333Y21238096D01*
X38157142Y21238096D01*
X38042857Y21276191D01*
X37966666Y21352381D01*
X37928571Y21428572D01*
X37890476Y21580953D01*
X37890476Y21695239D01*
X37928571Y21847620D01*
X37966666Y21923810D01*
X38042857Y22000000D01*
X38157142Y22038096D01*
X38233333Y22038096D01*
X38347619Y22000000D01*
X38385714Y21961905D01*
X39147619Y21238096D02*
X38690476Y21238096D01*
X38919047Y21238096D02*
X38919047Y22038096D01*
X38842857Y21923810D01*
X38766666Y21847620D01*
X38690476Y21809524D01*
X39452380Y21961905D02*
X39490476Y22000000D01*
X39566666Y22038096D01*
X39757142Y22038096D01*
X39833333Y22000000D01*
X39871428Y21961905D01*
X39909523Y21885715D01*
X39909523Y21809524D01*
X39871428Y21695239D01*
X39414285Y21238096D01*
X39909523Y21238096D01*
D11*
%TO.C,Y1*%
X29073809Y23223810D02*
X29073809Y22747620D01*
X28740476Y23747620D02*
X29073809Y23223810D01*
X29407142Y23747620D01*
X30264285Y22747620D02*
X29692857Y22747620D01*
X29978571Y22747620D02*
X29978571Y23747620D01*
X29883333Y23604762D01*
X29788095Y23509524D01*
X29692857Y23461905D01*
D12*
%TO.C,R13*%
X47285714Y41638096D02*
X47019047Y42019048D01*
X46828571Y41638096D02*
X46828571Y42438096D01*
X47133333Y42438096D01*
X47209523Y42400000D01*
X47247619Y42361905D01*
X47285714Y42285715D01*
X47285714Y42171429D01*
X47247619Y42095239D01*
X47209523Y42057143D01*
X47133333Y42019048D01*
X46828571Y42019048D01*
X48047619Y41638096D02*
X47590476Y41638096D01*
X47819047Y41638096D02*
X47819047Y42438096D01*
X47742857Y42323810D01*
X47666666Y42247620D01*
X47590476Y42209524D01*
X48314285Y42438096D02*
X48809523Y42438096D01*
X48542857Y42133334D01*
X48657142Y42133334D01*
X48733333Y42095239D01*
X48771428Y42057143D01*
X48809523Y41980953D01*
X48809523Y41790477D01*
X48771428Y41714286D01*
X48733333Y41676191D01*
X48657142Y41638096D01*
X48428571Y41638096D01*
X48352380Y41676191D01*
X48314285Y41714286D01*
%TO.C,C21*%
X34885714Y32714286D02*
X34847619Y32676191D01*
X34733333Y32638096D01*
X34657142Y32638096D01*
X34542857Y32676191D01*
X34466666Y32752381D01*
X34428571Y32828572D01*
X34390476Y32980953D01*
X34390476Y33095239D01*
X34428571Y33247620D01*
X34466666Y33323810D01*
X34542857Y33400000D01*
X34657142Y33438096D01*
X34733333Y33438096D01*
X34847619Y33400000D01*
X34885714Y33361905D01*
X35190476Y33361905D02*
X35228571Y33400000D01*
X35304761Y33438096D01*
X35495238Y33438096D01*
X35571428Y33400000D01*
X35609523Y33361905D01*
X35647619Y33285715D01*
X35647619Y33209524D01*
X35609523Y33095239D01*
X35152380Y32638096D01*
X35647619Y32638096D01*
X36409523Y32638096D02*
X35952380Y32638096D01*
X36180952Y32638096D02*
X36180952Y33438096D01*
X36104761Y33323810D01*
X36028571Y33247620D01*
X35952380Y33209524D01*
%TO.C,C19*%
X25385714Y21514286D02*
X25347619Y21476191D01*
X25233333Y21438096D01*
X25157142Y21438096D01*
X25042857Y21476191D01*
X24966666Y21552381D01*
X24928571Y21628572D01*
X24890476Y21780953D01*
X24890476Y21895239D01*
X24928571Y22047620D01*
X24966666Y22123810D01*
X25042857Y22200000D01*
X25157142Y22238096D01*
X25233333Y22238096D01*
X25347619Y22200000D01*
X25385714Y22161905D01*
X26147619Y21438096D02*
X25690476Y21438096D01*
X25919047Y21438096D02*
X25919047Y22238096D01*
X25842857Y22123810D01*
X25766666Y22047620D01*
X25690476Y22009524D01*
X26528571Y21438096D02*
X26680952Y21438096D01*
X26757142Y21476191D01*
X26795238Y21514286D01*
X26871428Y21628572D01*
X26909523Y21780953D01*
X26909523Y22085715D01*
X26871428Y22161905D01*
X26833333Y22200000D01*
X26757142Y22238096D01*
X26604761Y22238096D01*
X26528571Y22200000D01*
X26490476Y22161905D01*
X26452380Y22085715D01*
X26452380Y21895239D01*
X26490476Y21819048D01*
X26528571Y21780953D01*
X26604761Y21742858D01*
X26757142Y21742858D01*
X26833333Y21780953D01*
X26871428Y21819048D01*
X26909523Y21895239D01*
%TO.C,R1*%
X8866666Y19438096D02*
X8600000Y19819048D01*
X8409523Y19438096D02*
X8409523Y20238096D01*
X8714285Y20238096D01*
X8790476Y20200000D01*
X8828571Y20161905D01*
X8866666Y20085715D01*
X8866666Y19971429D01*
X8828571Y19895239D01*
X8790476Y19857143D01*
X8714285Y19819048D01*
X8409523Y19819048D01*
X9628571Y19438096D02*
X9171428Y19438096D01*
X9400000Y19438096D02*
X9400000Y20238096D01*
X9323809Y20123810D01*
X9247619Y20047620D01*
X9171428Y20009524D01*
%TO.C,C23*%
X34885714Y34314286D02*
X34847619Y34276191D01*
X34733333Y34238096D01*
X34657142Y34238096D01*
X34542857Y34276191D01*
X34466666Y34352381D01*
X34428571Y34428572D01*
X34390476Y34580953D01*
X34390476Y34695239D01*
X34428571Y34847620D01*
X34466666Y34923810D01*
X34542857Y35000000D01*
X34657142Y35038096D01*
X34733333Y35038096D01*
X34847619Y35000000D01*
X34885714Y34961905D01*
X35190476Y34961905D02*
X35228571Y35000000D01*
X35304761Y35038096D01*
X35495238Y35038096D01*
X35571428Y35000000D01*
X35609523Y34961905D01*
X35647619Y34885715D01*
X35647619Y34809524D01*
X35609523Y34695239D01*
X35152380Y34238096D01*
X35647619Y34238096D01*
X35914285Y35038096D02*
X36409523Y35038096D01*
X36142857Y34733334D01*
X36257142Y34733334D01*
X36333333Y34695239D01*
X36371428Y34657143D01*
X36409523Y34580953D01*
X36409523Y34390477D01*
X36371428Y34314286D01*
X36333333Y34276191D01*
X36257142Y34238096D01*
X36028571Y34238096D01*
X35952380Y34276191D01*
X35914285Y34314286D01*
%TO.C,R10*%
X15185714Y21438096D02*
X14919047Y21819048D01*
X14728571Y21438096D02*
X14728571Y22238096D01*
X15033333Y22238096D01*
X15109523Y22200000D01*
X15147619Y22161905D01*
X15185714Y22085715D01*
X15185714Y21971429D01*
X15147619Y21895239D01*
X15109523Y21857143D01*
X15033333Y21819048D01*
X14728571Y21819048D01*
X15947619Y21438096D02*
X15490476Y21438096D01*
X15719047Y21438096D02*
X15719047Y22238096D01*
X15642857Y22123810D01*
X15566666Y22047620D01*
X15490476Y22009524D01*
X16442857Y22238096D02*
X16519047Y22238096D01*
X16595238Y22200000D01*
X16633333Y22161905D01*
X16671428Y22085715D01*
X16709523Y21933334D01*
X16709523Y21742858D01*
X16671428Y21590477D01*
X16633333Y21514286D01*
X16595238Y21476191D01*
X16519047Y21438096D01*
X16442857Y21438096D01*
X16366666Y21476191D01*
X16328571Y21514286D01*
X16290476Y21590477D01*
X16252380Y21742858D01*
X16252380Y21933334D01*
X16290476Y22085715D01*
X16328571Y22161905D01*
X16366666Y22200000D01*
X16442857Y22238096D01*
%TO.C,C20*%
X12985714Y32714286D02*
X12947619Y32676191D01*
X12833333Y32638096D01*
X12757142Y32638096D01*
X12642857Y32676191D01*
X12566666Y32752381D01*
X12528571Y32828572D01*
X12490476Y32980953D01*
X12490476Y33095239D01*
X12528571Y33247620D01*
X12566666Y33323810D01*
X12642857Y33400000D01*
X12757142Y33438096D01*
X12833333Y33438096D01*
X12947619Y33400000D01*
X12985714Y33361905D01*
X13290476Y33361905D02*
X13328571Y33400000D01*
X13404761Y33438096D01*
X13595238Y33438096D01*
X13671428Y33400000D01*
X13709523Y33361905D01*
X13747619Y33285715D01*
X13747619Y33209524D01*
X13709523Y33095239D01*
X13252380Y32638096D01*
X13747619Y32638096D01*
X14242857Y33438096D02*
X14319047Y33438096D01*
X14395238Y33400000D01*
X14433333Y33361905D01*
X14471428Y33285715D01*
X14509523Y33133334D01*
X14509523Y32942858D01*
X14471428Y32790477D01*
X14433333Y32714286D01*
X14395238Y32676191D01*
X14319047Y32638096D01*
X14242857Y32638096D01*
X14166666Y32676191D01*
X14128571Y32714286D01*
X14090476Y32790477D01*
X14052380Y32942858D01*
X14052380Y33133334D01*
X14090476Y33285715D01*
X14128571Y33361905D01*
X14166666Y33400000D01*
X14242857Y33438096D01*
%TO.C,D2*%
X50009523Y29138096D02*
X50009523Y29938096D01*
X50200000Y29938096D01*
X50314285Y29900000D01*
X50390476Y29823810D01*
X50428571Y29747620D01*
X50466666Y29595239D01*
X50466666Y29480953D01*
X50428571Y29328572D01*
X50390476Y29252381D01*
X50314285Y29176191D01*
X50200000Y29138096D01*
X50009523Y29138096D01*
X50771428Y29861905D02*
X50809523Y29900000D01*
X50885714Y29938096D01*
X51076190Y29938096D01*
X51152380Y29900000D01*
X51190476Y29861905D01*
X51228571Y29785715D01*
X51228571Y29709524D01*
X51190476Y29595239D01*
X50733333Y29138096D01*
X51228571Y29138096D01*
%TO.C,R8*%
X27161904Y40066667D02*
X26780952Y39800000D01*
X27161904Y39609524D02*
X26361904Y39609524D01*
X26361904Y39914286D01*
X26400000Y39990477D01*
X26438095Y40028572D01*
X26514285Y40066667D01*
X26628571Y40066667D01*
X26704761Y40028572D01*
X26742857Y39990477D01*
X26780952Y39914286D01*
X26780952Y39609524D01*
X26704761Y40523810D02*
X26666666Y40447620D01*
X26628571Y40409524D01*
X26552380Y40371429D01*
X26514285Y40371429D01*
X26438095Y40409524D01*
X26400000Y40447620D01*
X26361904Y40523810D01*
X26361904Y40676191D01*
X26400000Y40752381D01*
X26438095Y40790477D01*
X26514285Y40828572D01*
X26552380Y40828572D01*
X26628571Y40790477D01*
X26666666Y40752381D01*
X26704761Y40676191D01*
X26704761Y40523810D01*
X26742857Y40447620D01*
X26780952Y40409524D01*
X26857142Y40371429D01*
X27009523Y40371429D01*
X27085714Y40409524D01*
X27123809Y40447620D01*
X27161904Y40523810D01*
X27161904Y40676191D01*
X27123809Y40752381D01*
X27085714Y40790477D01*
X27009523Y40828572D01*
X26857142Y40828572D01*
X26780952Y40790477D01*
X26742857Y40752381D01*
X26704761Y40676191D01*
%TO.C,C3*%
X39066666Y11514286D02*
X39028571Y11476191D01*
X38914285Y11438096D01*
X38838095Y11438096D01*
X38723809Y11476191D01*
X38647619Y11552381D01*
X38609523Y11628572D01*
X38571428Y11780953D01*
X38571428Y11895239D01*
X38609523Y12047620D01*
X38647619Y12123810D01*
X38723809Y12200000D01*
X38838095Y12238096D01*
X38914285Y12238096D01*
X39028571Y12200000D01*
X39066666Y12161905D01*
X39333333Y12238096D02*
X39828571Y12238096D01*
X39561904Y11933334D01*
X39676190Y11933334D01*
X39752380Y11895239D01*
X39790476Y11857143D01*
X39828571Y11780953D01*
X39828571Y11590477D01*
X39790476Y11514286D01*
X39752380Y11476191D01*
X39676190Y11438096D01*
X39447619Y11438096D01*
X39371428Y11476191D01*
X39333333Y11514286D01*
D11*
%TO.C,U1*%
X11038095Y16547620D02*
X11038095Y15738096D01*
X11085714Y15642858D01*
X11133333Y15595239D01*
X11228571Y15547620D01*
X11419047Y15547620D01*
X11514285Y15595239D01*
X11561904Y15642858D01*
X11609523Y15738096D01*
X11609523Y16547620D01*
X12609523Y15547620D02*
X12038095Y15547620D01*
X12323809Y15547620D02*
X12323809Y16547620D01*
X12228571Y16404762D01*
X12133333Y16309524D01*
X12038095Y16261905D01*
D13*
%TO.C,J3*%
X26450000Y17497500D02*
X26950000Y16997500D01*
X19540000Y57500D02*
X19540000Y8417500D01*
X26950000Y16997500D02*
X27450000Y17497500D01*
X31860000Y8417500D02*
X31860000Y57500D01*
X19540000Y16777500D02*
X19540000Y12517500D01*
X31860000Y57500D02*
X19540000Y57500D01*
X31860000Y16777500D02*
X19540000Y16777500D01*
X27450000Y17497500D02*
X26450000Y17497500D01*
X31860000Y12517500D02*
X31860000Y16777500D01*
%TO.C,C7*%
X6510000Y9359420D02*
X6510000Y9640580D01*
X5490000Y9359420D02*
X5490000Y9640580D01*
%TO.C,R9*%
X18677500Y37362742D02*
X18677500Y37837258D01*
X19722500Y37362742D02*
X19722500Y37837258D01*
%TO.C,C22*%
X17410000Y37688748D02*
X17410000Y39111252D01*
X15590000Y37688748D02*
X15590000Y39111252D01*
%TO.C,D1*%
X51480000Y36910000D02*
X51636000Y36910000D01*
X49164000Y36910000D02*
X49320000Y36910000D01*
X51480000Y37429039D02*
G75*
G03*
X51479837Y39511130I-1080000J1040961D01*
G01*
X49321392Y40142335D02*
G75*
G03*
X49164484Y36910000I1078609J-1672335D01*
G01*
X49320163Y39511130D02*
G75*
G03*
X49320000Y37429039I1079837J-1041130D01*
G01*
X51635516Y36910000D02*
G75*
G03*
X51478608Y40142335I-1235517J1560000D01*
G01*
%TO.C,C10*%
X42290000Y19359420D02*
X42290000Y19640580D01*
X43310000Y19359420D02*
X43310000Y19640580D01*
%TO.C,C14*%
X24310000Y37459420D02*
X24310000Y37740580D01*
X23290000Y37459420D02*
X23290000Y37740580D01*
%TO.C,RV1*%
X9400000Y31400000D02*
X9400000Y32100000D01*
X9200000Y27600000D02*
X8600000Y27600000D01*
X6000000Y27600000D02*
X6600000Y27600000D01*
X7800000Y31600000D02*
X7400000Y31600000D01*
X9400000Y32100000D02*
X8700000Y32100000D01*
X6000000Y30500000D02*
X6000000Y27600000D01*
X9200000Y30500000D02*
X9200000Y27600000D01*
%TO.C,R7*%
X43877500Y14437258D02*
X43877500Y13962742D01*
X44922500Y14437258D02*
X44922500Y13962742D01*
%TO.C,C18*%
X19210000Y19459420D02*
X19210000Y19740580D01*
X18190000Y19459420D02*
X18190000Y19740580D01*
D11*
%TO.C,U2*%
X39475000Y16500000D02*
X39475000Y13500000D01*
X42725000Y15000000D02*
X42725000Y13500000D01*
D13*
%TO.C,C25*%
X36390000Y22259420D02*
X36390000Y22540580D01*
X37410000Y22259420D02*
X37410000Y22540580D01*
%TO.C,C1*%
X5690000Y15859420D02*
X5690000Y16140580D01*
X6710000Y15859420D02*
X6710000Y16140580D01*
%TO.C,C8*%
X40490000Y9659420D02*
X40490000Y9940580D01*
X41510000Y9659420D02*
X41510000Y9940580D01*
%TO.C,R14*%
X48077500Y32237258D02*
X48077500Y31762742D01*
X49122500Y32237258D02*
X49122500Y31762742D01*
%TO.C,C4*%
X8490000Y25140580D02*
X8490000Y24859420D01*
X9510000Y25140580D02*
X9510000Y24859420D01*
%TO.C,R11*%
X21222500Y19362742D02*
X21222500Y19837258D01*
X20177500Y19362742D02*
X20177500Y19837258D01*
%TO.C,R4*%
X10977500Y22137258D02*
X10977500Y21662742D01*
X12022500Y22137258D02*
X12022500Y21662742D01*
%TO.C,kibuzzard-6481F34A*%
G36*
X6444827Y7374065D02*
G01*
X15555173Y7374065D01*
X15555173Y5825935D01*
X6444827Y5825935D01*
X6444827Y6074220D01*
X6762327Y6074220D01*
X6893772Y6016118D01*
X6996166Y5992543D01*
X7128087Y5984685D01*
X7261755Y5994739D01*
X7314868Y6009450D01*
X7741497Y6009450D01*
X7975812Y6009450D01*
X8676852Y6009450D01*
X8911167Y6009450D01*
X8911167Y6548565D01*
X9011180Y6440933D01*
X9062377Y6374734D01*
X9111192Y6303772D01*
X9156674Y6229478D01*
X9197870Y6153278D01*
X9257877Y6009450D01*
X9522672Y6009450D01*
X9646497Y6009450D01*
X9880812Y6009450D01*
X9880812Y6443790D01*
X10002732Y6443790D01*
X10067264Y6335919D01*
X10127510Y6229478D01*
X10182041Y6121607D01*
X10229427Y6009450D01*
X10475172Y6009450D01*
X10440359Y6089460D01*
X11528637Y6089460D01*
X11663892Y6015165D01*
X11753904Y5992305D01*
X11863917Y5984685D01*
X11969645Y5993019D01*
X12027856Y6009450D01*
X12418272Y6009450D01*
X12662112Y6009450D01*
X12715452Y6281865D01*
X13029777Y6281865D01*
X13085022Y6009450D01*
X13336483Y6009450D01*
X13305050Y6143143D01*
X13273237Y6272950D01*
X13241042Y6398870D01*
X13208466Y6520904D01*
X13186403Y6600000D01*
X13405062Y6600000D01*
X13413278Y6460816D01*
X13437924Y6338539D01*
X13479000Y6233168D01*
X13536508Y6144705D01*
X13637261Y6055805D01*
X13764261Y6002465D01*
X13917507Y5984685D01*
X14021568Y5991114D01*
X14108264Y6009450D01*
X14391852Y6009450D01*
X14626167Y6009450D01*
X14626167Y6548565D01*
X14726180Y6440933D01*
X14777377Y6374734D01*
X14826193Y6303772D01*
X14871674Y6229478D01*
X14912870Y6153278D01*
X14972878Y6009450D01*
X15237672Y6009450D01*
X15206716Y6094461D01*
X15167188Y6181853D01*
X15120753Y6269483D01*
X15069080Y6355208D01*
X15013121Y6437361D01*
X14953827Y6514275D01*
X14893344Y6584284D01*
X14833812Y6645720D01*
X14891677Y6715729D01*
X14947160Y6788595D01*
X14999786Y6862176D01*
X15049077Y6934328D01*
X15094083Y7004336D01*
X15133850Y7071488D01*
X15197668Y7188645D01*
X14932873Y7188645D01*
X14875722Y7074345D01*
X14800475Y6946710D01*
X14713797Y6817170D01*
X14626167Y6699060D01*
X14626167Y7188645D01*
X14391852Y7188645D01*
X14391852Y6009450D01*
X14108264Y6009450D01*
X14112770Y6010403D01*
X14247072Y6066600D01*
X14188017Y6251385D01*
X14091815Y6209475D01*
X13940367Y6188520D01*
X13804398Y6215428D01*
X13712720Y6296153D01*
X13674091Y6378385D01*
X13650913Y6481573D01*
X13643187Y6605715D01*
X13649617Y6712395D01*
X13668905Y6800025D01*
X13735580Y6924803D01*
X13828925Y6991478D01*
X13936557Y7011480D01*
X14078480Y6991478D01*
X14184207Y6942900D01*
X14245167Y7129590D01*
X14206115Y7152450D01*
X14142298Y7181025D01*
X14053715Y7204838D01*
X13940367Y7215315D01*
X13828687Y7205076D01*
X13726055Y7174358D01*
X13634615Y7123875D01*
X13556510Y7054343D01*
X13492931Y6966474D01*
X13445067Y6860985D01*
X13415064Y6738589D01*
X13405062Y6600000D01*
X13186403Y6600000D01*
X13175510Y6639053D01*
X13134017Y6782344D01*
X13092404Y6921707D01*
X13050673Y7057140D01*
X13008823Y7188645D01*
X12753552Y7188645D01*
X12713190Y7058212D01*
X12672114Y6924088D01*
X12630323Y6786273D01*
X12587817Y6644768D01*
X12553604Y6527610D01*
X12519542Y6405500D01*
X12485633Y6278436D01*
X12451877Y6146420D01*
X12418272Y6009450D01*
X12027856Y6009450D01*
X12058228Y6018023D01*
X12130856Y6057313D01*
X12188720Y6108510D01*
X12261110Y6241860D01*
X12277541Y6320441D01*
X12283017Y6403785D01*
X12283017Y7188645D01*
X11652462Y7188645D01*
X11652462Y6994335D01*
X12046797Y6994335D01*
X12046797Y6417120D01*
X12032748Y6306392D01*
X11990600Y6237098D01*
X11925592Y6200664D01*
X11842962Y6188520D01*
X11723900Y6217095D01*
X11618172Y6276150D01*
X11528637Y6089460D01*
X10440359Y6089460D01*
X10420880Y6134228D01*
X10355157Y6265673D01*
X10284672Y6391403D01*
X10216092Y6500940D01*
X10299436Y6554756D01*
X10355157Y6628575D01*
X10386590Y6717158D01*
X10397067Y6815265D01*
X10389209Y6907896D01*
X10365635Y6987668D01*
X10275147Y7108635D01*
X10210377Y7150069D01*
X10134177Y7179120D01*
X10047500Y7196265D01*
X9951297Y7201980D01*
X9884622Y7200075D01*
X9804612Y7195313D01*
X9721745Y7185788D01*
X9646497Y7171500D01*
X9646497Y6009450D01*
X9522672Y6009450D01*
X9491716Y6094461D01*
X9452187Y6181853D01*
X9405753Y6269483D01*
X9354080Y6355208D01*
X9298121Y6437361D01*
X9238827Y6514275D01*
X9178344Y6584284D01*
X9118812Y6645720D01*
X9176677Y6715729D01*
X9232160Y6788595D01*
X9284786Y6862176D01*
X9334077Y6934328D01*
X9379083Y7004336D01*
X9418850Y7071488D01*
X9482667Y7188645D01*
X9217872Y7188645D01*
X9160722Y7074345D01*
X9085475Y6946710D01*
X8998797Y6817170D01*
X8911167Y6699060D01*
X8911167Y7188645D01*
X8676852Y7188645D01*
X8676852Y6009450D01*
X7975812Y6009450D01*
X7975812Y6407595D01*
X8059632Y6407595D01*
X8200497Y6418073D01*
X8318289Y6449505D01*
X8413010Y6501893D01*
X8482331Y6577775D01*
X8523923Y6679693D01*
X8537787Y6807645D01*
X8524029Y6934328D01*
X8482754Y7034975D01*
X8413962Y7109588D01*
X8320194Y7160917D01*
X8203989Y7191714D01*
X8065347Y7201980D01*
X7991052Y7200075D01*
X7905327Y7195313D01*
X7818650Y7186740D01*
X7741497Y7173405D01*
X7741497Y6009450D01*
X7314868Y6009450D01*
X7370657Y6024902D01*
X7454795Y6075173D01*
X7535519Y6184472D01*
X7562427Y6331395D01*
X7554331Y6420216D01*
X7530042Y6492368D01*
X7447175Y6599048D01*
X7336685Y6667628D01*
X7221432Y6714300D01*
X7148090Y6742875D01*
X7081415Y6778118D01*
X7032837Y6823838D01*
X7013787Y6883845D01*
X7034531Y6958987D01*
X7096761Y7004072D01*
X7200477Y7019100D01*
X7334780Y7000050D01*
X7440507Y6954330D01*
X7509087Y7135305D01*
X7372880Y7190550D01*
X7285012Y7209124D01*
X7183332Y7215315D01*
X7066598Y7204943D01*
X6967856Y7173828D01*
X6887105Y7121970D01*
X6806381Y7010528D01*
X6779472Y6862890D01*
X6809952Y6722873D01*
X6887105Y6628575D01*
X6990927Y6565710D01*
X7101417Y6521895D01*
X7181427Y6488558D01*
X7253817Y6448553D01*
X7307157Y6398070D01*
X7328112Y6333300D01*
X7319540Y6277103D01*
X7288107Y6227573D01*
X7226195Y6193283D01*
X7128087Y6180900D01*
X7033076Y6187568D01*
X6953780Y6207570D01*
X6830907Y6264720D01*
X6762327Y6074220D01*
X6444827Y6074220D01*
X6444827Y7374065D01*
G37*
G36*
X8176076Y6987429D02*
G01*
X8241560Y6955283D01*
X8283708Y6897418D01*
X8297757Y6809550D01*
X8283470Y6716919D01*
X8240607Y6656198D01*
X8169646Y6622622D01*
X8071062Y6611430D01*
X7975812Y6611430D01*
X7975812Y6992430D01*
X8033915Y6997193D01*
X8092017Y6998145D01*
X8176076Y6987429D01*
G37*
G36*
X10035594Y6987191D02*
G01*
X10101792Y6954330D01*
X10144655Y6898133D01*
X10158942Y6817170D01*
X10105602Y6684773D01*
X10035594Y6649768D01*
X9932247Y6638100D01*
X9880812Y6638100D01*
X9880812Y6992430D01*
X9918912Y6997193D01*
X9951297Y6998145D01*
X10035594Y6987191D01*
G37*
G36*
X12910715Y6833363D02*
G01*
X12941195Y6715253D01*
X12966912Y6598095D01*
X12989772Y6476175D01*
X12759267Y6476175D01*
X12783080Y6598095D01*
X12809750Y6715253D01*
X12840230Y6833363D01*
X12875472Y6960045D01*
X12910715Y6833363D01*
G37*
%TO.C,R2*%
X5977500Y22137258D02*
X5977500Y21662742D01*
X7022500Y22137258D02*
X7022500Y21662742D01*
%TO.C,kibuzzard-648228C2*%
G36*
X15997193Y27980549D02*
G01*
X19002807Y27980549D01*
X19002807Y26819451D01*
X15997193Y26819451D01*
X15997193Y26957088D01*
X16116256Y26957088D01*
X16277704Y26957088D01*
X16270561Y27644316D01*
X16374859Y27269984D01*
X16503447Y27269984D01*
X16612032Y27644316D01*
X16603459Y26957088D01*
X16764908Y26957088D01*
X16763527Y27005665D01*
X16854919Y27005665D01*
X16953503Y26962088D01*
X17030298Y26944407D01*
X17129239Y26938514D01*
X17229490Y26946054D01*
X17269328Y26957088D01*
X17602156Y26957088D01*
X18169369Y26957088D01*
X18327961Y26957088D01*
X18883744Y26957088D01*
X18883744Y27102820D01*
X18505126Y27102820D01*
X18505126Y27841484D01*
X18327961Y27841484D01*
X18327961Y26957088D01*
X18169369Y26957088D01*
X18169369Y27102820D01*
X17777892Y27102820D01*
X17777892Y27351423D01*
X18090788Y27351423D01*
X18090788Y27497155D01*
X17777892Y27497155D01*
X17777892Y27695751D01*
X18137937Y27695751D01*
X18137937Y27841484D01*
X17602156Y27841484D01*
X17602156Y26957088D01*
X17269328Y26957088D01*
X17311167Y26968676D01*
X17374270Y27006379D01*
X17434813Y27088354D01*
X17454994Y27198546D01*
X17448922Y27265162D01*
X17430706Y27319276D01*
X17368555Y27399286D01*
X17285687Y27450721D01*
X17199248Y27485725D01*
X17144241Y27507156D01*
X17094235Y27533588D01*
X17057802Y27567878D01*
X17043514Y27612884D01*
X17059072Y27669240D01*
X17105744Y27703054D01*
X17183532Y27714325D01*
X17284259Y27700038D01*
X17363554Y27665748D01*
X17414989Y27801479D01*
X17312834Y27842913D01*
X17246933Y27856843D01*
X17170673Y27861486D01*
X17083122Y27853708D01*
X17009066Y27830371D01*
X16948502Y27791478D01*
X16887959Y27707896D01*
X16867778Y27597168D01*
X16890638Y27492154D01*
X16948502Y27421431D01*
X17026369Y27374283D01*
X17109237Y27341421D01*
X17169244Y27316418D01*
X17223537Y27286414D01*
X17263542Y27248553D01*
X17279258Y27199975D01*
X17272829Y27157827D01*
X17249254Y27120679D01*
X17202820Y27094962D01*
X17129239Y27085675D01*
X17057980Y27090676D01*
X16998509Y27105678D01*
X16906354Y27148540D01*
X16854919Y27005665D01*
X16763527Y27005665D01*
X16761693Y27070137D01*
X16757764Y27180687D01*
X16752942Y27289629D01*
X16747049Y27397857D01*
X16739905Y27506263D01*
X16731332Y27615741D01*
X16721867Y27727184D01*
X16712044Y27841484D01*
X16566312Y27841484D01*
X16540594Y27765760D01*
X16509162Y27667891D01*
X16473443Y27559306D01*
X16437724Y27450006D01*
X16404863Y27552876D01*
X16370573Y27662890D01*
X16338426Y27764331D01*
X16313423Y27841484D01*
X16167691Y27841484D01*
X16158225Y27744686D01*
X16149831Y27640030D01*
X16142509Y27529659D01*
X16136258Y27415716D01*
X16130722Y27299630D01*
X16125542Y27182830D01*
X16120720Y27067816D01*
X16116256Y26957088D01*
X15997193Y26957088D01*
X15997193Y27980549D01*
G37*
D14*
%TO.C,U3*%
X28000000Y33100000D02*
X27625000Y33100000D01*
X28000000Y32725000D02*
X28000000Y33100000D01*
X21000000Y33100000D02*
X21375000Y33100000D01*
X21000000Y26475000D02*
X21000000Y26100000D01*
X28000000Y26100000D02*
X27625000Y26100000D01*
X28000000Y26475000D02*
X28000000Y26100000D01*
X21000000Y26100000D02*
X21375000Y26100000D01*
X21000000Y32725000D02*
X21000000Y33100000D01*
D15*
X21500000Y24200000D02*
G75*
G03*
X21500000Y24200000I-100000J0D01*
G01*
D13*
%TO.C,C6*%
X12510000Y9359420D02*
X12510000Y9640580D01*
X11490000Y9359420D02*
X11490000Y9640580D01*
%TO.C,C24*%
X13120000Y39000000D02*
G75*
G03*
X13120000Y39000000I-5120000J0D01*
G01*
%TO.C,J4*%
X13270000Y23515000D02*
X15930000Y23515000D01*
X15930000Y28655000D02*
X15930000Y23515000D01*
X13270000Y28655000D02*
X13270000Y23515000D01*
X13270000Y29925000D02*
X13270000Y31255000D01*
X13270000Y28655000D02*
X15930000Y28655000D01*
X13270000Y31255000D02*
X14600000Y31255000D01*
%TO.C,J2*%
X44500000Y44250000D02*
X44500000Y47750000D01*
X31500000Y47750000D02*
X31500000Y44250000D01*
X31500000Y44250000D02*
X44500000Y44250000D01*
X44500000Y47750000D02*
X31500000Y47750000D01*
%TO.C,R3*%
X45577500Y13962742D02*
X45577500Y14437258D01*
X46622500Y13962742D02*
X46622500Y14437258D01*
%TO.C,R6*%
X45122500Y9562742D02*
X45122500Y10037258D01*
X44077500Y9562742D02*
X44077500Y10037258D01*
%TO.C,C26*%
X36390000Y26540580D02*
X36390000Y26259420D01*
X37410000Y26540580D02*
X37410000Y26259420D01*
%TO.C,C15*%
X21690000Y37459420D02*
X21690000Y37740580D01*
X22710000Y37459420D02*
X22710000Y37740580D01*
%TO.C,FB3*%
X28190000Y19437221D02*
X28190000Y19762779D01*
X29210000Y19437221D02*
X29210000Y19762779D01*
%TO.C,C13*%
X25810000Y37459420D02*
X25810000Y37740580D01*
X24790000Y37459420D02*
X24790000Y37740580D01*
%TO.C,SW1*%
X47250000Y27100000D02*
X47250000Y19100000D01*
X47250000Y19100000D02*
X50750000Y19100000D01*
X50750000Y19100000D02*
X50750000Y27100000D01*
X50750000Y27100000D02*
X47250000Y27100000D01*
%TO.C,C16*%
X21210000Y37459420D02*
X21210000Y37740580D01*
X20190000Y37459420D02*
X20190000Y37740580D01*
%TO.C,C9*%
X42290000Y9659420D02*
X42290000Y9940580D01*
X43310000Y9659420D02*
X43310000Y9940580D01*
%TO.C,FB1*%
X8310000Y9662779D02*
X8310000Y9337221D01*
X7290000Y9662779D02*
X7290000Y9337221D01*
%TO.C,kibuzzard-6481EE0B*%
G36*
X42383995Y6833363D02*
G01*
X42414475Y6715253D01*
X42440193Y6598095D01*
X42463053Y6476175D01*
X42232548Y6476175D01*
X42256360Y6598095D01*
X42283030Y6715253D01*
X42313510Y6833363D01*
X42348753Y6960045D01*
X42383995Y6833363D01*
G37*
G36*
X36838222Y7374065D02*
G01*
X44961778Y7374065D01*
X44961778Y5825935D01*
X36838222Y5825935D01*
X36838222Y6009450D01*
X37155722Y6009450D01*
X37370988Y6009450D01*
X37361462Y6925755D01*
X37500527Y6426645D01*
X37671977Y6426645D01*
X37816758Y6925755D01*
X37805327Y6009450D01*
X38020593Y6009450D01*
X38167277Y6009450D01*
X38915943Y6009450D01*
X38915943Y6203760D01*
X38660672Y6203760D01*
X38660672Y6600000D01*
X39068343Y6600000D01*
X39076558Y6460816D01*
X39101204Y6338539D01*
X39142280Y6233168D01*
X39199788Y6144705D01*
X39300541Y6055805D01*
X39427541Y6002465D01*
X39580787Y5984685D01*
X39684848Y5991114D01*
X39776050Y6010403D01*
X39910353Y6066600D01*
X39851298Y6251385D01*
X39755095Y6209475D01*
X39603648Y6188520D01*
X39467678Y6215428D01*
X39376000Y6296153D01*
X39337371Y6378385D01*
X39314193Y6481573D01*
X39306824Y6600000D01*
X40973343Y6600000D01*
X40981915Y6456887D01*
X41007633Y6332348D01*
X41049066Y6226620D01*
X41104788Y6139943D01*
X41174082Y6072315D01*
X41256235Y6023738D01*
X41350294Y5994448D01*
X41455308Y5984685D01*
X41571751Y5989447D01*
X41669620Y6003735D01*
X41691369Y6009450D01*
X41891553Y6009450D01*
X42135393Y6009450D01*
X42188733Y6281865D01*
X42503058Y6281865D01*
X42558303Y6009450D01*
X42809763Y6009450D01*
X42929778Y6009450D01*
X43678442Y6009450D01*
X43867038Y6009450D01*
X44078493Y6009450D01*
X44078493Y6792405D01*
X44149295Y6661701D01*
X44216923Y6531208D01*
X44281375Y6400928D01*
X44342653Y6270647D01*
X44400755Y6140154D01*
X44455683Y6009450D01*
X44644278Y6009450D01*
X44644278Y7188645D01*
X44432823Y7188645D01*
X44432823Y6462840D01*
X44399247Y6537135D01*
X44359480Y6622860D01*
X44314713Y6715729D01*
X44266135Y6811455D01*
X44214938Y6908848D01*
X44162313Y7006718D01*
X44108973Y7101253D01*
X44055633Y7188645D01*
X43867038Y7188645D01*
X43867038Y6009450D01*
X43678442Y6009450D01*
X43678442Y6203760D01*
X43423173Y6203760D01*
X43423173Y6994335D01*
X43678442Y6994335D01*
X43678442Y7188645D01*
X42929778Y7188645D01*
X42929778Y6994335D01*
X43186953Y6994335D01*
X43186953Y6203760D01*
X42929778Y6203760D01*
X42929778Y6009450D01*
X42809763Y6009450D01*
X42778330Y6143143D01*
X42746517Y6272950D01*
X42714322Y6398870D01*
X42681747Y6520904D01*
X42648790Y6639053D01*
X42607297Y6782344D01*
X42565684Y6921707D01*
X42523953Y7057140D01*
X42482103Y7188645D01*
X42226833Y7188645D01*
X42186470Y7058212D01*
X42145394Y6924088D01*
X42103603Y6786273D01*
X42061098Y6644768D01*
X42026884Y6527610D01*
X41992822Y6405500D01*
X41958913Y6278436D01*
X41925157Y6146420D01*
X41891553Y6009450D01*
X41691369Y6009450D01*
X41800113Y6038025D01*
X41800113Y6626670D01*
X41565798Y6626670D01*
X41565798Y6196140D01*
X41520078Y6190425D01*
X41474358Y6188520D01*
X41360534Y6213523D01*
X41278143Y6288533D01*
X41241101Y6367590D01*
X41218876Y6471413D01*
X41211468Y6600000D01*
X41215516Y6687392D01*
X41227660Y6766688D01*
X41281000Y6896228D01*
X41375298Y6981000D01*
X41516268Y7011480D01*
X41641998Y6990525D01*
X41744868Y6942900D01*
X41805828Y7129590D01*
X41766775Y7152450D01*
X41701053Y7181025D01*
X41606755Y7204838D01*
X41483883Y7215315D01*
X41380536Y7205552D01*
X41283858Y7176263D01*
X41196704Y7127447D01*
X41121933Y7059105D01*
X41060496Y6971713D01*
X41013348Y6865748D01*
X40983344Y6741684D01*
X40973343Y6600000D01*
X39306824Y6600000D01*
X39306468Y6605715D01*
X39312897Y6712395D01*
X39332185Y6800025D01*
X39398860Y6924803D01*
X39492205Y6991478D01*
X39599838Y7011480D01*
X39741760Y6991478D01*
X39847487Y6942900D01*
X39908448Y7129590D01*
X39869395Y7152450D01*
X39805578Y7181025D01*
X39716995Y7204838D01*
X39603648Y7215315D01*
X39491967Y7205076D01*
X39389335Y7174358D01*
X39297895Y7123875D01*
X39219790Y7054343D01*
X39156211Y6966474D01*
X39108348Y6860985D01*
X39078344Y6738589D01*
X39068343Y6600000D01*
X38660672Y6600000D01*
X38660672Y6994335D01*
X38915943Y6994335D01*
X38915943Y7188645D01*
X38167277Y7188645D01*
X38167277Y6994335D01*
X38424452Y6994335D01*
X38424452Y6203760D01*
X38167277Y6203760D01*
X38167277Y6009450D01*
X38020593Y6009450D01*
X38016306Y6160183D01*
X38011067Y6307583D01*
X38004638Y6452839D01*
X37996780Y6597143D01*
X37987255Y6741684D01*
X37975825Y6887655D01*
X37963204Y7036245D01*
X37950107Y7188645D01*
X37755798Y7188645D01*
X37721507Y7087680D01*
X37679598Y6957188D01*
X37631973Y6812408D01*
X37584347Y6666675D01*
X37540532Y6803835D01*
X37494812Y6950520D01*
X37451950Y7085775D01*
X37418612Y7188645D01*
X37224302Y7188645D01*
X37211682Y7059581D01*
X37200490Y6920040D01*
X37190727Y6772879D01*
X37182393Y6620955D01*
X37175011Y6466174D01*
X37168105Y6310440D01*
X37161676Y6157088D01*
X37155722Y6009450D01*
X36838222Y6009450D01*
X36838222Y7374065D01*
G37*
%TO.C,C11*%
X47290000Y14059420D02*
X47290000Y14340580D01*
X48310000Y14059420D02*
X48310000Y14340580D01*
%TO.C,R12*%
X24222500Y19362742D02*
X24222500Y19837258D01*
X23177500Y19362742D02*
X23177500Y19837258D01*
%TO.C,C17*%
X16640580Y35110000D02*
X16359420Y35110000D01*
X16640580Y34090000D02*
X16359420Y34090000D01*
%TO.C,kibuzzard-6481EDD5*%
G36*
X18115905Y43779095D02*
G01*
X18172103Y43691465D01*
X18198773Y43560972D01*
X18203773Y43483106D01*
X18205440Y43400000D01*
X18203773Y43317132D01*
X18198773Y43239980D01*
X18172103Y43109487D01*
X18115905Y43020905D01*
X18018750Y42988520D01*
X17921595Y43020905D01*
X17865398Y43108535D01*
X17838728Y43239027D01*
X17833727Y43316894D01*
X17832060Y43400000D01*
X17833727Y43482867D01*
X17838728Y43560020D01*
X17865398Y43690512D01*
X17922548Y43779095D01*
X18018750Y43811480D01*
X18115905Y43779095D01*
G37*
G36*
X24292550Y42625935D02*
G01*
X16507450Y42625935D01*
X16507450Y43796240D01*
X16666200Y43796240D01*
X17171025Y43796240D01*
X17171025Y42811355D01*
X17407245Y42811355D01*
X17407245Y43400000D01*
X17593935Y43400000D01*
X17600722Y43256946D01*
X17621081Y43132586D01*
X17655014Y43026918D01*
X17702520Y42939942D01*
X17785917Y42853688D01*
X17891327Y42801936D01*
X18018750Y42784685D01*
X18142363Y42801936D01*
X18161317Y42811355D01*
X18517860Y42811355D01*
X18763605Y42811355D01*
X18780750Y42910415D01*
X18801705Y43024715D01*
X18825518Y43148302D01*
X18851235Y43275222D01*
X18878858Y43402857D01*
X18908385Y43528587D01*
X18938865Y43646459D01*
X18969345Y43750520D01*
X19000063Y43645031D01*
X19031258Y43526682D01*
X19061738Y43400952D01*
X19090313Y43273317D01*
X19116744Y43146635D01*
X19140795Y43023762D01*
X19160798Y42910177D01*
X19175085Y42811355D01*
X19422735Y42811355D01*
X19400828Y42918035D01*
X19369395Y43051385D01*
X19344207Y43151186D01*
X19316902Y43255008D01*
X19287480Y43362852D01*
X19256365Y43472813D01*
X19223980Y43582986D01*
X19190325Y43693370D01*
X19140319Y43850532D01*
X19093170Y43990550D01*
X20420955Y43990550D01*
X20475248Y43865772D01*
X20540970Y43734327D01*
X20611455Y43608597D01*
X20680035Y43499060D01*
X20596691Y43445244D01*
X20540970Y43371425D01*
X20509538Y43282842D01*
X20499060Y43184735D01*
X20506918Y43092104D01*
X20530493Y43012332D01*
X20620980Y42891365D01*
X20685750Y42849931D01*
X20761950Y42820880D01*
X20848628Y42803735D01*
X20944830Y42798020D01*
X21011505Y42799925D01*
X21091515Y42804687D01*
X21174383Y42814212D01*
X21249630Y42828500D01*
X21249630Y43990550D01*
X21373455Y43990550D01*
X21404411Y43905539D01*
X21443940Y43818147D01*
X21490374Y43730517D01*
X21542048Y43644792D01*
X21598007Y43562639D01*
X21657300Y43485725D01*
X21717784Y43415716D01*
X21777315Y43354280D01*
X21719451Y43284271D01*
X21663968Y43211405D01*
X21611342Y43137824D01*
X21562050Y43065672D01*
X21517044Y42995664D01*
X21477278Y42928512D01*
X21413460Y42811355D01*
X21678255Y42811355D01*
X21735405Y42925655D01*
X21810653Y43053290D01*
X21897330Y43182830D01*
X21984960Y43300940D01*
X21984960Y42811355D01*
X22219275Y42811355D01*
X22219275Y43192355D01*
X22358340Y43192355D01*
X22372098Y43065672D01*
X22413373Y42965025D01*
X22482165Y42890412D01*
X22575933Y42839083D01*
X22692138Y42808286D01*
X22830780Y42798020D01*
X22905075Y42799925D01*
X22990800Y42804687D01*
X23077478Y42813260D01*
X23154630Y42826595D01*
X23154630Y43668605D01*
X23333700Y43668605D01*
X23341796Y43579784D01*
X23366085Y43507632D01*
X23448953Y43400952D01*
X23559443Y43332372D01*
X23674695Y43285700D01*
X23748038Y43257125D01*
X23814713Y43221882D01*
X23863290Y43176162D01*
X23882340Y43116155D01*
X23861597Y43041013D01*
X23799367Y42995928D01*
X23695650Y42980900D01*
X23561348Y42999950D01*
X23455620Y43045670D01*
X23387040Y42864695D01*
X23523248Y42809450D01*
X23611116Y42790876D01*
X23712795Y42784685D01*
X23829529Y42795057D01*
X23928272Y42826172D01*
X24009023Y42878030D01*
X24089747Y42989472D01*
X24116655Y43137110D01*
X24086175Y43277127D01*
X24009023Y43371425D01*
X23905200Y43434290D01*
X23794710Y43478105D01*
X23714700Y43511442D01*
X23642310Y43551447D01*
X23588970Y43601930D01*
X23568015Y43666700D01*
X23576588Y43722897D01*
X23608020Y43772427D01*
X23669933Y43806717D01*
X23768040Y43819100D01*
X23863052Y43812432D01*
X23942348Y43792430D01*
X24065220Y43735280D01*
X24133800Y43925780D01*
X24002355Y43983882D01*
X23899961Y44007457D01*
X23768040Y44015315D01*
X23634373Y44005261D01*
X23525470Y43975098D01*
X23441333Y43924827D01*
X23360608Y43815528D01*
X23333700Y43668605D01*
X23154630Y43668605D01*
X23154630Y43990550D01*
X22920315Y43990550D01*
X22920315Y43592405D01*
X22836495Y43592405D01*
X22695631Y43581927D01*
X22577838Y43550495D01*
X22483118Y43498107D01*
X22413797Y43422225D01*
X22372204Y43320307D01*
X22358340Y43192355D01*
X22219275Y43192355D01*
X22219275Y43990550D01*
X21984960Y43990550D01*
X21984960Y43451435D01*
X21884948Y43559067D01*
X21833751Y43625266D01*
X21784935Y43696228D01*
X21739453Y43770522D01*
X21698258Y43846722D01*
X21638250Y43990550D01*
X21373455Y43990550D01*
X21249630Y43990550D01*
X21015315Y43990550D01*
X21015315Y43556210D01*
X20893395Y43556210D01*
X20828863Y43664081D01*
X20768618Y43770522D01*
X20714087Y43878393D01*
X20666700Y43990550D01*
X20420955Y43990550D01*
X19093170Y43990550D01*
X18851235Y43990550D01*
X18814828Y43889056D01*
X18779268Y43785233D01*
X18744555Y43679082D01*
X18711218Y43572403D01*
X18679785Y43466992D01*
X18650258Y43362852D01*
X18609776Y43211167D01*
X18574058Y43066625D01*
X18543339Y42932322D01*
X18517860Y42811355D01*
X18161317Y42811355D01*
X18246503Y42853688D01*
X18331170Y42939942D01*
X18380343Y43026918D01*
X18415466Y43132586D01*
X18436540Y43256946D01*
X18443565Y43400000D01*
X18436719Y43543054D01*
X18416181Y43667414D01*
X18381950Y43773082D01*
X18334027Y43860057D01*
X18250102Y43946312D01*
X18144374Y43998064D01*
X18016845Y44015315D01*
X17892385Y43998064D01*
X17788245Y43946312D01*
X17704425Y43860057D01*
X17656086Y43773082D01*
X17621558Y43667414D01*
X17600841Y43543054D01*
X17593935Y43400000D01*
X17407245Y43400000D01*
X17407245Y43990550D01*
X16666200Y43990550D01*
X16666200Y43796240D01*
X16507450Y43796240D01*
X16507450Y44174065D01*
X24292550Y44174065D01*
X24292550Y42625935D01*
G37*
G36*
X21015315Y43007570D02*
G01*
X20977215Y43002807D01*
X20944830Y43001855D01*
X20860534Y43012809D01*
X20794335Y43045670D01*
X20751473Y43101867D01*
X20737185Y43182830D01*
X20790525Y43315227D01*
X20860534Y43350232D01*
X20963880Y43361900D01*
X21015315Y43361900D01*
X21015315Y43007570D01*
G37*
G36*
X22920315Y43007570D02*
G01*
X22862213Y43002807D01*
X22804110Y43001855D01*
X22720052Y43012571D01*
X22654568Y43044717D01*
X22612419Y43102582D01*
X22598370Y43190450D01*
X22612658Y43283081D01*
X22655520Y43343802D01*
X22726481Y43377378D01*
X22825065Y43388570D01*
X22920315Y43388570D01*
X22920315Y43007570D01*
G37*
%TO.C,C2*%
X41610000Y19359420D02*
X41610000Y19640580D01*
X40590000Y19359420D02*
X40590000Y19640580D01*
%TO.C,FB2*%
X10710000Y9662779D02*
X10710000Y9337221D01*
X9690000Y9662779D02*
X9690000Y9337221D01*
%TO.C,kibuzzard-6481F543*%
G36*
X46719087Y23269545D02*
G01*
X46770522Y23220968D01*
X46795287Y23153340D01*
X46801955Y23075235D01*
X46800050Y23017133D01*
X46794335Y22962840D01*
X46474295Y22962840D01*
X46474295Y23088570D01*
X46511442Y23234303D01*
X46634315Y23288595D01*
X46719087Y23269545D01*
G37*
G36*
X45625935Y18541970D02*
G01*
X45625935Y18928050D01*
X45811355Y18928050D01*
X45940419Y18915429D01*
X46079960Y18904237D01*
X46227121Y18894474D01*
X46379045Y18886140D01*
X46533826Y18878758D01*
X46689560Y18871852D01*
X46842912Y18865423D01*
X46990550Y18859470D01*
X46990550Y19074735D01*
X46074245Y19065210D01*
X46573355Y19204275D01*
X46573355Y19375725D01*
X46074245Y19520505D01*
X46990550Y19509075D01*
X46990550Y19724340D01*
X46839817Y19720054D01*
X46692417Y19714815D01*
X46547161Y19708386D01*
X46402857Y19700527D01*
X46258316Y19691002D01*
X46112345Y19679573D01*
X45963755Y19666952D01*
X45811355Y19653855D01*
X45811355Y19459545D01*
X45912320Y19425255D01*
X46042812Y19383345D01*
X46187592Y19335720D01*
X46333325Y19288095D01*
X46196165Y19244280D01*
X46049480Y19198560D01*
X45914225Y19155697D01*
X45811355Y19122360D01*
X45811355Y18928050D01*
X45625935Y18928050D01*
X45625935Y19871025D01*
X45811355Y19871025D01*
X46005665Y19871025D01*
X46005665Y20128200D01*
X46796240Y20128200D01*
X46796240Y19871025D01*
X46990550Y19871025D01*
X46990550Y20619690D01*
X46796240Y20619690D01*
X46796240Y20364420D01*
X46005665Y20364420D01*
X46005665Y20619690D01*
X45811355Y20619690D01*
X45811355Y19871025D01*
X45625935Y19871025D01*
X45625935Y21307395D01*
X45784685Y21307395D01*
X45794924Y21195714D01*
X45825642Y21093082D01*
X45876125Y21001642D01*
X45945657Y20923537D01*
X46033526Y20859958D01*
X46139015Y20812095D01*
X46261411Y20782091D01*
X46400000Y20772090D01*
X46539184Y20780305D01*
X46661461Y20804951D01*
X46766832Y20846028D01*
X46855295Y20903535D01*
X46944195Y21004288D01*
X46997535Y21131288D01*
X47015315Y21284535D01*
X47008886Y21388596D01*
X46989597Y21479797D01*
X46933400Y21614100D01*
X46748615Y21555045D01*
X46790525Y21458842D01*
X46811480Y21307395D01*
X46784572Y21171426D01*
X46703847Y21079748D01*
X46621615Y21041118D01*
X46518427Y21017941D01*
X46394285Y21010215D01*
X46287605Y21016644D01*
X46199975Y21035933D01*
X46075197Y21102607D01*
X46008522Y21195952D01*
X45988520Y21303585D01*
X46008522Y21445507D01*
X46057100Y21551235D01*
X45870410Y21612195D01*
X45847550Y21573143D01*
X45818975Y21509325D01*
X45795162Y21420743D01*
X45784685Y21307395D01*
X45625935Y21307395D01*
X45625935Y23033325D01*
X45798020Y23033325D01*
X45806592Y22875210D01*
X45826595Y22728525D01*
X46971500Y22728525D01*
X46986502Y22810916D01*
X46997217Y22894260D01*
X47003647Y22976651D01*
X47005790Y23056185D01*
X47001266Y23150244D01*
X46987692Y23238113D01*
X46963404Y23317170D01*
X46926732Y23384798D01*
X46812432Y23482905D01*
X46732184Y23510051D01*
X46634315Y23519100D01*
X46554305Y23508384D01*
X46478105Y23476238D01*
X46411430Y23414087D01*
X46359995Y23313360D01*
X46257125Y23422897D01*
X46187592Y23453616D01*
X46108535Y23463855D01*
X45998045Y23446710D01*
X45898032Y23381940D01*
X45825642Y23250495D01*
X45804926Y23154292D01*
X45798020Y23033325D01*
X45625935Y23033325D01*
X45625935Y24054405D01*
X45784685Y24054405D01*
X45801936Y23930792D01*
X45853688Y23826652D01*
X45939942Y23741985D01*
X46026918Y23692812D01*
X46132586Y23657689D01*
X46256946Y23636615D01*
X46400000Y23629590D01*
X46543054Y23636436D01*
X46667414Y23656974D01*
X46773082Y23691205D01*
X46860057Y23739128D01*
X46946312Y23823053D01*
X46998064Y23928781D01*
X47015315Y24056310D01*
X46998064Y24180770D01*
X46946312Y24284910D01*
X46860057Y24368730D01*
X46773082Y24417069D01*
X46667414Y24451598D01*
X46543054Y24472314D01*
X46400000Y24479220D01*
X46256946Y24472433D01*
X46132586Y24452074D01*
X46026918Y24418141D01*
X45939942Y24370635D01*
X45853688Y24287238D01*
X45801936Y24181828D01*
X45784685Y24054405D01*
X45625935Y24054405D01*
X45625935Y25006905D01*
X45784685Y25006905D01*
X45801936Y24883292D01*
X45853688Y24779152D01*
X45939942Y24694485D01*
X46026918Y24645312D01*
X46132586Y24610189D01*
X46256946Y24589115D01*
X46400000Y24582090D01*
X46543054Y24588936D01*
X46667414Y24609474D01*
X46773082Y24643705D01*
X46860057Y24691628D01*
X46946312Y24775553D01*
X46998064Y24881281D01*
X47015315Y25008810D01*
X46998064Y25133270D01*
X46946312Y25237410D01*
X46860057Y25321230D01*
X46773082Y25369569D01*
X46667414Y25404098D01*
X46543054Y25424814D01*
X46400000Y25431720D01*
X46256946Y25424933D01*
X46132586Y25404574D01*
X46026918Y25370641D01*
X45939942Y25323135D01*
X45853688Y25239738D01*
X45801936Y25134328D01*
X45784685Y25006905D01*
X45625935Y25006905D01*
X45625935Y25980360D01*
X45784685Y25980360D01*
X45795057Y25863626D01*
X45826172Y25764883D01*
X45878030Y25684133D01*
X45989472Y25603408D01*
X46137110Y25576500D01*
X46277127Y25606980D01*
X46371425Y25684133D01*
X46434290Y25787955D01*
X46478105Y25898445D01*
X46511442Y25978455D01*
X46551447Y26050845D01*
X46601930Y26104185D01*
X46666700Y26125140D01*
X46722897Y26116568D01*
X46772427Y26085135D01*
X46806717Y26023223D01*
X46819100Y25925115D01*
X46812432Y25830103D01*
X46792430Y25750808D01*
X46735280Y25627935D01*
X46925780Y25559355D01*
X46983882Y25690800D01*
X47007457Y25793194D01*
X47015315Y25925115D01*
X47005261Y26058783D01*
X46975098Y26167685D01*
X46924827Y26251822D01*
X46815528Y26332547D01*
X46668605Y26359455D01*
X46579784Y26351359D01*
X46507632Y26327070D01*
X46400952Y26244202D01*
X46332372Y26133713D01*
X46285700Y26018460D01*
X46257125Y25945117D01*
X46221882Y25878443D01*
X46176162Y25829865D01*
X46116155Y25810815D01*
X46041013Y25831558D01*
X45995928Y25893788D01*
X45980900Y25997505D01*
X45999950Y26131807D01*
X46045670Y26237535D01*
X45864695Y26306115D01*
X45809450Y26169908D01*
X45790876Y26082039D01*
X45784685Y25980360D01*
X45625935Y25980360D01*
X45625935Y26483280D01*
X45811355Y26483280D01*
X46005665Y26483280D01*
X46005665Y26793795D01*
X46990550Y26793795D01*
X46990550Y27030015D01*
X46005665Y27030015D01*
X46005665Y27340530D01*
X45811355Y27340530D01*
X45811355Y26483280D01*
X45625935Y26483280D01*
X45625935Y27658030D01*
X47174065Y27658030D01*
X47174065Y18541970D01*
X45625935Y18541970D01*
G37*
G36*
X46482867Y25191928D02*
G01*
X46560020Y25186928D01*
X46690512Y25160258D01*
X46779095Y25103108D01*
X46811480Y25006905D01*
X46779095Y24909750D01*
X46691465Y24853552D01*
X46560972Y24826883D01*
X46483106Y24821882D01*
X46400000Y24820215D01*
X46317132Y24821882D01*
X46239980Y24826883D01*
X46109487Y24853552D01*
X46020905Y24909750D01*
X45988520Y25006905D01*
X46020905Y25104060D01*
X46108535Y25160258D01*
X46239027Y25186928D01*
X46316894Y25191928D01*
X46400000Y25193595D01*
X46482867Y25191928D01*
G37*
G36*
X46240932Y23189535D02*
G01*
X46279985Y23054280D01*
X46279985Y22962840D01*
X46009475Y22962840D01*
X46003760Y23014275D01*
X46001855Y23069520D01*
X46006617Y23132385D01*
X46025667Y23185725D01*
X46065672Y23221920D01*
X46133300Y23235255D01*
X46240932Y23189535D01*
G37*
G36*
X46482867Y24239428D02*
G01*
X46560020Y24234428D01*
X46690512Y24207758D01*
X46779095Y24150608D01*
X46811480Y24054405D01*
X46779095Y23957250D01*
X46691465Y23901053D01*
X46560972Y23874383D01*
X46483106Y23869382D01*
X46400000Y23867715D01*
X46317132Y23869382D01*
X46239980Y23874383D01*
X46109487Y23901053D01*
X46020905Y23957250D01*
X45988520Y24054405D01*
X46020905Y24151560D01*
X46108535Y24207758D01*
X46239027Y24234428D01*
X46316894Y24239428D01*
X46400000Y24241095D01*
X46482867Y24239428D01*
G37*
%TO.C,C5*%
X7010000Y25140580D02*
X7010000Y24859420D01*
X5990000Y25140580D02*
X5990000Y24859420D01*
%TO.C,C12*%
X39910000Y19359420D02*
X39910000Y19640580D01*
X38890000Y19359420D02*
X38890000Y19640580D01*
%TO.C,Y1*%
X35650000Y17700000D02*
X35650000Y30300000D01*
X30550000Y30300000D02*
X30550000Y17700000D01*
X30550000Y17700000D02*
X35650000Y17700000D01*
%TO.C,G\u002A\u002A\u002A*%
G36*
X43531783Y35343727D02*
G01*
X43708866Y35309032D01*
X43794805Y35252329D01*
X43795113Y35251549D01*
X43784582Y35126013D01*
X43662038Y35041186D01*
X43490625Y35015187D01*
X43411514Y35005778D01*
X43365128Y34959545D01*
X43342780Y34847474D01*
X43335783Y34640549D01*
X43335326Y34496467D01*
X43335326Y33978804D01*
X43544557Y33978804D01*
X43708954Y33942435D01*
X43801583Y33855758D01*
X43798856Y33752419D01*
X43742258Y33696808D01*
X43600922Y33653787D01*
X43381429Y33633819D01*
X43129641Y33635339D01*
X42891416Y33656779D01*
X42712613Y33696574D01*
X42647618Y33734205D01*
X42596496Y33860041D01*
X42668987Y33946288D01*
X42853024Y33978798D01*
X42856247Y33978804D01*
X43059239Y33978804D01*
X43059239Y34985583D01*
X42834918Y35051623D01*
X42682462Y35124045D01*
X42611343Y35212458D01*
X42610598Y35221196D01*
X42672805Y35281920D01*
X42834067Y35325511D01*
X43056343Y35350992D01*
X43301595Y35357389D01*
X43531783Y35343727D01*
G37*
G36*
X38980090Y35331754D02*
G01*
X39099338Y35255622D01*
X39095625Y35140330D01*
X39004689Y35031224D01*
X38920932Y34916818D01*
X38806557Y34708142D01*
X38679768Y34440044D01*
X38608164Y34272147D01*
X38474378Y33961535D01*
X38371038Y33763968D01*
X38286786Y33660927D01*
X38216550Y33633696D01*
X38091473Y33695494D01*
X38017607Y33814260D01*
X37848863Y34240341D01*
X37694194Y34596793D01*
X37561749Y34866522D01*
X37459674Y35032436D01*
X37416768Y35074836D01*
X37325919Y35167353D01*
X37353201Y35257794D01*
X37479675Y35327787D01*
X37686395Y35358963D01*
X37710054Y35359239D01*
X37935496Y35332123D01*
X38062985Y35260738D01*
X38078572Y35160028D01*
X37989587Y35059696D01*
X37928961Y35002417D01*
X37914017Y34926907D01*
X37948011Y34796935D01*
X38032696Y34579956D01*
X38121762Y34373981D01*
X38193210Y34231433D01*
X38227717Y34186102D01*
X38268875Y34244953D01*
X38341595Y34398161D01*
X38418215Y34582881D01*
X38501054Y34804251D01*
X38532525Y34934839D01*
X38515863Y35010648D01*
X38461324Y35062581D01*
X38370788Y35175313D01*
X38403717Y35272394D01*
X38545537Y35338601D01*
X38745380Y35359239D01*
X38980090Y35331754D01*
G37*
G36*
X39392053Y34509071D02*
G01*
X39595465Y35002350D01*
X39424668Y35045217D01*
X39292444Y35119813D01*
X39276658Y35206406D01*
X39319169Y35277538D01*
X39432567Y35313797D01*
X39648639Y35324671D01*
X39673222Y35324728D01*
X40047000Y35324728D01*
X40311891Y34671115D01*
X40433052Y34390435D01*
X40547256Y34157913D01*
X40638780Y34003984D01*
X40679151Y33960212D01*
X40779860Y33864220D01*
X40768766Y33770064D01*
X40671627Y33691129D01*
X40514199Y33640801D01*
X40322241Y33632464D01*
X40131460Y33675591D01*
X40035577Y33766037D01*
X40041809Y33882604D01*
X40125815Y33953844D01*
X40226647Y34016661D01*
X40202513Y34070542D01*
X40066490Y34106665D01*
X39884239Y34116848D01*
X39667520Y34101470D01*
X39552147Y34061219D01*
X39551196Y34004917D01*
X39642663Y33953844D01*
X39734888Y33863960D01*
X39723924Y33747341D01*
X39637018Y33675591D01*
X39454839Y33643230D01*
X39232172Y33646541D01*
X39073233Y33679407D01*
X38994334Y33767925D01*
X39013695Y33887840D01*
X39087798Y33959357D01*
X39161269Y34047288D01*
X39263317Y34228159D01*
X39357341Y34430183D01*
X39700502Y34430183D01*
X39779732Y34397014D01*
X39884239Y34392935D01*
X40032562Y34405329D01*
X40072657Y34455905D01*
X40056347Y34513723D01*
X39992985Y34687601D01*
X39971891Y34755299D01*
X39917788Y34857413D01*
X39884239Y34876087D01*
X39823262Y34819616D01*
X39796587Y34755299D01*
X39738372Y34581421D01*
X39712131Y34513723D01*
X39700502Y34430183D01*
X39357341Y34430183D01*
X39373882Y34465724D01*
X39392053Y34509071D01*
G37*
G36*
X41866323Y35432754D02*
G01*
X41931647Y35395360D01*
X42082398Y35217542D01*
X42132289Y34995307D01*
X42070014Y34780659D01*
X42066467Y34775142D01*
X42001604Y34649746D01*
X42026031Y34562749D01*
X42067636Y34516836D01*
X42167925Y34328504D01*
X42169317Y34100381D01*
X42076850Y33883523D01*
X41996384Y33794747D01*
X41787310Y33684890D01*
X41518689Y33633112D01*
X41248689Y33643455D01*
X41035480Y33719962D01*
X41025075Y33727247D01*
X40941640Y33839070D01*
X40942144Y33952720D01*
X41012427Y34020912D01*
X41109957Y34010715D01*
X41373670Y33935067D01*
X41607097Y33933828D01*
X41781980Y33999699D01*
X41870061Y34125379D01*
X41872802Y34207795D01*
X41790697Y34346473D01*
X41609782Y34436503D01*
X41428565Y34531063D01*
X41362366Y34642773D01*
X41413731Y34744338D01*
X41575271Y34806831D01*
X41742861Y34872982D01*
X41804073Y34994879D01*
X41769558Y35127504D01*
X41645685Y35197789D01*
X41470670Y35196129D01*
X41296732Y35122403D01*
X41126111Y35048837D01*
X41018139Y35082723D01*
X40988587Y35186844D01*
X41049863Y35322080D01*
X41207525Y35422967D01*
X41422322Y35480827D01*
X41655005Y35486982D01*
X41866323Y35432754D01*
G37*
G36*
X44394466Y35038376D02*
G01*
X44266345Y35125223D01*
X44246820Y35210930D01*
X44297701Y35282814D01*
X44434479Y35324923D01*
X44647410Y35344609D01*
X45026358Y35364489D01*
X45293894Y34675691D01*
X45442225Y34318155D01*
X45565064Y34082137D01*
X45671318Y33955466D01*
X45769896Y33925971D01*
X45826337Y33948143D01*
X45856777Y34031329D01*
X45879087Y34215004D01*
X45888980Y34461668D01*
X45889130Y34497111D01*
X45882301Y34777751D01*
X45857909Y34950289D01*
X45810097Y35044170D01*
X45774934Y35071178D01*
X45688585Y35166775D01*
X45715468Y35265880D01*
X45834879Y35338574D01*
X45973241Y35357761D01*
X46088913Y35347164D01*
X46183303Y35301450D01*
X46280716Y35197109D01*
X46405454Y35010630D01*
X46510326Y34838196D01*
X46820924Y34320109D01*
X46842520Y34646293D01*
X46844317Y34862912D01*
X46803188Y34994968D01*
X46711805Y35087366D01*
X46607375Y35204780D01*
X46632769Y35293609D01*
X46781464Y35346857D01*
X46965207Y35359239D01*
X47188131Y35339963D01*
X47300582Y35277360D01*
X47316300Y35248740D01*
X47315223Y35130497D01*
X47282301Y35091023D01*
X47244858Y35001677D01*
X47213611Y34798659D01*
X47191753Y34506307D01*
X47185966Y34356805D01*
X47166188Y33983833D01*
X47127539Y33745533D01*
X47062635Y33639009D01*
X46964092Y33661369D01*
X46824527Y33809719D01*
X46636555Y34081165D01*
X46605612Y34129364D01*
X46419245Y34419417D01*
X46294644Y34599920D01*
X46219374Y34677730D01*
X46181002Y34659704D01*
X46167094Y34552697D01*
X46165217Y34372228D01*
X46175552Y34132031D01*
X46209858Y34008077D01*
X46260298Y33978804D01*
X46382533Y33930153D01*
X46437309Y33880085D01*
X46469647Y33784622D01*
X46381974Y33715727D01*
X46169319Y33671840D01*
X45826706Y33651401D01*
X45702712Y33649640D01*
X45372514Y33657090D01*
X45163298Y33686158D01*
X45059376Y33739052D01*
X45058319Y33740302D01*
X45015680Y33868320D01*
X45086891Y33960800D01*
X45172549Y33978804D01*
X45240791Y34013325D01*
X45233424Y34047826D01*
X45149280Y34086991D01*
X44987526Y34109648D01*
X44796567Y34115304D01*
X44624805Y34103467D01*
X44520646Y34073642D01*
X44508695Y34055211D01*
X44563624Y33979757D01*
X44612228Y33953844D01*
X44704453Y33863960D01*
X44693489Y33747341D01*
X44606583Y33675591D01*
X44424404Y33643230D01*
X44201737Y33646541D01*
X44042799Y33679407D01*
X43963351Y33767034D01*
X43985576Y33886536D01*
X44071462Y33967247D01*
X44152336Y34060262D01*
X44257740Y34245012D01*
X44366040Y34483139D01*
X44375077Y34505595D01*
X44408321Y34589116D01*
X44719843Y34589116D01*
X44737266Y34456061D01*
X44856106Y34394568D01*
X44888315Y34392935D01*
X45018192Y34401249D01*
X45060869Y34417146D01*
X45040460Y34491849D01*
X44990426Y34643274D01*
X44981406Y34669306D01*
X44923913Y34814636D01*
X44877597Y34844711D01*
X44813572Y34776378D01*
X44808851Y34769947D01*
X44719843Y34589116D01*
X44408321Y34589116D01*
X44563752Y34979619D01*
X44394466Y35038376D01*
G37*
%TO.C,R13*%
X50262742Y41477500D02*
X50737258Y41477500D01*
X50262742Y42522500D02*
X50737258Y42522500D01*
%TO.C,C21*%
X32359420Y33510000D02*
X32640580Y33510000D01*
X32359420Y32490000D02*
X32640580Y32490000D01*
%TO.C,kibuzzard-6482295C*%
G36*
X16412546Y25361261D02*
G01*
X17587454Y25361261D01*
X17587454Y24238739D01*
X16412546Y24238739D01*
X16412546Y24357802D01*
X16722108Y24357802D01*
X17277892Y24357802D01*
X17277892Y24503534D01*
X16899273Y24503534D01*
X16899273Y25242198D01*
X16722108Y25242198D01*
X16722108Y24357802D01*
X16412546Y24357802D01*
X16412546Y25361261D01*
G37*
%TO.C,kibuzzard-6481EDF2*%
G36*
X36676977Y43401905D02*
G01*
X36650308Y43284747D01*
X36619828Y43166637D01*
X36584585Y43039955D01*
X36549342Y43166637D01*
X36518862Y43284747D01*
X36493145Y43401905D01*
X36470285Y43523825D01*
X36700790Y43523825D01*
X36676977Y43401905D01*
G37*
G36*
X42174490Y42625935D02*
G01*
X33825510Y42625935D01*
X33825510Y43990550D01*
X34222385Y43990550D01*
X34253341Y43905539D01*
X34292870Y43818147D01*
X34339304Y43730517D01*
X34390978Y43644792D01*
X34446937Y43562639D01*
X34506230Y43485725D01*
X34566714Y43415716D01*
X34626245Y43354280D01*
X34568381Y43284271D01*
X34512897Y43211405D01*
X34460272Y43137824D01*
X34410980Y43065672D01*
X34365974Y42995664D01*
X34326207Y42928512D01*
X34262390Y42811355D01*
X34527185Y42811355D01*
X34584335Y42925655D01*
X34659583Y43053290D01*
X34746260Y43182830D01*
X34833890Y43300940D01*
X34833890Y42811355D01*
X35068205Y42811355D01*
X35068205Y43933400D01*
X35212985Y43933400D01*
X35272040Y43748615D01*
X35368242Y43790525D01*
X35519690Y43811480D01*
X35655659Y43784572D01*
X35747337Y43703847D01*
X35785967Y43621615D01*
X35809144Y43518427D01*
X35816870Y43394285D01*
X35810441Y43287605D01*
X35791153Y43199975D01*
X35724477Y43075197D01*
X35631132Y43008522D01*
X35523500Y42988520D01*
X35381577Y43008522D01*
X35275850Y43057100D01*
X35214890Y42870410D01*
X35253943Y42847550D01*
X35317760Y42818975D01*
X35406343Y42795162D01*
X35519690Y42784685D01*
X35631371Y42794924D01*
X35734002Y42825642D01*
X35825442Y42876125D01*
X35903548Y42945657D01*
X35967127Y43033526D01*
X36014990Y43139015D01*
X36044994Y43261411D01*
X36054995Y43400000D01*
X36046780Y43539184D01*
X36022134Y43661461D01*
X35981057Y43766832D01*
X35923550Y43855295D01*
X35822797Y43944195D01*
X35712428Y43990550D01*
X36123575Y43990550D01*
X36155007Y43856857D01*
X36186821Y43727050D01*
X36219016Y43601130D01*
X36251591Y43479096D01*
X36284547Y43360947D01*
X36326041Y43217656D01*
X36367653Y43078293D01*
X36409385Y42942860D01*
X36451235Y42811355D01*
X36706505Y42811355D01*
X37177040Y42811355D01*
X37807595Y42811355D01*
X37807595Y43005665D01*
X37413260Y43005665D01*
X37413260Y43582880D01*
X37427309Y43693608D01*
X37469457Y43762902D01*
X37534466Y43799336D01*
X37617095Y43811480D01*
X37736157Y43782905D01*
X37841885Y43723850D01*
X37931420Y43910540D01*
X37889803Y43933400D01*
X39022985Y43933400D01*
X39082040Y43748615D01*
X39178243Y43790525D01*
X39329690Y43811480D01*
X39465659Y43784572D01*
X39557337Y43703847D01*
X39595967Y43621615D01*
X39619144Y43518427D01*
X39626870Y43394285D01*
X39620441Y43287605D01*
X39601152Y43199975D01*
X39534477Y43075197D01*
X39441133Y43008522D01*
X39333500Y42988520D01*
X39191578Y43008522D01*
X39085850Y43057100D01*
X39024890Y42870410D01*
X39063942Y42847550D01*
X39127760Y42818975D01*
X39216342Y42795162D01*
X39329690Y42784685D01*
X39441371Y42794924D01*
X39496269Y42811355D01*
X40017395Y42811355D01*
X40766060Y42811355D01*
X40766060Y43005665D01*
X40508885Y43005665D01*
X40508885Y43796240D01*
X40766060Y43796240D01*
X40766060Y43990550D01*
X40912745Y43990550D01*
X40917031Y43839817D01*
X40922270Y43692417D01*
X40928699Y43547161D01*
X40936557Y43402857D01*
X40946083Y43258316D01*
X40957513Y43112345D01*
X40970133Y42963755D01*
X40983230Y42811355D01*
X41177540Y42811355D01*
X41211830Y42912320D01*
X41253740Y43042812D01*
X41301365Y43187592D01*
X41348990Y43333325D01*
X41392805Y43196165D01*
X41438525Y43049480D01*
X41481388Y42914225D01*
X41514725Y42811355D01*
X41709035Y42811355D01*
X41721656Y42940419D01*
X41732848Y43079960D01*
X41742611Y43227121D01*
X41750945Y43379045D01*
X41758327Y43533826D01*
X41765233Y43689560D01*
X41771662Y43842912D01*
X41777615Y43990550D01*
X41562350Y43990550D01*
X41571875Y43074245D01*
X41432810Y43573355D01*
X41261360Y43573355D01*
X41116580Y43074245D01*
X41128010Y43990550D01*
X40912745Y43990550D01*
X40766060Y43990550D01*
X40017395Y43990550D01*
X40017395Y43796240D01*
X40272665Y43796240D01*
X40272665Y43005665D01*
X40017395Y43005665D01*
X40017395Y42811355D01*
X39496269Y42811355D01*
X39544003Y42825642D01*
X39635443Y42876125D01*
X39713547Y42945657D01*
X39777127Y43033526D01*
X39824990Y43139015D01*
X39854994Y43261411D01*
X39864995Y43400000D01*
X39856780Y43539184D01*
X39832134Y43661461D01*
X39791057Y43766832D01*
X39733550Y43855295D01*
X39632797Y43944195D01*
X39505797Y43997535D01*
X39352550Y44015315D01*
X39248489Y44008886D01*
X39157287Y43989597D01*
X39022985Y43933400D01*
X37889803Y43933400D01*
X37796165Y43984835D01*
X37706154Y44007695D01*
X37596140Y44015315D01*
X37490412Y44006981D01*
X37401830Y43981977D01*
X37329202Y43942687D01*
X37271337Y43891490D01*
X37198947Y43758140D01*
X37182517Y43679559D01*
X37177040Y43596215D01*
X37177040Y42811355D01*
X36706505Y42811355D01*
X36746867Y42941788D01*
X36787944Y43075912D01*
X36829735Y43213727D01*
X36872240Y43355232D01*
X36906454Y43472390D01*
X36940515Y43594500D01*
X36974424Y43721564D01*
X37008181Y43853580D01*
X37041785Y43990550D01*
X36797945Y43990550D01*
X36744605Y43718135D01*
X36430280Y43718135D01*
X36375035Y43990550D01*
X36123575Y43990550D01*
X35712428Y43990550D01*
X35695797Y43997535D01*
X35542550Y44015315D01*
X35438489Y44008886D01*
X35347287Y43989597D01*
X35212985Y43933400D01*
X35068205Y43933400D01*
X35068205Y43990550D01*
X34833890Y43990550D01*
X34833890Y43451435D01*
X34733877Y43559067D01*
X34682681Y43625266D01*
X34633865Y43696228D01*
X34588383Y43770522D01*
X34547187Y43846722D01*
X34487180Y43990550D01*
X34222385Y43990550D01*
X33825510Y43990550D01*
X33825510Y44174065D01*
X42174490Y44174065D01*
X42174490Y42625935D01*
G37*
%TO.C,C19*%
X26210000Y19459420D02*
X26210000Y19740580D01*
X25190000Y19459420D02*
X25190000Y19740580D01*
%TO.C,R1*%
X8477500Y22137258D02*
X8477500Y21662742D01*
X9522500Y22137258D02*
X9522500Y21662742D01*
%TO.C,C23*%
X32640580Y34090000D02*
X32359420Y34090000D01*
X32640580Y35110000D02*
X32359420Y35110000D01*
%TO.C,R10*%
X16222500Y19362742D02*
X16222500Y19837258D01*
X15177500Y19362742D02*
X15177500Y19837258D01*
%TO.C,C20*%
X16640580Y32490000D02*
X16359420Y32490000D01*
X16640580Y33510000D02*
X16359420Y33510000D01*
%TO.C,D2*%
X51035000Y33485000D02*
X49565000Y33485000D01*
X49565000Y33485000D02*
X49565000Y31200000D01*
X51035000Y31200000D02*
X51035000Y33485000D01*
%TO.C,J1*%
X13750000Y2250000D02*
X13750000Y5750000D01*
X8250000Y5750000D02*
X8250000Y2250000D01*
X8250000Y2250000D02*
X13750000Y2250000D01*
X13750000Y5750000D02*
X8250000Y5750000D01*
%TO.C,RV3*%
X24400000Y47750000D02*
X16400000Y47750000D01*
X16400000Y44250000D02*
X24400000Y44250000D01*
X24400000Y44250000D02*
X24400000Y47750000D01*
X16400000Y47750000D02*
X16400000Y44250000D01*
%TO.C,R8*%
X27322500Y37362742D02*
X27322500Y37837258D01*
X26277500Y37362742D02*
X26277500Y37837258D01*
%TO.C,C3*%
X39710000Y9940580D02*
X39710000Y9659420D01*
X38690000Y9940580D02*
X38690000Y9659420D01*
%TO.C,kibuzzard-6482294B*%
G36*
X16409450Y30461261D02*
G01*
X17590550Y30461261D01*
X17590550Y29338739D01*
X16409450Y29338739D01*
X16409450Y29457802D01*
X16707106Y29457802D01*
X16882842Y29457802D01*
X16882842Y29847851D01*
X17117158Y29847851D01*
X17117158Y29457802D01*
X17292894Y29457802D01*
X17292894Y30342198D01*
X17117158Y30342198D01*
X17117158Y29993583D01*
X16882842Y29993583D01*
X16882842Y30342198D01*
X16707106Y30342198D01*
X16707106Y29457802D01*
X16409450Y29457802D01*
X16409450Y30461261D01*
G37*
%TO.C,U1*%
X10610000Y16000000D02*
X10610000Y18925000D01*
X7390000Y16000000D02*
X7390000Y14500000D01*
X7390000Y16000000D02*
X7390000Y17500000D01*
X10610000Y16000000D02*
X10610000Y14500000D01*
%TO.C,RV2*%
X44900000Y5750000D02*
X36900000Y5750000D01*
X44900000Y2250000D02*
X44900000Y5750000D01*
X36900000Y2250000D02*
X44900000Y2250000D01*
X36900000Y5750000D02*
X36900000Y2250000D01*
%TD*%
M02*
