%TF.GenerationSoftware,KiCad,Pcbnew,(6.0.1)*%
%TF.CreationDate,2023-06-09T19:02:12+03:00*%
%TF.ProjectId,Radioless Allstar Node,52616469-6f6c-4657-9373-20416c6c7374,rev?*%
%TF.SameCoordinates,PX5f5e100PY5f5e100*%
%TF.FileFunction,Legend,Bot*%
%TF.FilePolarity,Positive*%
%FSLAX46Y46*%
G04 Gerber Fmt 4.6, Leading zero omitted, Abs format (unit mm)*
G04 Created by KiCad (PCBNEW (6.0.1)) date 2023-06-09 19:02:12*
%MOMM*%
%LPD*%
G01*
G04 APERTURE LIST*
%ADD10C,0.150000*%
G04 APERTURE END LIST*
D10*
X20566666Y43919048D02*
X20566666Y43442858D01*
X20852380Y44014286D02*
X19852380Y43680953D01*
X20852380Y43347620D01*
X20852380Y43014286D02*
X19852380Y43014286D01*
X20852380Y42538096D02*
X19852380Y42538096D01*
X20852380Y41966667D01*
X19852380Y41966667D01*
X20471428Y41490477D02*
X20471428Y40728572D01*
X20852380Y41109524D02*
X20090476Y41109524D01*
X33452380Y43371429D02*
X32976190Y43704762D01*
X33452380Y43942858D02*
X32452380Y43942858D01*
X32452380Y43561905D01*
X32500000Y43466667D01*
X32547619Y43419048D01*
X32642857Y43371429D01*
X32785714Y43371429D01*
X32880952Y43419048D01*
X32928571Y43466667D01*
X32976190Y43561905D01*
X32976190Y43942858D01*
X32452380Y43038096D02*
X33452380Y42371429D01*
X32452380Y42371429D02*
X33452380Y43038096D01*
X33547619Y42228572D02*
X33547619Y41466667D01*
X33166666Y41276191D02*
X33166666Y40800000D01*
X33452380Y41371429D02*
X32452380Y41038096D01*
X33452380Y40704762D01*
X32785714Y39942858D02*
X33452380Y39942858D01*
X32785714Y40371429D02*
X33309523Y40371429D01*
X33404761Y40323810D01*
X33452380Y40228572D01*
X33452380Y40085715D01*
X33404761Y39990477D01*
X33357142Y39942858D01*
X33452380Y39038096D02*
X32452380Y39038096D01*
X33404761Y39038096D02*
X33452380Y39133334D01*
X33452380Y39323810D01*
X33404761Y39419048D01*
X33357142Y39466667D01*
X33261904Y39514286D01*
X32976190Y39514286D01*
X32880952Y39466667D01*
X32833333Y39419048D01*
X32785714Y39323810D01*
X32785714Y39133334D01*
X32833333Y39038096D01*
X33452380Y38561905D02*
X32785714Y38561905D01*
X32452380Y38561905D02*
X32500000Y38609524D01*
X32547619Y38561905D01*
X32500000Y38514286D01*
X32452380Y38561905D01*
X32547619Y38561905D01*
X33452380Y37942858D02*
X33404761Y38038096D01*
X33357142Y38085715D01*
X33261904Y38133334D01*
X32976190Y38133334D01*
X32880952Y38085715D01*
X32833333Y38038096D01*
X32785714Y37942858D01*
X32785714Y37800000D01*
X32833333Y37704762D01*
X32880952Y37657143D01*
X32976190Y37609524D01*
X33261904Y37609524D01*
X33357142Y37657143D01*
X33404761Y37704762D01*
X33452380Y37800000D01*
X33452380Y37942858D01*
X17252380Y44095239D02*
X17252380Y43523810D01*
X18252380Y43809524D02*
X17252380Y43809524D01*
X18252380Y43285715D02*
X17585714Y42761905D01*
X17585714Y43285715D02*
X18252380Y42761905D01*
X18347619Y42619048D02*
X18347619Y41857143D01*
X17966666Y41666667D02*
X17966666Y41190477D01*
X18252380Y41761905D02*
X17252380Y41428572D01*
X18252380Y41095239D01*
X17585714Y40333334D02*
X18252380Y40333334D01*
X17585714Y40761905D02*
X18109523Y40761905D01*
X18204761Y40714286D01*
X18252380Y40619048D01*
X18252380Y40476191D01*
X18204761Y40380953D01*
X18157142Y40333334D01*
X18252380Y39428572D02*
X17252380Y39428572D01*
X18204761Y39428572D02*
X18252380Y39523810D01*
X18252380Y39714286D01*
X18204761Y39809524D01*
X18157142Y39857143D01*
X18061904Y39904762D01*
X17776190Y39904762D01*
X17680952Y39857143D01*
X17633333Y39809524D01*
X17585714Y39714286D01*
X17585714Y39523810D01*
X17633333Y39428572D01*
X18252380Y38952381D02*
X17585714Y38952381D01*
X17252380Y38952381D02*
X17300000Y39000000D01*
X17347619Y38952381D01*
X17300000Y38904762D01*
X17252380Y38952381D01*
X17347619Y38952381D01*
X18252380Y38333334D02*
X18204761Y38428572D01*
X18157142Y38476191D01*
X18061904Y38523810D01*
X17776190Y38523810D01*
X17680952Y38476191D01*
X17633333Y38428572D01*
X17585714Y38333334D01*
X17585714Y38190477D01*
X17633333Y38095239D01*
X17680952Y38047620D01*
X17776190Y38000000D01*
X18061904Y38000000D01*
X18157142Y38047620D01*
X18204761Y38095239D01*
X18252380Y38190477D01*
X18252380Y38333334D01*
X9152380Y6685715D02*
X9152380Y6114286D01*
X10152380Y6400000D02*
X9152380Y6400000D01*
X42947619Y6428572D02*
X43423809Y6095239D01*
X42947619Y5857143D02*
X43947619Y5857143D01*
X43947619Y6238096D01*
X43900000Y6333334D01*
X43852380Y6380953D01*
X43757142Y6428572D01*
X43614285Y6428572D01*
X43519047Y6380953D01*
X43471428Y6333334D01*
X43423809Y6238096D01*
X43423809Y5857143D01*
X43947619Y6761905D02*
X42947619Y7428572D01*
X43947619Y7428572D02*
X42947619Y6761905D01*
X42852380Y7571429D02*
X42852380Y8333334D01*
X43233333Y8523810D02*
X43233333Y9000000D01*
X42947619Y8428572D02*
X43947619Y8761905D01*
X42947619Y9095239D01*
X43614285Y9857143D02*
X42947619Y9857143D01*
X43614285Y9428572D02*
X43090476Y9428572D01*
X42995238Y9476191D01*
X42947619Y9571429D01*
X42947619Y9714286D01*
X42995238Y9809524D01*
X43042857Y9857143D01*
X42947619Y10761905D02*
X43947619Y10761905D01*
X42995238Y10761905D02*
X42947619Y10666667D01*
X42947619Y10476191D01*
X42995238Y10380953D01*
X43042857Y10333334D01*
X43138095Y10285715D01*
X43423809Y10285715D01*
X43519047Y10333334D01*
X43566666Y10380953D01*
X43614285Y10476191D01*
X43614285Y10666667D01*
X43566666Y10761905D01*
X42947619Y11238096D02*
X43614285Y11238096D01*
X43947619Y11238096D02*
X43900000Y11190477D01*
X43852380Y11238096D01*
X43900000Y11285715D01*
X43947619Y11238096D01*
X43852380Y11238096D01*
X42947619Y11857143D02*
X42995238Y11761905D01*
X43042857Y11714286D01*
X43138095Y11666667D01*
X43423809Y11666667D01*
X43519047Y11714286D01*
X43566666Y11761905D01*
X43614285Y11857143D01*
X43614285Y12000000D01*
X43566666Y12095239D01*
X43519047Y12142858D01*
X43423809Y12190477D01*
X43138095Y12190477D01*
X43042857Y12142858D01*
X42995238Y12095239D01*
X42947619Y12000000D01*
X42947619Y11857143D01*
X40952380Y43976191D02*
X39952380Y43976191D01*
X40666666Y43642858D01*
X39952380Y43309524D01*
X40952380Y43309524D01*
X40952380Y42833334D02*
X39952380Y42833334D01*
X40857142Y41785715D02*
X40904761Y41833334D01*
X40952380Y41976191D01*
X40952380Y42071429D01*
X40904761Y42214286D01*
X40809523Y42309524D01*
X40714285Y42357143D01*
X40523809Y42404762D01*
X40380952Y42404762D01*
X40190476Y42357143D01*
X40095238Y42309524D01*
X40000000Y42214286D01*
X39952380Y42071429D01*
X39952380Y41976191D01*
X40000000Y41833334D01*
X40047619Y41785715D01*
X40000000Y40071429D02*
X39952380Y40166667D01*
X39952380Y40309524D01*
X40000000Y40452381D01*
X40095238Y40547620D01*
X40190476Y40595239D01*
X40380952Y40642858D01*
X40523809Y40642858D01*
X40714285Y40595239D01*
X40809523Y40547620D01*
X40904761Y40452381D01*
X40952380Y40309524D01*
X40952380Y40214286D01*
X40904761Y40071429D01*
X40857142Y40023810D01*
X40523809Y40023810D01*
X40523809Y40214286D01*
X40952380Y39595239D02*
X39952380Y39595239D01*
X40952380Y39023810D01*
X39952380Y39023810D01*
X40952380Y38547620D02*
X39952380Y38547620D01*
X39952380Y38309524D01*
X40000000Y38166667D01*
X40095238Y38071429D01*
X40190476Y38023810D01*
X40380952Y37976191D01*
X40523809Y37976191D01*
X40714285Y38023810D01*
X40809523Y38071429D01*
X40904761Y38166667D01*
X40952380Y38309524D01*
X40952380Y38547620D01*
X35957142Y43390477D02*
X36004761Y43438096D01*
X36052380Y43580953D01*
X36052380Y43676191D01*
X36004761Y43819048D01*
X35909523Y43914286D01*
X35814285Y43961905D01*
X35623809Y44009524D01*
X35480952Y44009524D01*
X35290476Y43961905D01*
X35195238Y43914286D01*
X35100000Y43819048D01*
X35052380Y43676191D01*
X35052380Y43580953D01*
X35100000Y43438096D01*
X35147619Y43390477D01*
X35052380Y42771429D02*
X35052380Y42580953D01*
X35100000Y42485715D01*
X35195238Y42390477D01*
X35385714Y42342858D01*
X35719047Y42342858D01*
X35909523Y42390477D01*
X36004761Y42485715D01*
X36052380Y42580953D01*
X36052380Y42771429D01*
X36004761Y42866667D01*
X35909523Y42961905D01*
X35719047Y43009524D01*
X35385714Y43009524D01*
X35195238Y42961905D01*
X35100000Y42866667D01*
X35052380Y42771429D01*
X36004761Y41961905D02*
X36052380Y41819048D01*
X36052380Y41580953D01*
X36004761Y41485715D01*
X35957142Y41438096D01*
X35861904Y41390477D01*
X35766666Y41390477D01*
X35671428Y41438096D01*
X35623809Y41485715D01*
X35576190Y41580953D01*
X35528571Y41771429D01*
X35480952Y41866667D01*
X35433333Y41914286D01*
X35338095Y41961905D01*
X35242857Y41961905D01*
X35147619Y41914286D01*
X35100000Y41866667D01*
X35052380Y41771429D01*
X35052380Y41533334D01*
X35100000Y41390477D01*
X46561904Y26100000D02*
X46657142Y26147620D01*
X46800000Y26147620D01*
X46942857Y26100000D01*
X47038095Y26004762D01*
X47085714Y25909524D01*
X47133333Y25719048D01*
X47133333Y25576191D01*
X47085714Y25385715D01*
X47038095Y25290477D01*
X46942857Y25195239D01*
X46800000Y25147620D01*
X46704761Y25147620D01*
X46561904Y25195239D01*
X46514285Y25242858D01*
X46514285Y25576191D01*
X46704761Y25576191D01*
X46085714Y25147620D02*
X46085714Y26147620D01*
X45514285Y25147620D01*
X45514285Y26147620D01*
X45038095Y25147620D02*
X45038095Y26147620D01*
X44800000Y26147620D01*
X44657142Y26100000D01*
X44561904Y26004762D01*
X44514285Y25909524D01*
X44466666Y25719048D01*
X44466666Y25576191D01*
X44514285Y25385715D01*
X44561904Y25290477D01*
X44657142Y25195239D01*
X44800000Y25147620D01*
X45038095Y25147620D01*
X42600000Y43461905D02*
X42552380Y43557143D01*
X42552380Y43700000D01*
X42600000Y43842858D01*
X42695238Y43938096D01*
X42790476Y43985715D01*
X42980952Y44033334D01*
X43123809Y44033334D01*
X43314285Y43985715D01*
X43409523Y43938096D01*
X43504761Y43842858D01*
X43552380Y43700000D01*
X43552380Y43604762D01*
X43504761Y43461905D01*
X43457142Y43414286D01*
X43123809Y43414286D01*
X43123809Y43604762D01*
X43552380Y42985715D02*
X42552380Y42985715D01*
X43552380Y42414286D01*
X42552380Y42414286D01*
X43552380Y41938096D02*
X42552380Y41938096D01*
X42552380Y41700000D01*
X42600000Y41557143D01*
X42695238Y41461905D01*
X42790476Y41414286D01*
X42980952Y41366667D01*
X43123809Y41366667D01*
X43314285Y41414286D01*
X43409523Y41461905D01*
X43504761Y41557143D01*
X43552380Y41700000D01*
X43552380Y41938096D01*
X38071428Y44185715D02*
X38071428Y43423810D01*
X38452380Y43804762D02*
X37690476Y43804762D01*
X37452380Y42471429D02*
X37452380Y42947620D01*
X37928571Y42995239D01*
X37880952Y42947620D01*
X37833333Y42852381D01*
X37833333Y42614286D01*
X37880952Y42519048D01*
X37928571Y42471429D01*
X38023809Y42423810D01*
X38261904Y42423810D01*
X38357142Y42471429D01*
X38404761Y42519048D01*
X38452380Y42614286D01*
X38452380Y42852381D01*
X38404761Y42947620D01*
X38357142Y42995239D01*
X37452380Y42138096D02*
X38452380Y41804762D01*
X37452380Y41471429D01*
X40447619Y5914286D02*
X41447619Y5914286D01*
X40733333Y6247620D01*
X41447619Y6580953D01*
X40447619Y6580953D01*
X40447619Y7057143D02*
X41447619Y7057143D01*
X40542857Y8104762D02*
X40495238Y8057143D01*
X40447619Y7914286D01*
X40447619Y7819048D01*
X40495238Y7676191D01*
X40590476Y7580953D01*
X40685714Y7533334D01*
X40876190Y7485715D01*
X41019047Y7485715D01*
X41209523Y7533334D01*
X41304761Y7580953D01*
X41400000Y7676191D01*
X41447619Y7819048D01*
X41447619Y7914286D01*
X41400000Y8057143D01*
X41352380Y8104762D01*
X40495238Y9247620D02*
X40447619Y9390477D01*
X40447619Y9628572D01*
X40495238Y9723810D01*
X40542857Y9771429D01*
X40638095Y9819048D01*
X40733333Y9819048D01*
X40828571Y9771429D01*
X40876190Y9723810D01*
X40923809Y9628572D01*
X40971428Y9438096D01*
X41019047Y9342858D01*
X41066666Y9295239D01*
X41161904Y9247620D01*
X41257142Y9247620D01*
X41352380Y9295239D01*
X41400000Y9342858D01*
X41447619Y9438096D01*
X41447619Y9676191D01*
X41400000Y9819048D01*
X40447619Y10247620D02*
X41114285Y10247620D01*
X41447619Y10247620D02*
X41400000Y10200000D01*
X41352380Y10247620D01*
X41400000Y10295239D01*
X41447619Y10247620D01*
X41352380Y10247620D01*
X41114285Y11152381D02*
X40304761Y11152381D01*
X40209523Y11104762D01*
X40161904Y11057143D01*
X40114285Y10961905D01*
X40114285Y10819048D01*
X40161904Y10723810D01*
X40495238Y11152381D02*
X40447619Y11057143D01*
X40447619Y10866667D01*
X40495238Y10771429D01*
X40542857Y10723810D01*
X40638095Y10676191D01*
X40923809Y10676191D01*
X41019047Y10723810D01*
X41066666Y10771429D01*
X41114285Y10866667D01*
X41114285Y11057143D01*
X41066666Y11152381D01*
X41114285Y11628572D02*
X40447619Y11628572D01*
X41019047Y11628572D02*
X41066666Y11676191D01*
X41114285Y11771429D01*
X41114285Y11914286D01*
X41066666Y12009524D01*
X40971428Y12057143D01*
X40447619Y12057143D01*
X40447619Y12961905D02*
X40971428Y12961905D01*
X41066666Y12914286D01*
X41114285Y12819048D01*
X41114285Y12628572D01*
X41066666Y12533334D01*
X40495238Y12961905D02*
X40447619Y12866667D01*
X40447619Y12628572D01*
X40495238Y12533334D01*
X40590476Y12485715D01*
X40685714Y12485715D01*
X40780952Y12533334D01*
X40828571Y12628572D01*
X40828571Y12866667D01*
X40876190Y12961905D01*
X40447619Y13580953D02*
X40495238Y13485715D01*
X40590476Y13438096D01*
X41447619Y13438096D01*
X46985714Y20428572D02*
X46223809Y20428572D01*
X46604761Y20047620D02*
X46604761Y20809524D01*
X45271428Y21047620D02*
X45747619Y21047620D01*
X45795238Y20571429D01*
X45747619Y20619048D01*
X45652380Y20666667D01*
X45414285Y20666667D01*
X45319047Y20619048D01*
X45271428Y20571429D01*
X45223809Y20476191D01*
X45223809Y20238096D01*
X45271428Y20142858D01*
X45319047Y20095239D01*
X45414285Y20047620D01*
X45652380Y20047620D01*
X45747619Y20095239D01*
X45795238Y20142858D01*
X44938095Y21047620D02*
X44604761Y20047620D01*
X44271428Y21047620D01*
X12604761Y6785715D02*
X12652380Y6642858D01*
X12652380Y6404762D01*
X12604761Y6309524D01*
X12557142Y6261905D01*
X12461904Y6214286D01*
X12366666Y6214286D01*
X12271428Y6261905D01*
X12223809Y6309524D01*
X12176190Y6404762D01*
X12128571Y6595239D01*
X12080952Y6690477D01*
X12033333Y6738096D01*
X11938095Y6785715D01*
X11842857Y6785715D01*
X11747619Y6738096D01*
X11700000Y6690477D01*
X11652380Y6595239D01*
X11652380Y6357143D01*
X11700000Y6214286D01*
X46528571Y23500000D02*
X46623809Y23547620D01*
X46766666Y23547620D01*
X46909523Y23500000D01*
X47004761Y23404762D01*
X47052380Y23309524D01*
X47100000Y23119048D01*
X47100000Y22976191D01*
X47052380Y22785715D01*
X47004761Y22690477D01*
X46909523Y22595239D01*
X46766666Y22547620D01*
X46671428Y22547620D01*
X46528571Y22595239D01*
X46480952Y22642858D01*
X46480952Y22976191D01*
X46671428Y22976191D01*
X46100000Y22833334D02*
X45623809Y22833334D01*
X46195238Y22547620D02*
X45861904Y23547620D01*
X45528571Y22547620D01*
X45195238Y22547620D02*
X45195238Y23547620D01*
X44719047Y22547620D02*
X44719047Y23547620D01*
X44147619Y22547620D01*
X44147619Y23547620D01*
X22400000Y43561905D02*
X22352380Y43657143D01*
X22352380Y43800000D01*
X22400000Y43942858D01*
X22495238Y44038096D01*
X22590476Y44085715D01*
X22780952Y44133334D01*
X22923809Y44133334D01*
X23114285Y44085715D01*
X23209523Y44038096D01*
X23304761Y43942858D01*
X23352380Y43800000D01*
X23352380Y43704762D01*
X23304761Y43561905D01*
X23257142Y43514286D01*
X22923809Y43514286D01*
X22923809Y43704762D01*
X23352380Y43085715D02*
X22352380Y43085715D01*
X23352380Y42514286D01*
X22352380Y42514286D01*
X23352380Y42038096D02*
X22352380Y42038096D01*
X22352380Y41800000D01*
X22400000Y41657143D01*
X22495238Y41561905D01*
X22590476Y41514286D01*
X22780952Y41466667D01*
X22923809Y41466667D01*
X23114285Y41514286D01*
X23209523Y41561905D01*
X23304761Y41657143D01*
X23352380Y41800000D01*
X23352380Y42038096D01*
M02*
